G04 #@! TF.GenerationSoftware,KiCad,Pcbnew,8.0.3*
G04 #@! TF.CreationDate,2024-06-27T11:15:23-04:00*
G04 #@! TF.ProjectId,ESP32-S3-DevBoard,45535033-322d-4533-932d-446576426f61,rev?*
G04 #@! TF.SameCoordinates,Original*
G04 #@! TF.FileFunction,Copper,L4,Bot*
G04 #@! TF.FilePolarity,Positive*
%FSLAX46Y46*%
G04 Gerber Fmt 4.6, Leading zero omitted, Abs format (unit mm)*
G04 Created by KiCad (PCBNEW 8.0.3) date 2024-06-27 11:15:23*
%MOMM*%
%LPD*%
G01*
G04 APERTURE LIST*
G04 #@! TA.AperFunction,HeatsinkPad*
%ADD10C,0.600000*%
G04 #@! TD*
G04 #@! TA.AperFunction,ComponentPad*
%ADD11R,1.700000X1.700000*%
G04 #@! TD*
G04 #@! TA.AperFunction,ComponentPad*
%ADD12O,1.700000X1.700000*%
G04 #@! TD*
G04 #@! TA.AperFunction,ComponentPad*
%ADD13O,1.000000X2.100000*%
G04 #@! TD*
G04 #@! TA.AperFunction,ComponentPad*
%ADD14O,1.000000X1.800000*%
G04 #@! TD*
G04 #@! TA.AperFunction,ViaPad*
%ADD15C,0.600000*%
G04 #@! TD*
G04 #@! TA.AperFunction,Conductor*
%ADD16C,0.200000*%
G04 #@! TD*
G04 APERTURE END LIST*
D10*
X187700000Y-61396000D03*
X187700000Y-62796000D03*
X188400000Y-60696000D03*
X188400000Y-62096000D03*
X188400000Y-63496000D03*
X189100000Y-61396000D03*
X189100000Y-62796000D03*
X189800000Y-60696000D03*
X189800000Y-62096000D03*
X189800000Y-63496000D03*
X190500000Y-61396000D03*
X190500000Y-62796000D03*
D11*
X176530000Y-54864000D03*
D12*
X176530000Y-57404000D03*
X176530000Y-59944000D03*
X176530000Y-62484000D03*
X176530000Y-65024000D03*
X176530000Y-67564000D03*
X176530000Y-70104000D03*
X176530000Y-72644000D03*
X176530000Y-75184000D03*
X176530000Y-77724000D03*
X176530000Y-80264000D03*
X176530000Y-82804000D03*
X176530000Y-85344000D03*
X176530000Y-87884000D03*
X176530000Y-90424000D03*
X176530000Y-92964000D03*
X176530000Y-95504000D03*
X176530000Y-98044000D03*
X176530000Y-100584000D03*
X176530000Y-103124000D03*
X176530000Y-105664000D03*
X176530000Y-108204000D03*
D11*
X204724000Y-54864000D03*
D12*
X204724000Y-57404000D03*
X204724000Y-59944000D03*
X204724000Y-62484000D03*
X204724000Y-65024000D03*
X204724000Y-67564000D03*
X204724000Y-70104000D03*
X204724000Y-72644000D03*
X204724000Y-75184000D03*
X204724000Y-77724000D03*
X204724000Y-80264000D03*
X204724000Y-82804000D03*
X204724000Y-85344000D03*
X204724000Y-87884000D03*
X204724000Y-90424000D03*
X204724000Y-92964000D03*
X204724000Y-95504000D03*
X204724000Y-98044000D03*
X204724000Y-100584000D03*
X204724000Y-103124000D03*
X204724000Y-105664000D03*
X204724000Y-108204000D03*
D13*
X186180000Y-103321000D03*
D14*
X186180000Y-107501000D03*
D13*
X194820000Y-103321000D03*
D14*
X194820000Y-107501000D03*
D15*
X178054000Y-108204000D03*
X203200000Y-54864000D03*
X180594000Y-54380000D03*
X188722000Y-92710000D03*
X190500000Y-80645000D03*
X197612000Y-97028000D03*
X184531000Y-104394000D03*
X192913000Y-78935000D03*
X200660000Y-54380000D03*
X189250000Y-97028000D03*
X188087000Y-78935000D03*
X197511500Y-106299000D03*
X191750000Y-97028000D03*
X182499000Y-90424000D03*
X195721000Y-89521000D03*
X199263000Y-81085000D03*
X182054500Y-81851500D03*
X199236500Y-106299000D03*
X186563000Y-76962000D03*
X194437000Y-76962000D03*
X180594000Y-55650000D03*
X182499000Y-86360000D03*
X200660000Y-59436000D03*
X200660000Y-58166000D03*
X189484000Y-101473000D03*
X183134000Y-69596000D03*
X183896000Y-70885998D03*
X191516000Y-101473000D03*
D16*
X200660000Y-58166000D02*
X201422000Y-57404000D01*
X201422000Y-57404000D02*
X204724000Y-57404000D01*
X199263000Y-82423000D02*
X204724000Y-87884000D01*
X199263000Y-81085000D02*
X199263000Y-82423000D01*
X182054500Y-81851500D02*
X177800000Y-77597000D01*
X177800000Y-77597000D02*
X177800000Y-61214000D01*
X177800000Y-61214000D02*
X176530000Y-59944000D01*
X179705000Y-108839000D02*
X176530000Y-105664000D01*
X196723000Y-108839000D02*
X179705000Y-108839000D01*
X199236500Y-106325500D02*
X196723000Y-108839000D01*
X199236500Y-106299000D02*
X199236500Y-106325500D01*
X200660000Y-59436000D02*
X201168000Y-59944000D01*
X201168000Y-59944000D02*
X204724000Y-59944000D01*
X189484000Y-101473000D02*
X189484000Y-100077397D01*
X183134000Y-93727397D02*
X183134000Y-69596000D01*
X189484000Y-101473000D02*
X193646000Y-105635000D01*
X189484000Y-100077397D02*
X183134000Y-93727397D01*
X202820397Y-103124000D02*
X204724000Y-103124000D01*
X193646000Y-105635000D02*
X200309397Y-105635000D01*
X200309397Y-105635000D02*
X202820397Y-103124000D01*
X191516000Y-102901594D02*
X193799406Y-105185000D01*
X200123000Y-105185000D02*
X204724000Y-100584000D01*
X191516000Y-101473000D02*
X191516000Y-102901594D01*
X183584001Y-71197997D02*
X183896000Y-70885998D01*
X191516000Y-101473000D02*
X183584001Y-93541001D01*
X183584001Y-93541001D02*
X183584001Y-71197997D01*
X193799406Y-105185000D02*
X200123000Y-105185000D01*
M02*
