G04 #@! TF.GenerationSoftware,KiCad,Pcbnew,8.0.3*
G04 #@! TF.CreationDate,2024-06-29T14:25:19-04:00*
G04 #@! TF.ProjectId,ESP32-S3-DevBoard,45535033-322d-4533-932d-446576426f61,rev?*
G04 #@! TF.SameCoordinates,Original*
G04 #@! TF.FileFunction,Paste,Top*
G04 #@! TF.FilePolarity,Positive*
%FSLAX46Y46*%
G04 Gerber Fmt 4.6, Leading zero omitted, Abs format (unit mm)*
G04 Created by KiCad (PCBNEW 8.0.3) date 2024-06-29 14:25:19*
%MOMM*%
%LPD*%
G01*
G04 APERTURE LIST*
G04 Aperture macros list*
%AMRoundRect*
0 Rectangle with rounded corners*
0 $1 Rounding radius*
0 $2 $3 $4 $5 $6 $7 $8 $9 X,Y pos of 4 corners*
0 Add a 4 corners polygon primitive as box body*
4,1,4,$2,$3,$4,$5,$6,$7,$8,$9,$2,$3,0*
0 Add four circle primitives for the rounded corners*
1,1,$1+$1,$2,$3*
1,1,$1+$1,$4,$5*
1,1,$1+$1,$6,$7*
1,1,$1+$1,$8,$9*
0 Add four rect primitives between the rounded corners*
20,1,$1+$1,$2,$3,$4,$5,0*
20,1,$1+$1,$4,$5,$6,$7,0*
20,1,$1+$1,$6,$7,$8,$9,0*
20,1,$1+$1,$8,$9,$2,$3,0*%
G04 Aperture macros list end*
%ADD10RoundRect,0.237500X-0.250000X-0.237500X0.250000X-0.237500X0.250000X0.237500X-0.250000X0.237500X0*%
%ADD11R,1.050000X0.650000*%
%ADD12RoundRect,0.375000X0.375000X-0.625000X0.375000X0.625000X-0.375000X0.625000X-0.375000X-0.625000X0*%
%ADD13RoundRect,0.500000X1.400000X-0.500000X1.400000X0.500000X-1.400000X0.500000X-1.400000X-0.500000X0*%
%ADD14RoundRect,0.237500X0.300000X0.237500X-0.300000X0.237500X-0.300000X-0.237500X0.300000X-0.237500X0*%
%ADD15RoundRect,0.237500X0.237500X-0.250000X0.237500X0.250000X-0.237500X0.250000X-0.237500X-0.250000X0*%
%ADD16R,0.900000X0.900000*%
%ADD17R,1.500000X0.900000*%
%ADD18R,0.900000X1.500000*%
%ADD19RoundRect,0.237500X-0.300000X-0.237500X0.300000X-0.237500X0.300000X0.237500X-0.300000X0.237500X0*%
%ADD20RoundRect,0.237500X-0.237500X0.300000X-0.237500X-0.300000X0.237500X-0.300000X0.237500X0.300000X0*%
%ADD21RoundRect,0.237500X0.250000X0.237500X-0.250000X0.237500X-0.250000X-0.237500X0.250000X-0.237500X0*%
%ADD22RoundRect,0.237500X-0.237500X0.250000X-0.237500X-0.250000X0.237500X-0.250000X0.237500X0.250000X0*%
%ADD23RoundRect,0.151100X-0.151100X-0.414300X0.151100X-0.414300X0.151100X0.414300X-0.151100X0.414300X0*%
%ADD24RoundRect,0.150000X-0.150000X-0.425000X0.150000X-0.425000X0.150000X0.425000X-0.150000X0.425000X0*%
%ADD25RoundRect,0.075000X-0.075000X-0.500000X0.075000X-0.500000X0.075000X0.500000X-0.075000X0.500000X0*%
%ADD26RoundRect,0.151300X-0.151300X-0.414100X0.151300X-0.414100X0.151300X0.414100X-0.151300X0.414100X0*%
%ADD27O,1.000000X2.100000*%
%ADD28O,1.000000X1.800000*%
%ADD29RoundRect,0.250000X0.250000X0.250000X-0.250000X0.250000X-0.250000X-0.250000X0.250000X-0.250000X0*%
%ADD30RoundRect,0.250000X0.250000X-0.250000X0.250000X0.250000X-0.250000X0.250000X-0.250000X-0.250000X0*%
%ADD31RoundRect,0.237500X-0.287500X-0.237500X0.287500X-0.237500X0.287500X0.237500X-0.287500X0.237500X0*%
%ADD32RoundRect,0.250000X-0.250000X0.250000X-0.250000X-0.250000X0.250000X-0.250000X0.250000X0.250000X0*%
%ADD33RoundRect,0.225000X-0.225000X-0.375000X0.225000X-0.375000X0.225000X0.375000X-0.225000X0.375000X0*%
G04 APERTURE END LIST*
D10*
X187555500Y-76962000D03*
X189380500Y-76962000D03*
D11*
X182837000Y-78935000D03*
X186987000Y-78935000D03*
X182837000Y-81085000D03*
X186987000Y-81085000D03*
X194013000Y-78935000D03*
X198163000Y-78935000D03*
X194013000Y-81085000D03*
X198163000Y-81085000D03*
D12*
X188200000Y-90526000D03*
X190500000Y-90526000D03*
D13*
X190500000Y-84226000D03*
D12*
X192800000Y-90526000D03*
D14*
X185266500Y-90424000D03*
X183541500Y-90424000D03*
D15*
X194310000Y-99718500D03*
X194310000Y-97893500D03*
D14*
X185266500Y-88392000D03*
X183541500Y-88392000D03*
D16*
X187700000Y-60696000D03*
X187700000Y-62096000D03*
X187700000Y-63496000D03*
X189100000Y-60696000D03*
X189100000Y-62096000D03*
X189100000Y-63496000D03*
X190500000Y-60696000D03*
X190500000Y-62096000D03*
X190500000Y-63496000D03*
D17*
X181850000Y-54376000D03*
X181850000Y-55646000D03*
X181850000Y-56916000D03*
X181850000Y-58186000D03*
X181850000Y-59456000D03*
X181850000Y-60726000D03*
X181850000Y-61996000D03*
X181850000Y-63266000D03*
X181850000Y-64536000D03*
X181850000Y-65806000D03*
X181850000Y-67076000D03*
X181850000Y-68346000D03*
X181850000Y-69616000D03*
X181850000Y-70886000D03*
D18*
X183615000Y-72136000D03*
X184885000Y-72136000D03*
X186155000Y-72136000D03*
X187425000Y-72136000D03*
X188695000Y-72136000D03*
X189965000Y-72136000D03*
X191235000Y-72136000D03*
X192505000Y-72136000D03*
X193775000Y-72136000D03*
X195045000Y-72136000D03*
X196315000Y-72136000D03*
X197585000Y-72136000D03*
D17*
X199350000Y-70886000D03*
X199350000Y-69616000D03*
X199350000Y-68346000D03*
X199350000Y-67076000D03*
X199350000Y-65806000D03*
X199350000Y-64536000D03*
X199350000Y-63266000D03*
X199350000Y-61996000D03*
X199350000Y-60726000D03*
X199350000Y-59456000D03*
X199350000Y-58186000D03*
X199350000Y-56916000D03*
X199350000Y-55646000D03*
X199350000Y-54376000D03*
D10*
X195683500Y-86360000D03*
X197508500Y-86360000D03*
D19*
X181763500Y-102362000D03*
X183488500Y-102362000D03*
D14*
X199236500Y-104394000D03*
X197511500Y-104394000D03*
D20*
X191770000Y-78893500D03*
X191770000Y-80618500D03*
D21*
X193444500Y-76962000D03*
X191619500Y-76962000D03*
D22*
X186690000Y-97893500D03*
X186690000Y-99718500D03*
D14*
X199236500Y-102362000D03*
X197511500Y-102362000D03*
D19*
X181763500Y-104394000D03*
X183488500Y-104394000D03*
D23*
X187302200Y-102736400D03*
D24*
X188100000Y-102746000D03*
D25*
X189250000Y-102746000D03*
X190250000Y-102746000D03*
X190750000Y-102746000D03*
X191750000Y-102746000D03*
D24*
X192900000Y-102746000D03*
D26*
X193702600Y-102736400D03*
X193702600Y-102736400D03*
D24*
X192900000Y-102746000D03*
D25*
X192250000Y-102746000D03*
X191250000Y-102746000D03*
X189750000Y-102746000D03*
X188750000Y-102746000D03*
D24*
X188100000Y-102746000D03*
D23*
X187302200Y-102736400D03*
D27*
X186180000Y-103321000D03*
D28*
X186180000Y-107501000D03*
D27*
X194820000Y-103321000D03*
D28*
X194820000Y-107501000D03*
D20*
X197612000Y-94260500D03*
X197612000Y-95985500D03*
X189230000Y-78893500D03*
X189230000Y-80618500D03*
D29*
X188702000Y-94488000D03*
X186202000Y-94488000D03*
D30*
X191750000Y-100500000D03*
X191750000Y-98000000D03*
D31*
X195721000Y-88392000D03*
X197471000Y-88392000D03*
D21*
X185316500Y-86360000D03*
X183491500Y-86360000D03*
D32*
X189250000Y-98000000D03*
X189250000Y-100500000D03*
D33*
X191898000Y-94615000D03*
X195198000Y-94615000D03*
M02*
