M48
; DRILL file {KiCad 8.0.3} date 2024-06-25T22:23:40-0400
; FORMAT={-:-/ absolute / metric / decimal}
; #@! TF.CreationDate,2024-06-25T22:23:40-04:00
; #@! TF.GenerationSoftware,Kicad,Pcbnew,8.0.3
; #@! TF.FileFunction,Plated,1,2,Blind
FMAT,2
METRIC
; #@! TA.AperFunction,Plated,Buried,ViaDrill
T1C0.300
%
G90
G05
T1
X178.054Y-108.204
X180.467Y-54.38
X183.488Y-105.51
X183.541Y-91.54
X184.971Y-107.501
X185.039Y-103.378
X186.69Y-96.647
X188.087Y-78.935
X188.722Y-92.71
X189.23Y-96.774
X190.5Y-80.645
X191.77Y-96.901
X192.913Y-78.935
X194.31Y-96.774
X195.721Y-89.521
X195.961Y-103.321
X195.961Y-107.442
X197.511Y-105.51
X197.612Y-97.155
X200.66Y-54.38
X203.073Y-54.864
X203.2Y-105.664
X203.2Y-108.204
M30
