G04 #@! TF.GenerationSoftware,KiCad,Pcbnew,8.0.3*
G04 #@! TF.CreationDate,2024-06-29T14:25:19-04:00*
G04 #@! TF.ProjectId,ESP32-S3-DevBoard,45535033-322d-4533-932d-446576426f61,rev?*
G04 #@! TF.SameCoordinates,Original*
G04 #@! TF.FileFunction,Copper,L3,Inr*
G04 #@! TF.FilePolarity,Positive*
%FSLAX46Y46*%
G04 Gerber Fmt 4.6, Leading zero omitted, Abs format (unit mm)*
G04 Created by KiCad (PCBNEW 8.0.3) date 2024-06-29 14:25:19*
%MOMM*%
%LPD*%
G01*
G04 APERTURE LIST*
G04 #@! TA.AperFunction,HeatsinkPad*
%ADD10C,0.600000*%
G04 #@! TD*
G04 #@! TA.AperFunction,ComponentPad*
%ADD11R,1.700000X1.700000*%
G04 #@! TD*
G04 #@! TA.AperFunction,ComponentPad*
%ADD12O,1.700000X1.700000*%
G04 #@! TD*
G04 #@! TA.AperFunction,ComponentPad*
%ADD13O,1.000000X2.100000*%
G04 #@! TD*
G04 #@! TA.AperFunction,ComponentPad*
%ADD14O,1.000000X1.800000*%
G04 #@! TD*
G04 #@! TA.AperFunction,ViaPad*
%ADD15C,0.600000*%
G04 #@! TD*
G04 APERTURE END LIST*
D10*
X187700000Y-61396000D03*
X187700000Y-62796000D03*
X188400000Y-60696000D03*
X188400000Y-62096000D03*
X188400000Y-63496000D03*
X189100000Y-61396000D03*
X189100000Y-62796000D03*
X189800000Y-60696000D03*
X189800000Y-62096000D03*
X189800000Y-63496000D03*
X190500000Y-61396000D03*
X190500000Y-62796000D03*
D11*
X176530000Y-54864000D03*
D12*
X176530000Y-57404000D03*
X176530000Y-59944000D03*
X176530000Y-62484000D03*
X176530000Y-65024000D03*
X176530000Y-67564000D03*
X176530000Y-70104000D03*
X176530000Y-72644000D03*
X176530000Y-75184000D03*
X176530000Y-77724000D03*
X176530000Y-80264000D03*
X176530000Y-82804000D03*
X176530000Y-85344000D03*
X176530000Y-87884000D03*
X176530000Y-90424000D03*
X176530000Y-92964000D03*
X176530000Y-95504000D03*
X176530000Y-98044000D03*
X176530000Y-100584000D03*
X176530000Y-103124000D03*
X176530000Y-105664000D03*
X176530000Y-108204000D03*
D11*
X204724000Y-54864000D03*
D12*
X204724000Y-57404000D03*
X204724000Y-59944000D03*
X204724000Y-62484000D03*
X204724000Y-65024000D03*
X204724000Y-67564000D03*
X204724000Y-70104000D03*
X204724000Y-72644000D03*
X204724000Y-75184000D03*
X204724000Y-77724000D03*
X204724000Y-80264000D03*
X204724000Y-82804000D03*
X204724000Y-85344000D03*
X204724000Y-87884000D03*
X204724000Y-90424000D03*
X204724000Y-92964000D03*
X204724000Y-95504000D03*
X204724000Y-98044000D03*
X204724000Y-100584000D03*
X204724000Y-103124000D03*
X204724000Y-105664000D03*
X204724000Y-108204000D03*
D13*
X186180000Y-103321000D03*
D14*
X186180000Y-107501000D03*
D13*
X194820000Y-103321000D03*
D14*
X194820000Y-107501000D03*
D15*
X180594000Y-54380000D03*
X188722000Y-92710000D03*
X203200000Y-54864000D03*
X190500000Y-80645000D03*
X197612000Y-97028000D03*
X184531000Y-104394000D03*
X192913000Y-78935000D03*
X178054000Y-108204000D03*
X200660000Y-54380000D03*
X189250000Y-97028000D03*
X188087000Y-78935000D03*
X197511500Y-106299000D03*
X191750000Y-97028000D03*
X182499000Y-90424000D03*
X195721000Y-89521000D03*
X199263000Y-81085000D03*
X182054500Y-81851500D03*
X199236500Y-106299000D03*
X186563000Y-76962000D03*
X194437000Y-76962000D03*
X180594000Y-55650000D03*
X182499000Y-86360000D03*
X200660000Y-59436000D03*
X200660000Y-58166000D03*
X189484000Y-101473000D03*
X183134000Y-69596000D03*
X183896000Y-70885998D03*
X191516000Y-101473000D03*
G04 #@! TA.AperFunction,Conductor*
G36*
X180190984Y-53479185D02*
G01*
X180236739Y-53531989D01*
X180246683Y-53601147D01*
X180217658Y-53664703D01*
X180189917Y-53688494D01*
X180091737Y-53750184D01*
X179964184Y-53877737D01*
X179868211Y-54030476D01*
X179808631Y-54200745D01*
X179808630Y-54200750D01*
X179788435Y-54379996D01*
X179788435Y-54380003D01*
X179808630Y-54559249D01*
X179808631Y-54559254D01*
X179868211Y-54729523D01*
X179911348Y-54798174D01*
X179964184Y-54882262D01*
X180091738Y-55009816D01*
X180244478Y-55105789D01*
X180267944Y-55114000D01*
X180414745Y-55165368D01*
X180414750Y-55165369D01*
X180593996Y-55185565D01*
X180594000Y-55185565D01*
X180594004Y-55185565D01*
X180773249Y-55165369D01*
X180773252Y-55165368D01*
X180773255Y-55165368D01*
X180943522Y-55105789D01*
X181096262Y-55009816D01*
X181223816Y-54882262D01*
X181319789Y-54729522D01*
X181379368Y-54559255D01*
X181384413Y-54514478D01*
X181399565Y-54380003D01*
X181399565Y-54379996D01*
X181379369Y-54200750D01*
X181379368Y-54200745D01*
X181331060Y-54062690D01*
X181319789Y-54030478D01*
X181223816Y-53877738D01*
X181096262Y-53750184D01*
X180998082Y-53688493D01*
X180951792Y-53636159D01*
X180941144Y-53567105D01*
X180969519Y-53503257D01*
X181027909Y-53464885D01*
X181064055Y-53459500D01*
X200189945Y-53459500D01*
X200256984Y-53479185D01*
X200302739Y-53531989D01*
X200312683Y-53601147D01*
X200283658Y-53664703D01*
X200255917Y-53688494D01*
X200157737Y-53750184D01*
X200030184Y-53877737D01*
X199934211Y-54030476D01*
X199874631Y-54200745D01*
X199874630Y-54200750D01*
X199854435Y-54379996D01*
X199854435Y-54380003D01*
X199874630Y-54559249D01*
X199874631Y-54559254D01*
X199934211Y-54729523D01*
X199977348Y-54798174D01*
X200030184Y-54882262D01*
X200157738Y-55009816D01*
X200310478Y-55105789D01*
X200333944Y-55114000D01*
X200480745Y-55165368D01*
X200480750Y-55165369D01*
X200659996Y-55185565D01*
X200660000Y-55185565D01*
X200660004Y-55185565D01*
X200839249Y-55165369D01*
X200839252Y-55165368D01*
X200839255Y-55165368D01*
X201009522Y-55105789D01*
X201162262Y-55009816D01*
X201289816Y-54882262D01*
X201385789Y-54729522D01*
X201445368Y-54559255D01*
X201450413Y-54514478D01*
X201465565Y-54380003D01*
X201465565Y-54379996D01*
X201445369Y-54200750D01*
X201445368Y-54200745D01*
X201397060Y-54062690D01*
X201385789Y-54030478D01*
X201289816Y-53877738D01*
X201162262Y-53750184D01*
X201064082Y-53688493D01*
X201017792Y-53636159D01*
X201007144Y-53567105D01*
X201035519Y-53503257D01*
X201093909Y-53464885D01*
X201130055Y-53459500D01*
X203416172Y-53459500D01*
X203483211Y-53479185D01*
X203528966Y-53531989D01*
X203538910Y-53601147D01*
X203515438Y-53657811D01*
X203430206Y-53771664D01*
X203430202Y-53771671D01*
X203379908Y-53906516D01*
X203374940Y-53952727D01*
X203348201Y-54017278D01*
X203290808Y-54057125D01*
X203237768Y-54062690D01*
X203200003Y-54058435D01*
X203199996Y-54058435D01*
X203020750Y-54078630D01*
X203020745Y-54078631D01*
X202850476Y-54138211D01*
X202697737Y-54234184D01*
X202570184Y-54361737D01*
X202474211Y-54514476D01*
X202414631Y-54684745D01*
X202414630Y-54684750D01*
X202394435Y-54863996D01*
X202394435Y-54864003D01*
X202414630Y-55043249D01*
X202414631Y-55043254D01*
X202474211Y-55213523D01*
X202547352Y-55329925D01*
X202570184Y-55366262D01*
X202697738Y-55493816D01*
X202850478Y-55589789D01*
X203020745Y-55649368D01*
X203020750Y-55649369D01*
X203199996Y-55669565D01*
X203199999Y-55669565D01*
X203199999Y-55669564D01*
X203200000Y-55669565D01*
X203237767Y-55665309D01*
X203306587Y-55677362D01*
X203357967Y-55724710D01*
X203374941Y-55775274D01*
X203379909Y-55821483D01*
X203430202Y-55956328D01*
X203430206Y-55956335D01*
X203516452Y-56071544D01*
X203516455Y-56071547D01*
X203631664Y-56157793D01*
X203631671Y-56157797D01*
X203763081Y-56206810D01*
X203819015Y-56248681D01*
X203843432Y-56314145D01*
X203828580Y-56382418D01*
X203807430Y-56410673D01*
X203685503Y-56532600D01*
X203549965Y-56726169D01*
X203549964Y-56726171D01*
X203450098Y-56940335D01*
X203450094Y-56940344D01*
X203388938Y-57168586D01*
X203388936Y-57168596D01*
X203368341Y-57403999D01*
X203368341Y-57404000D01*
X203388936Y-57639403D01*
X203388938Y-57639413D01*
X203450094Y-57867655D01*
X203450096Y-57867659D01*
X203450097Y-57867663D01*
X203522060Y-58021988D01*
X203549965Y-58081830D01*
X203549967Y-58081834D01*
X203685501Y-58275395D01*
X203685506Y-58275402D01*
X203852597Y-58442493D01*
X203852603Y-58442498D01*
X204038158Y-58572425D01*
X204081783Y-58627002D01*
X204088977Y-58696500D01*
X204057454Y-58758855D01*
X204038158Y-58775575D01*
X203852597Y-58905505D01*
X203685505Y-59072597D01*
X203549965Y-59266169D01*
X203549964Y-59266171D01*
X203450098Y-59480335D01*
X203450094Y-59480344D01*
X203388938Y-59708586D01*
X203388936Y-59708596D01*
X203368341Y-59943999D01*
X203368341Y-59944000D01*
X203388936Y-60179403D01*
X203388938Y-60179413D01*
X203450094Y-60407655D01*
X203450096Y-60407659D01*
X203450097Y-60407663D01*
X203504028Y-60523317D01*
X203549965Y-60621830D01*
X203549967Y-60621834D01*
X203685501Y-60815395D01*
X203685506Y-60815402D01*
X203852597Y-60982493D01*
X203852603Y-60982498D01*
X204038158Y-61112425D01*
X204081783Y-61167002D01*
X204088977Y-61236500D01*
X204057454Y-61298855D01*
X204038158Y-61315575D01*
X203852597Y-61445505D01*
X203685505Y-61612597D01*
X203549965Y-61806169D01*
X203549964Y-61806171D01*
X203450098Y-62020335D01*
X203450094Y-62020344D01*
X203388938Y-62248586D01*
X203388936Y-62248596D01*
X203368341Y-62483999D01*
X203368341Y-62484000D01*
X203388936Y-62719403D01*
X203388938Y-62719413D01*
X203450094Y-62947655D01*
X203450096Y-62947659D01*
X203450097Y-62947663D01*
X203522060Y-63101988D01*
X203549965Y-63161830D01*
X203549967Y-63161834D01*
X203685501Y-63355395D01*
X203685506Y-63355402D01*
X203852597Y-63522493D01*
X203852603Y-63522498D01*
X204038158Y-63652425D01*
X204081783Y-63707002D01*
X204088977Y-63776500D01*
X204057454Y-63838855D01*
X204038158Y-63855575D01*
X203852597Y-63985505D01*
X203685505Y-64152597D01*
X203549965Y-64346169D01*
X203549964Y-64346171D01*
X203450098Y-64560335D01*
X203450094Y-64560344D01*
X203388938Y-64788586D01*
X203388936Y-64788596D01*
X203368341Y-65023999D01*
X203368341Y-65024000D01*
X203388936Y-65259403D01*
X203388938Y-65259413D01*
X203450094Y-65487655D01*
X203450096Y-65487659D01*
X203450097Y-65487663D01*
X203522060Y-65641988D01*
X203549965Y-65701830D01*
X203549967Y-65701834D01*
X203685501Y-65895395D01*
X203685506Y-65895402D01*
X203852597Y-66062493D01*
X203852603Y-66062498D01*
X204038158Y-66192425D01*
X204081783Y-66247002D01*
X204088977Y-66316500D01*
X204057454Y-66378855D01*
X204038158Y-66395575D01*
X203852597Y-66525505D01*
X203685505Y-66692597D01*
X203549965Y-66886169D01*
X203549964Y-66886171D01*
X203450098Y-67100335D01*
X203450094Y-67100344D01*
X203388938Y-67328586D01*
X203388936Y-67328596D01*
X203368341Y-67563999D01*
X203368341Y-67564000D01*
X203388936Y-67799403D01*
X203388938Y-67799413D01*
X203450094Y-68027655D01*
X203450096Y-68027659D01*
X203450097Y-68027663D01*
X203522060Y-68181988D01*
X203549965Y-68241830D01*
X203549967Y-68241834D01*
X203685501Y-68435395D01*
X203685506Y-68435402D01*
X203852597Y-68602493D01*
X203852603Y-68602498D01*
X204038158Y-68732425D01*
X204081783Y-68787002D01*
X204088977Y-68856500D01*
X204057454Y-68918855D01*
X204038158Y-68935575D01*
X203852597Y-69065505D01*
X203685505Y-69232597D01*
X203549965Y-69426169D01*
X203549964Y-69426171D01*
X203450098Y-69640335D01*
X203450094Y-69640344D01*
X203388938Y-69868586D01*
X203388936Y-69868596D01*
X203368341Y-70103999D01*
X203368341Y-70104000D01*
X203388936Y-70339403D01*
X203388938Y-70339413D01*
X203450094Y-70567655D01*
X203450096Y-70567659D01*
X203450097Y-70567663D01*
X203514950Y-70706740D01*
X203549965Y-70781830D01*
X203549967Y-70781834D01*
X203685501Y-70975395D01*
X203685506Y-70975402D01*
X203852597Y-71142493D01*
X203852603Y-71142498D01*
X204038158Y-71272425D01*
X204081783Y-71327002D01*
X204088977Y-71396500D01*
X204057454Y-71458855D01*
X204038158Y-71475575D01*
X203852597Y-71605505D01*
X203685505Y-71772597D01*
X203549965Y-71966169D01*
X203549964Y-71966171D01*
X203450098Y-72180335D01*
X203450094Y-72180344D01*
X203388938Y-72408586D01*
X203388936Y-72408596D01*
X203368341Y-72643999D01*
X203368341Y-72644000D01*
X203388936Y-72879403D01*
X203388938Y-72879413D01*
X203450094Y-73107655D01*
X203450096Y-73107659D01*
X203450097Y-73107663D01*
X203522060Y-73261988D01*
X203549965Y-73321830D01*
X203549967Y-73321834D01*
X203685501Y-73515395D01*
X203685506Y-73515402D01*
X203852597Y-73682493D01*
X203852603Y-73682498D01*
X204038158Y-73812425D01*
X204081783Y-73867002D01*
X204088977Y-73936500D01*
X204057454Y-73998855D01*
X204038158Y-74015575D01*
X203852597Y-74145505D01*
X203685505Y-74312597D01*
X203549965Y-74506169D01*
X203549964Y-74506171D01*
X203450098Y-74720335D01*
X203450094Y-74720344D01*
X203388938Y-74948586D01*
X203388936Y-74948596D01*
X203368341Y-75183999D01*
X203368341Y-75184000D01*
X203388936Y-75419403D01*
X203388938Y-75419413D01*
X203450094Y-75647655D01*
X203450096Y-75647659D01*
X203450097Y-75647663D01*
X203522060Y-75801988D01*
X203549965Y-75861830D01*
X203549967Y-75861834D01*
X203685501Y-76055395D01*
X203685506Y-76055402D01*
X203852597Y-76222493D01*
X203852603Y-76222498D01*
X204038158Y-76352425D01*
X204081783Y-76407002D01*
X204088977Y-76476500D01*
X204057454Y-76538855D01*
X204038158Y-76555575D01*
X203852597Y-76685505D01*
X203685505Y-76852597D01*
X203549965Y-77046169D01*
X203549964Y-77046171D01*
X203450098Y-77260335D01*
X203450094Y-77260344D01*
X203388938Y-77488586D01*
X203388936Y-77488596D01*
X203368341Y-77723999D01*
X203368341Y-77724000D01*
X203388936Y-77959403D01*
X203388938Y-77959413D01*
X203450094Y-78187655D01*
X203450096Y-78187659D01*
X203450097Y-78187663D01*
X203504898Y-78305184D01*
X203549965Y-78401830D01*
X203549967Y-78401834D01*
X203594496Y-78465427D01*
X203678555Y-78585476D01*
X203685501Y-78595395D01*
X203685506Y-78595402D01*
X203852597Y-78762493D01*
X203852603Y-78762498D01*
X204038158Y-78892425D01*
X204081783Y-78947002D01*
X204088977Y-79016500D01*
X204057454Y-79078855D01*
X204038158Y-79095575D01*
X203852597Y-79225505D01*
X203685505Y-79392597D01*
X203549965Y-79586169D01*
X203549964Y-79586171D01*
X203450098Y-79800335D01*
X203450094Y-79800344D01*
X203388938Y-80028586D01*
X203388936Y-80028596D01*
X203368341Y-80263999D01*
X203368341Y-80264000D01*
X203388936Y-80499403D01*
X203388938Y-80499413D01*
X203450094Y-80727655D01*
X203450096Y-80727659D01*
X203450097Y-80727663D01*
X203495139Y-80824255D01*
X203549965Y-80941830D01*
X203549967Y-80941834D01*
X203685501Y-81135395D01*
X203685506Y-81135402D01*
X203852597Y-81302493D01*
X203852603Y-81302498D01*
X204038158Y-81432425D01*
X204081783Y-81487002D01*
X204088977Y-81556500D01*
X204057454Y-81618855D01*
X204038158Y-81635575D01*
X203852597Y-81765505D01*
X203685505Y-81932597D01*
X203549965Y-82126169D01*
X203549964Y-82126171D01*
X203450098Y-82340335D01*
X203450094Y-82340344D01*
X203388938Y-82568586D01*
X203388936Y-82568596D01*
X203368341Y-82803999D01*
X203368341Y-82804000D01*
X203388936Y-83039403D01*
X203388938Y-83039413D01*
X203450094Y-83267655D01*
X203450096Y-83267659D01*
X203450097Y-83267663D01*
X203522060Y-83421988D01*
X203549965Y-83481830D01*
X203549967Y-83481834D01*
X203685501Y-83675395D01*
X203685506Y-83675402D01*
X203852597Y-83842493D01*
X203852603Y-83842498D01*
X204038158Y-83972425D01*
X204081783Y-84027002D01*
X204088977Y-84096500D01*
X204057454Y-84158855D01*
X204038158Y-84175575D01*
X203852597Y-84305505D01*
X203685505Y-84472597D01*
X203549965Y-84666169D01*
X203549964Y-84666171D01*
X203450098Y-84880335D01*
X203450094Y-84880344D01*
X203388938Y-85108586D01*
X203388936Y-85108596D01*
X203368341Y-85343999D01*
X203368341Y-85344000D01*
X203388936Y-85579403D01*
X203388938Y-85579413D01*
X203450094Y-85807655D01*
X203450096Y-85807659D01*
X203450097Y-85807663D01*
X203522060Y-85961988D01*
X203549965Y-86021830D01*
X203549967Y-86021834D01*
X203685501Y-86215395D01*
X203685506Y-86215402D01*
X203852597Y-86382493D01*
X203852603Y-86382498D01*
X204038158Y-86512425D01*
X204081783Y-86567002D01*
X204088977Y-86636500D01*
X204057454Y-86698855D01*
X204038158Y-86715575D01*
X203852597Y-86845505D01*
X203685505Y-87012597D01*
X203549965Y-87206169D01*
X203549964Y-87206171D01*
X203450098Y-87420335D01*
X203450094Y-87420344D01*
X203388938Y-87648586D01*
X203388936Y-87648596D01*
X203368341Y-87883999D01*
X203368341Y-87884000D01*
X203388936Y-88119403D01*
X203388938Y-88119413D01*
X203450094Y-88347655D01*
X203450096Y-88347659D01*
X203450097Y-88347663D01*
X203522060Y-88501988D01*
X203549965Y-88561830D01*
X203549967Y-88561834D01*
X203685501Y-88755395D01*
X203685506Y-88755402D01*
X203852597Y-88922493D01*
X203852603Y-88922498D01*
X204038158Y-89052425D01*
X204081783Y-89107002D01*
X204088977Y-89176500D01*
X204057454Y-89238855D01*
X204038158Y-89255575D01*
X203852597Y-89385505D01*
X203685505Y-89552597D01*
X203549965Y-89746169D01*
X203549964Y-89746171D01*
X203450098Y-89960335D01*
X203450094Y-89960344D01*
X203388938Y-90188586D01*
X203388936Y-90188596D01*
X203368341Y-90423999D01*
X203368341Y-90424000D01*
X203388936Y-90659403D01*
X203388938Y-90659413D01*
X203450094Y-90887655D01*
X203450096Y-90887659D01*
X203450097Y-90887663D01*
X203468096Y-90926262D01*
X203549965Y-91101830D01*
X203549967Y-91101834D01*
X203685501Y-91295395D01*
X203685506Y-91295402D01*
X203852597Y-91462493D01*
X203852603Y-91462498D01*
X204038158Y-91592425D01*
X204081783Y-91647002D01*
X204088977Y-91716500D01*
X204057454Y-91778855D01*
X204038158Y-91795575D01*
X203852597Y-91925505D01*
X203685505Y-92092597D01*
X203549965Y-92286169D01*
X203549964Y-92286171D01*
X203450098Y-92500335D01*
X203450094Y-92500344D01*
X203388938Y-92728586D01*
X203388936Y-92728596D01*
X203368341Y-92963999D01*
X203368341Y-92964000D01*
X203388936Y-93199403D01*
X203388938Y-93199413D01*
X203450094Y-93427655D01*
X203450096Y-93427659D01*
X203450097Y-93427663D01*
X203522060Y-93581988D01*
X203549965Y-93641830D01*
X203549967Y-93641834D01*
X203685501Y-93835395D01*
X203685506Y-93835402D01*
X203852597Y-94002493D01*
X203852603Y-94002498D01*
X204038158Y-94132425D01*
X204081783Y-94187002D01*
X204088977Y-94256500D01*
X204057454Y-94318855D01*
X204038158Y-94335575D01*
X203852597Y-94465505D01*
X203685505Y-94632597D01*
X203549965Y-94826169D01*
X203549964Y-94826171D01*
X203450098Y-95040335D01*
X203450094Y-95040344D01*
X203388938Y-95268586D01*
X203388936Y-95268596D01*
X203368341Y-95503999D01*
X203368341Y-95504000D01*
X203388936Y-95739403D01*
X203388938Y-95739413D01*
X203450094Y-95967655D01*
X203450096Y-95967659D01*
X203450097Y-95967663D01*
X203522060Y-96121988D01*
X203549965Y-96181830D01*
X203549967Y-96181834D01*
X203685501Y-96375395D01*
X203685506Y-96375402D01*
X203852597Y-96542493D01*
X203852603Y-96542498D01*
X204038158Y-96672425D01*
X204081783Y-96727002D01*
X204088977Y-96796500D01*
X204057454Y-96858855D01*
X204038158Y-96875575D01*
X203852597Y-97005505D01*
X203685505Y-97172597D01*
X203549965Y-97366169D01*
X203549964Y-97366171D01*
X203450098Y-97580335D01*
X203450094Y-97580344D01*
X203388938Y-97808586D01*
X203388936Y-97808596D01*
X203368341Y-98043999D01*
X203368341Y-98044000D01*
X203388936Y-98279403D01*
X203388938Y-98279413D01*
X203450094Y-98507655D01*
X203450096Y-98507659D01*
X203450097Y-98507663D01*
X203522060Y-98661988D01*
X203549965Y-98721830D01*
X203549967Y-98721834D01*
X203685501Y-98915395D01*
X203685506Y-98915402D01*
X203852597Y-99082493D01*
X203852603Y-99082498D01*
X204038158Y-99212425D01*
X204081783Y-99267002D01*
X204088977Y-99336500D01*
X204057454Y-99398855D01*
X204038158Y-99415575D01*
X203852597Y-99545505D01*
X203685505Y-99712597D01*
X203549965Y-99906169D01*
X203549964Y-99906171D01*
X203450098Y-100120335D01*
X203450094Y-100120344D01*
X203388938Y-100348586D01*
X203388936Y-100348596D01*
X203368341Y-100583999D01*
X203368341Y-100584000D01*
X203388936Y-100819403D01*
X203388938Y-100819413D01*
X203450094Y-101047655D01*
X203450096Y-101047659D01*
X203450097Y-101047663D01*
X203522060Y-101201988D01*
X203549965Y-101261830D01*
X203549967Y-101261834D01*
X203685501Y-101455395D01*
X203685506Y-101455402D01*
X203852597Y-101622493D01*
X203852603Y-101622498D01*
X204038158Y-101752425D01*
X204081783Y-101807002D01*
X204088977Y-101876500D01*
X204057454Y-101938855D01*
X204038158Y-101955575D01*
X203852597Y-102085505D01*
X203685505Y-102252597D01*
X203549965Y-102446169D01*
X203549964Y-102446171D01*
X203450098Y-102660335D01*
X203450094Y-102660344D01*
X203388938Y-102888586D01*
X203388936Y-102888596D01*
X203368341Y-103123999D01*
X203368341Y-103124000D01*
X203388936Y-103359403D01*
X203388938Y-103359413D01*
X203450094Y-103587655D01*
X203450096Y-103587659D01*
X203450097Y-103587663D01*
X203527024Y-103752633D01*
X203549965Y-103801830D01*
X203549967Y-103801834D01*
X203685501Y-103995395D01*
X203685506Y-103995402D01*
X203852597Y-104162493D01*
X203852603Y-104162498D01*
X204038158Y-104292425D01*
X204081783Y-104347002D01*
X204088977Y-104416500D01*
X204057454Y-104478855D01*
X204038158Y-104495575D01*
X203852597Y-104625505D01*
X203685505Y-104792597D01*
X203549965Y-104986169D01*
X203549964Y-104986171D01*
X203450098Y-105200335D01*
X203450094Y-105200344D01*
X203388938Y-105428586D01*
X203388936Y-105428596D01*
X203368341Y-105663999D01*
X203368341Y-105664000D01*
X203388936Y-105899403D01*
X203388938Y-105899413D01*
X203450094Y-106127655D01*
X203450096Y-106127659D01*
X203450097Y-106127663D01*
X203490530Y-106214371D01*
X203549965Y-106341830D01*
X203549967Y-106341834D01*
X203685501Y-106535395D01*
X203685506Y-106535402D01*
X203852597Y-106702493D01*
X203852603Y-106702498D01*
X204038158Y-106832425D01*
X204081783Y-106887002D01*
X204088977Y-106956500D01*
X204057454Y-107018855D01*
X204038158Y-107035575D01*
X203852597Y-107165505D01*
X203685505Y-107332597D01*
X203549965Y-107526169D01*
X203549964Y-107526171D01*
X203450098Y-107740335D01*
X203450094Y-107740344D01*
X203388938Y-107968586D01*
X203388936Y-107968596D01*
X203368341Y-108203999D01*
X203368341Y-108204000D01*
X203388936Y-108439403D01*
X203388938Y-108439413D01*
X203450094Y-108667655D01*
X203450096Y-108667659D01*
X203450097Y-108667663D01*
X203468096Y-108706262D01*
X203549965Y-108881830D01*
X203549967Y-108881834D01*
X203639406Y-109009565D01*
X203685505Y-109075401D01*
X203852599Y-109242495D01*
X203980132Y-109331794D01*
X204050604Y-109381140D01*
X204049675Y-109382465D01*
X204092786Y-109427675D01*
X204106012Y-109496282D01*
X204080047Y-109561148D01*
X204023134Y-109601678D01*
X203982573Y-109608500D01*
X177271427Y-109608500D01*
X177204388Y-109588815D01*
X177158633Y-109536011D01*
X177148689Y-109466853D01*
X177177714Y-109403297D01*
X177203818Y-109381743D01*
X177203396Y-109381140D01*
X177240484Y-109355170D01*
X177401401Y-109242495D01*
X177568495Y-109075401D01*
X177623275Y-108997166D01*
X177677850Y-108953542D01*
X177747348Y-108946348D01*
X177765804Y-108951248D01*
X177874745Y-108989368D01*
X177874750Y-108989369D01*
X178053996Y-109009565D01*
X178054000Y-109009565D01*
X178054004Y-109009565D01*
X178233249Y-108989369D01*
X178233252Y-108989368D01*
X178233255Y-108989368D01*
X178403522Y-108929789D01*
X178556262Y-108833816D01*
X178683816Y-108706262D01*
X178779789Y-108553522D01*
X178839368Y-108383255D01*
X178859565Y-108204000D01*
X178858307Y-108192839D01*
X178839369Y-108024750D01*
X178839368Y-108024745D01*
X178830549Y-107999543D01*
X185179499Y-107999543D01*
X185217947Y-108192829D01*
X185217950Y-108192839D01*
X185293364Y-108374907D01*
X185293371Y-108374920D01*
X185402860Y-108538781D01*
X185402863Y-108538785D01*
X185542214Y-108678136D01*
X185542218Y-108678139D01*
X185706079Y-108787628D01*
X185706092Y-108787635D01*
X185851715Y-108847953D01*
X185888165Y-108863051D01*
X185888169Y-108863051D01*
X185888170Y-108863052D01*
X186081456Y-108901500D01*
X186081459Y-108901500D01*
X186278543Y-108901500D01*
X186408582Y-108875632D01*
X186471835Y-108863051D01*
X186653914Y-108787632D01*
X186817782Y-108678139D01*
X186957139Y-108538782D01*
X187066632Y-108374914D01*
X187142051Y-108192835D01*
X187180500Y-107999543D01*
X193819499Y-107999543D01*
X193857947Y-108192829D01*
X193857950Y-108192839D01*
X193933364Y-108374907D01*
X193933371Y-108374920D01*
X194042860Y-108538781D01*
X194042863Y-108538785D01*
X194182214Y-108678136D01*
X194182218Y-108678139D01*
X194346079Y-108787628D01*
X194346092Y-108787635D01*
X194491715Y-108847953D01*
X194528165Y-108863051D01*
X194528169Y-108863051D01*
X194528170Y-108863052D01*
X194721456Y-108901500D01*
X194721459Y-108901500D01*
X194918543Y-108901500D01*
X195048582Y-108875632D01*
X195111835Y-108863051D01*
X195293914Y-108787632D01*
X195457782Y-108678139D01*
X195597139Y-108538782D01*
X195706632Y-108374914D01*
X195782051Y-108192835D01*
X195820500Y-107999541D01*
X195820500Y-107002459D01*
X195820500Y-107002456D01*
X195782052Y-106809170D01*
X195782051Y-106809169D01*
X195782051Y-106809165D01*
X195782049Y-106809160D01*
X195706635Y-106627092D01*
X195706628Y-106627079D01*
X195597139Y-106463218D01*
X195597136Y-106463214D01*
X195457785Y-106323863D01*
X195457781Y-106323860D01*
X195420570Y-106298996D01*
X196705935Y-106298996D01*
X196705935Y-106299003D01*
X196726130Y-106478249D01*
X196726131Y-106478254D01*
X196785711Y-106648523D01*
X196819626Y-106702498D01*
X196881684Y-106801262D01*
X197009238Y-106928816D01*
X197161978Y-107024789D01*
X197192803Y-107035575D01*
X197332245Y-107084368D01*
X197332250Y-107084369D01*
X197511496Y-107104565D01*
X197511500Y-107104565D01*
X197511504Y-107104565D01*
X197690749Y-107084369D01*
X197690752Y-107084368D01*
X197690755Y-107084368D01*
X197861022Y-107024789D01*
X198013762Y-106928816D01*
X198141316Y-106801262D01*
X198237289Y-106648522D01*
X198256958Y-106592312D01*
X198297680Y-106535535D01*
X198362633Y-106509788D01*
X198431194Y-106523244D01*
X198481597Y-106571631D01*
X198491042Y-106592312D01*
X198510710Y-106648521D01*
X198544626Y-106702498D01*
X198606684Y-106801262D01*
X198734238Y-106928816D01*
X198886978Y-107024789D01*
X198917803Y-107035575D01*
X199057245Y-107084368D01*
X199057250Y-107084369D01*
X199236496Y-107104565D01*
X199236500Y-107104565D01*
X199236504Y-107104565D01*
X199415749Y-107084369D01*
X199415752Y-107084368D01*
X199415755Y-107084368D01*
X199586022Y-107024789D01*
X199738762Y-106928816D01*
X199866316Y-106801262D01*
X199962289Y-106648522D01*
X200021868Y-106478255D01*
X200021869Y-106478249D01*
X200042065Y-106299003D01*
X200042065Y-106298996D01*
X200021869Y-106119750D01*
X200021868Y-106119745D01*
X200006125Y-106074755D01*
X199962289Y-105949478D01*
X199866316Y-105796738D01*
X199738762Y-105669184D01*
X199730510Y-105663999D01*
X199586023Y-105573211D01*
X199415754Y-105513631D01*
X199415749Y-105513630D01*
X199236504Y-105493435D01*
X199236496Y-105493435D01*
X199057250Y-105513630D01*
X199057245Y-105513631D01*
X198886976Y-105573211D01*
X198734237Y-105669184D01*
X198606684Y-105796737D01*
X198510709Y-105949480D01*
X198491041Y-106005688D01*
X198450319Y-106062464D01*
X198385367Y-106088211D01*
X198316805Y-106074755D01*
X198266402Y-106026367D01*
X198256959Y-106005688D01*
X198237290Y-105949480D01*
X198237289Y-105949478D01*
X198141316Y-105796738D01*
X198013762Y-105669184D01*
X198005510Y-105663999D01*
X197861023Y-105573211D01*
X197690754Y-105513631D01*
X197690749Y-105513630D01*
X197511504Y-105493435D01*
X197511496Y-105493435D01*
X197332250Y-105513630D01*
X197332245Y-105513631D01*
X197161976Y-105573211D01*
X197009237Y-105669184D01*
X196881684Y-105796737D01*
X196785711Y-105949476D01*
X196726131Y-106119745D01*
X196726130Y-106119750D01*
X196705935Y-106298996D01*
X195420570Y-106298996D01*
X195293920Y-106214371D01*
X195293907Y-106214364D01*
X195111839Y-106138950D01*
X195111829Y-106138947D01*
X194918543Y-106100500D01*
X194918541Y-106100500D01*
X194721459Y-106100500D01*
X194721457Y-106100500D01*
X194528170Y-106138947D01*
X194528160Y-106138950D01*
X194346092Y-106214364D01*
X194346079Y-106214371D01*
X194182218Y-106323860D01*
X194182214Y-106323863D01*
X194042863Y-106463214D01*
X194042860Y-106463218D01*
X193933371Y-106627079D01*
X193933364Y-106627092D01*
X193857950Y-106809160D01*
X193857947Y-106809170D01*
X193819500Y-107002456D01*
X193819500Y-107002459D01*
X193819500Y-107999541D01*
X193819500Y-107999543D01*
X193819499Y-107999543D01*
X187180500Y-107999543D01*
X187180500Y-107999541D01*
X187180500Y-107002459D01*
X187180500Y-107002456D01*
X187142052Y-106809170D01*
X187142051Y-106809169D01*
X187142051Y-106809165D01*
X187142049Y-106809160D01*
X187066635Y-106627092D01*
X187066628Y-106627079D01*
X186957139Y-106463218D01*
X186957136Y-106463214D01*
X186817785Y-106323863D01*
X186817781Y-106323860D01*
X186653920Y-106214371D01*
X186653907Y-106214364D01*
X186471839Y-106138950D01*
X186471829Y-106138947D01*
X186278543Y-106100500D01*
X186278541Y-106100500D01*
X186081459Y-106100500D01*
X186081457Y-106100500D01*
X185888170Y-106138947D01*
X185888160Y-106138950D01*
X185706092Y-106214364D01*
X185706079Y-106214371D01*
X185542218Y-106323860D01*
X185542214Y-106323863D01*
X185402863Y-106463214D01*
X185402860Y-106463218D01*
X185293371Y-106627079D01*
X185293364Y-106627092D01*
X185217950Y-106809160D01*
X185217947Y-106809170D01*
X185179500Y-107002456D01*
X185179500Y-107002459D01*
X185179500Y-107999541D01*
X185179500Y-107999543D01*
X185179499Y-107999543D01*
X178830549Y-107999543D01*
X178779788Y-107854476D01*
X178683815Y-107701737D01*
X178556262Y-107574184D01*
X178403523Y-107478211D01*
X178233254Y-107418631D01*
X178233249Y-107418630D01*
X178054004Y-107398435D01*
X178053996Y-107398435D01*
X177874750Y-107418630D01*
X177874742Y-107418632D01*
X177765803Y-107456751D01*
X177696024Y-107460312D01*
X177635397Y-107425583D01*
X177623274Y-107410832D01*
X177568495Y-107332599D01*
X177401401Y-107165505D01*
X177401399Y-107165504D01*
X177401396Y-107165501D01*
X177215842Y-107035575D01*
X177172217Y-106980998D01*
X177165023Y-106911500D01*
X177196546Y-106849145D01*
X177215842Y-106832425D01*
X177260347Y-106801262D01*
X177401401Y-106702495D01*
X177568495Y-106535401D01*
X177704035Y-106341830D01*
X177803903Y-106127663D01*
X177865063Y-105899408D01*
X177885659Y-105664000D01*
X177865063Y-105428592D01*
X177803903Y-105200337D01*
X177704035Y-104986171D01*
X177687894Y-104963118D01*
X177568494Y-104792597D01*
X177401402Y-104625506D01*
X177401396Y-104625501D01*
X177215842Y-104495575D01*
X177172217Y-104440998D01*
X177167352Y-104393996D01*
X183725435Y-104393996D01*
X183725435Y-104394003D01*
X183745630Y-104573249D01*
X183745631Y-104573254D01*
X183805211Y-104743523D01*
X183861466Y-104833051D01*
X183901184Y-104896262D01*
X184028738Y-105023816D01*
X184181478Y-105119789D01*
X184351745Y-105179368D01*
X184351750Y-105179369D01*
X184530996Y-105199565D01*
X184531000Y-105199565D01*
X184531004Y-105199565D01*
X184710249Y-105179369D01*
X184710252Y-105179368D01*
X184710255Y-105179368D01*
X184880522Y-105119789D01*
X185033262Y-105023816D01*
X185160816Y-104896262D01*
X185256789Y-104743522D01*
X185290321Y-104647692D01*
X185331043Y-104590917D01*
X185395995Y-104565169D01*
X185464557Y-104578625D01*
X185495044Y-104600966D01*
X185542214Y-104648136D01*
X185542218Y-104648139D01*
X185706079Y-104757628D01*
X185706092Y-104757635D01*
X185790504Y-104792599D01*
X185888165Y-104833051D01*
X185888169Y-104833051D01*
X185888170Y-104833052D01*
X186081456Y-104871500D01*
X186081459Y-104871500D01*
X186278543Y-104871500D01*
X186408582Y-104845632D01*
X186471835Y-104833051D01*
X186653914Y-104757632D01*
X186817782Y-104648139D01*
X186957139Y-104508782D01*
X187066632Y-104344914D01*
X187090544Y-104287182D01*
X187134384Y-104232782D01*
X187200678Y-104210716D01*
X187268377Y-104227995D01*
X187280334Y-104237283D01*
X187280890Y-104236559D01*
X187287333Y-104241503D01*
X187287335Y-104241505D01*
X187407164Y-104310688D01*
X187540817Y-104346500D01*
X187540819Y-104346500D01*
X187679181Y-104346500D01*
X187679183Y-104346500D01*
X187812836Y-104310688D01*
X187932665Y-104241505D01*
X188030505Y-104143665D01*
X188099688Y-104023836D01*
X188135500Y-103890183D01*
X188135500Y-103751817D01*
X192864500Y-103751817D01*
X192864500Y-103890183D01*
X192892692Y-103995395D01*
X192900312Y-104023835D01*
X192900313Y-104023838D01*
X192969492Y-104143661D01*
X192969494Y-104143664D01*
X192969495Y-104143665D01*
X193067335Y-104241505D01*
X193187164Y-104310688D01*
X193320817Y-104346500D01*
X193320819Y-104346500D01*
X193459181Y-104346500D01*
X193459183Y-104346500D01*
X193592836Y-104310688D01*
X193712665Y-104241505D01*
X193712669Y-104241500D01*
X193719110Y-104236559D01*
X193721238Y-104239333D01*
X193768331Y-104213516D01*
X193838031Y-104218382D01*
X193894035Y-104260159D01*
X193909455Y-104287184D01*
X193933366Y-104344910D01*
X193933371Y-104344920D01*
X194042860Y-104508781D01*
X194042863Y-104508785D01*
X194182214Y-104648136D01*
X194182218Y-104648139D01*
X194346079Y-104757628D01*
X194346092Y-104757635D01*
X194430504Y-104792599D01*
X194528165Y-104833051D01*
X194528169Y-104833051D01*
X194528170Y-104833052D01*
X194721456Y-104871500D01*
X194721459Y-104871500D01*
X194918543Y-104871500D01*
X195048582Y-104845632D01*
X195111835Y-104833051D01*
X195293914Y-104757632D01*
X195457782Y-104648139D01*
X195597139Y-104508782D01*
X195706632Y-104344914D01*
X195782051Y-104162835D01*
X195805594Y-104044478D01*
X195820500Y-103969543D01*
X195820500Y-102672456D01*
X195782052Y-102479170D01*
X195782051Y-102479169D01*
X195782051Y-102479165D01*
X195782049Y-102479160D01*
X195706635Y-102297092D01*
X195706628Y-102297079D01*
X195597139Y-102133218D01*
X195597136Y-102133214D01*
X195457785Y-101993863D01*
X195457781Y-101993860D01*
X195293920Y-101884371D01*
X195293907Y-101884364D01*
X195111839Y-101808950D01*
X195111829Y-101808947D01*
X194918543Y-101770500D01*
X194918541Y-101770500D01*
X194721459Y-101770500D01*
X194721457Y-101770500D01*
X194528170Y-101808947D01*
X194528160Y-101808950D01*
X194346092Y-101884364D01*
X194346079Y-101884371D01*
X194182218Y-101993860D01*
X194182214Y-101993863D01*
X194042863Y-102133214D01*
X194042860Y-102133218D01*
X193933371Y-102297079D01*
X193933364Y-102297092D01*
X193857950Y-102479160D01*
X193857947Y-102479170D01*
X193819500Y-102672456D01*
X193819500Y-103247402D01*
X193799815Y-103314441D01*
X193747011Y-103360196D01*
X193677853Y-103370140D01*
X193633501Y-103354789D01*
X193592842Y-103331315D01*
X193592838Y-103331313D01*
X193592836Y-103331312D01*
X193459183Y-103295500D01*
X193320817Y-103295500D01*
X193187164Y-103331312D01*
X193187161Y-103331313D01*
X193067338Y-103400492D01*
X193067333Y-103400496D01*
X192969496Y-103498333D01*
X192969492Y-103498338D01*
X192900313Y-103618161D01*
X192900312Y-103618164D01*
X192864500Y-103751817D01*
X188135500Y-103751817D01*
X188099688Y-103618164D01*
X188030505Y-103498335D01*
X187932665Y-103400495D01*
X187932664Y-103400494D01*
X187932661Y-103400492D01*
X187812838Y-103331313D01*
X187812837Y-103331312D01*
X187812836Y-103331312D01*
X187679183Y-103295500D01*
X187540817Y-103295500D01*
X187407164Y-103331312D01*
X187407157Y-103331315D01*
X187366499Y-103354789D01*
X187298599Y-103371262D01*
X187232572Y-103348409D01*
X187189382Y-103293488D01*
X187180500Y-103247402D01*
X187180500Y-102672456D01*
X187142052Y-102479170D01*
X187142051Y-102479169D01*
X187142051Y-102479165D01*
X187142049Y-102479160D01*
X187066635Y-102297092D01*
X187066628Y-102297079D01*
X186957139Y-102133218D01*
X186957136Y-102133214D01*
X186817785Y-101993863D01*
X186817781Y-101993860D01*
X186653920Y-101884371D01*
X186653907Y-101884364D01*
X186471839Y-101808950D01*
X186471829Y-101808947D01*
X186278543Y-101770500D01*
X186278541Y-101770500D01*
X186081459Y-101770500D01*
X186081457Y-101770500D01*
X185888170Y-101808947D01*
X185888160Y-101808950D01*
X185706092Y-101884364D01*
X185706079Y-101884371D01*
X185542218Y-101993860D01*
X185542214Y-101993863D01*
X185402863Y-102133214D01*
X185402860Y-102133218D01*
X185293371Y-102297079D01*
X185293364Y-102297092D01*
X185217950Y-102479160D01*
X185217947Y-102479170D01*
X185179500Y-102672456D01*
X185179500Y-103631710D01*
X185159815Y-103698749D01*
X185107011Y-103744504D01*
X185037853Y-103754448D01*
X184989528Y-103736704D01*
X184880523Y-103668211D01*
X184710254Y-103608631D01*
X184710249Y-103608630D01*
X184531004Y-103588435D01*
X184530996Y-103588435D01*
X184351750Y-103608630D01*
X184351745Y-103608631D01*
X184181476Y-103668211D01*
X184028737Y-103764184D01*
X183901184Y-103891737D01*
X183805211Y-104044476D01*
X183745631Y-104214745D01*
X183745630Y-104214750D01*
X183725435Y-104393996D01*
X177167352Y-104393996D01*
X177165023Y-104371500D01*
X177196546Y-104309145D01*
X177215842Y-104292425D01*
X177294593Y-104237283D01*
X177401401Y-104162495D01*
X177568495Y-103995401D01*
X177704035Y-103801830D01*
X177803903Y-103587663D01*
X177865063Y-103359408D01*
X177885659Y-103124000D01*
X177865063Y-102888592D01*
X177803903Y-102660337D01*
X177704035Y-102446171D01*
X177687894Y-102423118D01*
X177568494Y-102252597D01*
X177401402Y-102085506D01*
X177401396Y-102085501D01*
X177215842Y-101955575D01*
X177172217Y-101900998D01*
X177165023Y-101831500D01*
X177196546Y-101769145D01*
X177215842Y-101752425D01*
X177358899Y-101652255D01*
X177401401Y-101622495D01*
X177550900Y-101472996D01*
X188678435Y-101472996D01*
X188678435Y-101473003D01*
X188698630Y-101652249D01*
X188698631Y-101652254D01*
X188758211Y-101822523D01*
X188831308Y-101938855D01*
X188854184Y-101975262D01*
X188981738Y-102102816D01*
X189134478Y-102198789D01*
X189288258Y-102252599D01*
X189304745Y-102258368D01*
X189304750Y-102258369D01*
X189483996Y-102278565D01*
X189484000Y-102278565D01*
X189484004Y-102278565D01*
X189663249Y-102258369D01*
X189663252Y-102258368D01*
X189663255Y-102258368D01*
X189833522Y-102198789D01*
X189986262Y-102102816D01*
X190113816Y-101975262D01*
X190209789Y-101822522D01*
X190269368Y-101652255D01*
X190272721Y-101622495D01*
X190289565Y-101473003D01*
X190289565Y-101472996D01*
X190710435Y-101472996D01*
X190710435Y-101473003D01*
X190730630Y-101652249D01*
X190730631Y-101652254D01*
X190790211Y-101822523D01*
X190863308Y-101938855D01*
X190886184Y-101975262D01*
X191013738Y-102102816D01*
X191166478Y-102198789D01*
X191320258Y-102252599D01*
X191336745Y-102258368D01*
X191336750Y-102258369D01*
X191515996Y-102278565D01*
X191516000Y-102278565D01*
X191516004Y-102278565D01*
X191695249Y-102258369D01*
X191695252Y-102258368D01*
X191695255Y-102258368D01*
X191865522Y-102198789D01*
X192018262Y-102102816D01*
X192145816Y-101975262D01*
X192241789Y-101822522D01*
X192301368Y-101652255D01*
X192304721Y-101622495D01*
X192321565Y-101473003D01*
X192321565Y-101472996D01*
X192301369Y-101293750D01*
X192301368Y-101293745D01*
X192241788Y-101123476D01*
X192145815Y-100970737D01*
X192018262Y-100843184D01*
X191865523Y-100747211D01*
X191695254Y-100687631D01*
X191695249Y-100687630D01*
X191516004Y-100667435D01*
X191515996Y-100667435D01*
X191336750Y-100687630D01*
X191336745Y-100687631D01*
X191166476Y-100747211D01*
X191013737Y-100843184D01*
X190886184Y-100970737D01*
X190790211Y-101123476D01*
X190730631Y-101293745D01*
X190730630Y-101293750D01*
X190710435Y-101472996D01*
X190289565Y-101472996D01*
X190269369Y-101293750D01*
X190269368Y-101293745D01*
X190209788Y-101123476D01*
X190113815Y-100970737D01*
X189986262Y-100843184D01*
X189833523Y-100747211D01*
X189663254Y-100687631D01*
X189663249Y-100687630D01*
X189484004Y-100667435D01*
X189483996Y-100667435D01*
X189304750Y-100687630D01*
X189304745Y-100687631D01*
X189134476Y-100747211D01*
X188981737Y-100843184D01*
X188854184Y-100970737D01*
X188758211Y-101123476D01*
X188698631Y-101293745D01*
X188698630Y-101293750D01*
X188678435Y-101472996D01*
X177550900Y-101472996D01*
X177568495Y-101455401D01*
X177704035Y-101261830D01*
X177803903Y-101047663D01*
X177865063Y-100819408D01*
X177885659Y-100584000D01*
X177865063Y-100348592D01*
X177803903Y-100120337D01*
X177704035Y-99906171D01*
X177687894Y-99883118D01*
X177568494Y-99712597D01*
X177401402Y-99545506D01*
X177401396Y-99545501D01*
X177215842Y-99415575D01*
X177172217Y-99360998D01*
X177165023Y-99291500D01*
X177196546Y-99229145D01*
X177215842Y-99212425D01*
X177238026Y-99196891D01*
X177401401Y-99082495D01*
X177568495Y-98915401D01*
X177704035Y-98721830D01*
X177803903Y-98507663D01*
X177865063Y-98279408D01*
X177885659Y-98044000D01*
X177865063Y-97808592D01*
X177803903Y-97580337D01*
X177704035Y-97366171D01*
X177687894Y-97343118D01*
X177568494Y-97172597D01*
X177423892Y-97027996D01*
X188444435Y-97027996D01*
X188444435Y-97028003D01*
X188464630Y-97207249D01*
X188464631Y-97207254D01*
X188524211Y-97377523D01*
X188554678Y-97426010D01*
X188620184Y-97530262D01*
X188747738Y-97657816D01*
X188900478Y-97753789D01*
X189057079Y-97808586D01*
X189070745Y-97813368D01*
X189070750Y-97813369D01*
X189249996Y-97833565D01*
X189250000Y-97833565D01*
X189250004Y-97833565D01*
X189429249Y-97813369D01*
X189429252Y-97813368D01*
X189429255Y-97813368D01*
X189599522Y-97753789D01*
X189752262Y-97657816D01*
X189879816Y-97530262D01*
X189975789Y-97377522D01*
X190035368Y-97207255D01*
X190055565Y-97028000D01*
X190055565Y-97027996D01*
X190944435Y-97027996D01*
X190944435Y-97028003D01*
X190964630Y-97207249D01*
X190964631Y-97207254D01*
X191024211Y-97377523D01*
X191054678Y-97426010D01*
X191120184Y-97530262D01*
X191247738Y-97657816D01*
X191400478Y-97753789D01*
X191557079Y-97808586D01*
X191570745Y-97813368D01*
X191570750Y-97813369D01*
X191749996Y-97833565D01*
X191750000Y-97833565D01*
X191750004Y-97833565D01*
X191929249Y-97813369D01*
X191929252Y-97813368D01*
X191929255Y-97813368D01*
X192099522Y-97753789D01*
X192252262Y-97657816D01*
X192379816Y-97530262D01*
X192475789Y-97377522D01*
X192535368Y-97207255D01*
X192555565Y-97028000D01*
X192555565Y-97027996D01*
X196806435Y-97027996D01*
X196806435Y-97028003D01*
X196826630Y-97207249D01*
X196826631Y-97207254D01*
X196886211Y-97377523D01*
X196916678Y-97426010D01*
X196982184Y-97530262D01*
X197109738Y-97657816D01*
X197262478Y-97753789D01*
X197419079Y-97808586D01*
X197432745Y-97813368D01*
X197432750Y-97813369D01*
X197611996Y-97833565D01*
X197612000Y-97833565D01*
X197612004Y-97833565D01*
X197791249Y-97813369D01*
X197791252Y-97813368D01*
X197791255Y-97813368D01*
X197961522Y-97753789D01*
X198114262Y-97657816D01*
X198241816Y-97530262D01*
X198337789Y-97377522D01*
X198397368Y-97207255D01*
X198417565Y-97028000D01*
X198415030Y-97005505D01*
X198397369Y-96848750D01*
X198397368Y-96848745D01*
X198379087Y-96796500D01*
X198337789Y-96678478D01*
X198241816Y-96525738D01*
X198114262Y-96398184D01*
X198077994Y-96375395D01*
X197961523Y-96302211D01*
X197791254Y-96242631D01*
X197791249Y-96242630D01*
X197612004Y-96222435D01*
X197611996Y-96222435D01*
X197432750Y-96242630D01*
X197432745Y-96242631D01*
X197262476Y-96302211D01*
X197109737Y-96398184D01*
X196982184Y-96525737D01*
X196886211Y-96678476D01*
X196826631Y-96848745D01*
X196826630Y-96848750D01*
X196806435Y-97027996D01*
X192555565Y-97027996D01*
X192553030Y-97005505D01*
X192535369Y-96848750D01*
X192535368Y-96848745D01*
X192517087Y-96796500D01*
X192475789Y-96678478D01*
X192379816Y-96525738D01*
X192252262Y-96398184D01*
X192215994Y-96375395D01*
X192099523Y-96302211D01*
X191929254Y-96242631D01*
X191929249Y-96242630D01*
X191750004Y-96222435D01*
X191749996Y-96222435D01*
X191570750Y-96242630D01*
X191570745Y-96242631D01*
X191400476Y-96302211D01*
X191247737Y-96398184D01*
X191120184Y-96525737D01*
X191024211Y-96678476D01*
X190964631Y-96848745D01*
X190964630Y-96848750D01*
X190944435Y-97027996D01*
X190055565Y-97027996D01*
X190053030Y-97005505D01*
X190035369Y-96848750D01*
X190035368Y-96848745D01*
X190017087Y-96796500D01*
X189975789Y-96678478D01*
X189879816Y-96525738D01*
X189752262Y-96398184D01*
X189715994Y-96375395D01*
X189599523Y-96302211D01*
X189429254Y-96242631D01*
X189429249Y-96242630D01*
X189250004Y-96222435D01*
X189249996Y-96222435D01*
X189070750Y-96242630D01*
X189070745Y-96242631D01*
X188900476Y-96302211D01*
X188747737Y-96398184D01*
X188620184Y-96525737D01*
X188524211Y-96678476D01*
X188464631Y-96848745D01*
X188464630Y-96848750D01*
X188444435Y-97027996D01*
X177423892Y-97027996D01*
X177401402Y-97005506D01*
X177401396Y-97005501D01*
X177215842Y-96875575D01*
X177172217Y-96820998D01*
X177165023Y-96751500D01*
X177196546Y-96689145D01*
X177215842Y-96672425D01*
X177238026Y-96656891D01*
X177401401Y-96542495D01*
X177568495Y-96375401D01*
X177704035Y-96181830D01*
X177803903Y-95967663D01*
X177865063Y-95739408D01*
X177885659Y-95504000D01*
X177865063Y-95268592D01*
X177803903Y-95040337D01*
X177704035Y-94826171D01*
X177687894Y-94803118D01*
X177568494Y-94632597D01*
X177401402Y-94465506D01*
X177401396Y-94465501D01*
X177215842Y-94335575D01*
X177172217Y-94280998D01*
X177165023Y-94211500D01*
X177196546Y-94149145D01*
X177215842Y-94132425D01*
X177238026Y-94116891D01*
X177401401Y-94002495D01*
X177568495Y-93835401D01*
X177704035Y-93641830D01*
X177803903Y-93427663D01*
X177865063Y-93199408D01*
X177885659Y-92964000D01*
X177865063Y-92728592D01*
X177860080Y-92709996D01*
X187916435Y-92709996D01*
X187916435Y-92710003D01*
X187936630Y-92889249D01*
X187936631Y-92889254D01*
X187996211Y-93059523D01*
X188084104Y-93199403D01*
X188092184Y-93212262D01*
X188219738Y-93339816D01*
X188310080Y-93396582D01*
X188359545Y-93427663D01*
X188372478Y-93435789D01*
X188542745Y-93495368D01*
X188542750Y-93495369D01*
X188721996Y-93515565D01*
X188722000Y-93515565D01*
X188722004Y-93515565D01*
X188901249Y-93495369D01*
X188901252Y-93495368D01*
X188901255Y-93495368D01*
X189071522Y-93435789D01*
X189224262Y-93339816D01*
X189351816Y-93212262D01*
X189447789Y-93059522D01*
X189507368Y-92889255D01*
X189525470Y-92728596D01*
X189527565Y-92710003D01*
X189527565Y-92709996D01*
X189507369Y-92530750D01*
X189507368Y-92530745D01*
X189447788Y-92360476D01*
X189401099Y-92286171D01*
X189351816Y-92207738D01*
X189224262Y-92080184D01*
X189071523Y-91984211D01*
X188901254Y-91924631D01*
X188901249Y-91924630D01*
X188722004Y-91904435D01*
X188721996Y-91904435D01*
X188542750Y-91924630D01*
X188542745Y-91924631D01*
X188372476Y-91984211D01*
X188219737Y-92080184D01*
X188092184Y-92207737D01*
X187996211Y-92360476D01*
X187936631Y-92530745D01*
X187936630Y-92530750D01*
X187916435Y-92709996D01*
X177860080Y-92709996D01*
X177803903Y-92500337D01*
X177704035Y-92286171D01*
X177687894Y-92263118D01*
X177568494Y-92092597D01*
X177401402Y-91925506D01*
X177401396Y-91925501D01*
X177215842Y-91795575D01*
X177172217Y-91740998D01*
X177165023Y-91671500D01*
X177196546Y-91609145D01*
X177215842Y-91592425D01*
X177238026Y-91576891D01*
X177401401Y-91462495D01*
X177568495Y-91295401D01*
X177704035Y-91101830D01*
X177803903Y-90887663D01*
X177865063Y-90659408D01*
X177885659Y-90424000D01*
X177885659Y-90423996D01*
X181693435Y-90423996D01*
X181693435Y-90424003D01*
X181713630Y-90603249D01*
X181713631Y-90603254D01*
X181773211Y-90773523D01*
X181844931Y-90887664D01*
X181869184Y-90926262D01*
X181996738Y-91053816D01*
X182149478Y-91149789D01*
X182194169Y-91165427D01*
X182319745Y-91209368D01*
X182319750Y-91209369D01*
X182498996Y-91229565D01*
X182499000Y-91229565D01*
X182499004Y-91229565D01*
X182678249Y-91209369D01*
X182678252Y-91209368D01*
X182678255Y-91209368D01*
X182848522Y-91149789D01*
X183001262Y-91053816D01*
X183128816Y-90926262D01*
X183224789Y-90773522D01*
X183284368Y-90603255D01*
X183304565Y-90424000D01*
X183291311Y-90306369D01*
X183284369Y-90244750D01*
X183284368Y-90244745D01*
X183224788Y-90074476D01*
X183128815Y-89921737D01*
X183001262Y-89794184D01*
X182848523Y-89698211D01*
X182678254Y-89638631D01*
X182678249Y-89638630D01*
X182499004Y-89618435D01*
X182498996Y-89618435D01*
X182319750Y-89638630D01*
X182319745Y-89638631D01*
X182149476Y-89698211D01*
X181996737Y-89794184D01*
X181869184Y-89921737D01*
X181773211Y-90074476D01*
X181713631Y-90244745D01*
X181713630Y-90244750D01*
X181693435Y-90423996D01*
X177885659Y-90423996D01*
X177865063Y-90188592D01*
X177803903Y-89960337D01*
X177704035Y-89746171D01*
X177687894Y-89723118D01*
X177568494Y-89552597D01*
X177536893Y-89520996D01*
X194915435Y-89520996D01*
X194915435Y-89521003D01*
X194935630Y-89700249D01*
X194935631Y-89700254D01*
X194995211Y-89870523D01*
X195051650Y-89960344D01*
X195091184Y-90023262D01*
X195218738Y-90150816D01*
X195371478Y-90246789D01*
X195541745Y-90306368D01*
X195541750Y-90306369D01*
X195720996Y-90326565D01*
X195721000Y-90326565D01*
X195721004Y-90326565D01*
X195900249Y-90306369D01*
X195900252Y-90306368D01*
X195900255Y-90306368D01*
X196070522Y-90246789D01*
X196223262Y-90150816D01*
X196350816Y-90023262D01*
X196446789Y-89870522D01*
X196506368Y-89700255D01*
X196506369Y-89700249D01*
X196526565Y-89521003D01*
X196526565Y-89520996D01*
X196506369Y-89341750D01*
X196506368Y-89341745D01*
X196446788Y-89171476D01*
X196350815Y-89018737D01*
X196223262Y-88891184D01*
X196070523Y-88795211D01*
X195900254Y-88735631D01*
X195900249Y-88735630D01*
X195721004Y-88715435D01*
X195720996Y-88715435D01*
X195541750Y-88735630D01*
X195541745Y-88735631D01*
X195371476Y-88795211D01*
X195218737Y-88891184D01*
X195091184Y-89018737D01*
X194995211Y-89171476D01*
X194935631Y-89341745D01*
X194935630Y-89341750D01*
X194915435Y-89520996D01*
X177536893Y-89520996D01*
X177401402Y-89385506D01*
X177401396Y-89385501D01*
X177215842Y-89255575D01*
X177172217Y-89200998D01*
X177165023Y-89131500D01*
X177196546Y-89069145D01*
X177215842Y-89052425D01*
X177263953Y-89018737D01*
X177401401Y-88922495D01*
X177568495Y-88755401D01*
X177704035Y-88561830D01*
X177803903Y-88347663D01*
X177865063Y-88119408D01*
X177885659Y-87884000D01*
X177865063Y-87648592D01*
X177803903Y-87420337D01*
X177704035Y-87206171D01*
X177687894Y-87183118D01*
X177568494Y-87012597D01*
X177401402Y-86845506D01*
X177401396Y-86845501D01*
X177215842Y-86715575D01*
X177172217Y-86660998D01*
X177165023Y-86591500D01*
X177196546Y-86529145D01*
X177215842Y-86512425D01*
X177238026Y-86496891D01*
X177401401Y-86382495D01*
X177568495Y-86215401D01*
X177704035Y-86021830D01*
X177803903Y-85807663D01*
X177865063Y-85579408D01*
X177885659Y-85344000D01*
X177865063Y-85108592D01*
X177803903Y-84880337D01*
X177704035Y-84666171D01*
X177687894Y-84643118D01*
X177568494Y-84472597D01*
X177401402Y-84305506D01*
X177401396Y-84305501D01*
X177215842Y-84175575D01*
X177172217Y-84120998D01*
X177165023Y-84051500D01*
X177196546Y-83989145D01*
X177215842Y-83972425D01*
X177238026Y-83956891D01*
X177401401Y-83842495D01*
X177568495Y-83675401D01*
X177704035Y-83481830D01*
X177803903Y-83267663D01*
X177865063Y-83039408D01*
X177885659Y-82804000D01*
X177865063Y-82568592D01*
X177803903Y-82340337D01*
X177704035Y-82126171D01*
X177687894Y-82103118D01*
X177568494Y-81932597D01*
X177487393Y-81851496D01*
X181248935Y-81851496D01*
X181248935Y-81851503D01*
X181269130Y-82030749D01*
X181269131Y-82030754D01*
X181328711Y-82201023D01*
X181416253Y-82340344D01*
X181424684Y-82353762D01*
X181552238Y-82481316D01*
X181642580Y-82538082D01*
X181691136Y-82568592D01*
X181704978Y-82577289D01*
X181875245Y-82636868D01*
X181875250Y-82636869D01*
X182054496Y-82657065D01*
X182054500Y-82657065D01*
X182054504Y-82657065D01*
X182233749Y-82636869D01*
X182233752Y-82636868D01*
X182233755Y-82636868D01*
X182404022Y-82577289D01*
X182556762Y-82481316D01*
X182684316Y-82353762D01*
X182780289Y-82201022D01*
X182839868Y-82030755D01*
X182839869Y-82030749D01*
X182860065Y-81851503D01*
X182860065Y-81851496D01*
X182839869Y-81672250D01*
X182839868Y-81672245D01*
X182780288Y-81501976D01*
X182697857Y-81370789D01*
X182684316Y-81349238D01*
X182556762Y-81221684D01*
X182404023Y-81125711D01*
X182233754Y-81066131D01*
X182233749Y-81066130D01*
X182054504Y-81045935D01*
X182054496Y-81045935D01*
X181875250Y-81066130D01*
X181875245Y-81066131D01*
X181704976Y-81125711D01*
X181552237Y-81221684D01*
X181424684Y-81349237D01*
X181328711Y-81501976D01*
X181269131Y-81672245D01*
X181269130Y-81672250D01*
X181248935Y-81851496D01*
X177487393Y-81851496D01*
X177401402Y-81765506D01*
X177401396Y-81765501D01*
X177215842Y-81635575D01*
X177172217Y-81580998D01*
X177165023Y-81511500D01*
X177196546Y-81449145D01*
X177215842Y-81432425D01*
X177303867Y-81370789D01*
X177401401Y-81302495D01*
X177568495Y-81135401D01*
X177704035Y-80941830D01*
X177803903Y-80727663D01*
X177826053Y-80644996D01*
X189694435Y-80644996D01*
X189694435Y-80645003D01*
X189714630Y-80824249D01*
X189714631Y-80824254D01*
X189774211Y-80994523D01*
X189831062Y-81085000D01*
X189870184Y-81147262D01*
X189997738Y-81274816D01*
X190150478Y-81370789D01*
X190320745Y-81430368D01*
X190320750Y-81430369D01*
X190499996Y-81450565D01*
X190500000Y-81450565D01*
X190500004Y-81450565D01*
X190679249Y-81430369D01*
X190679252Y-81430368D01*
X190679255Y-81430368D01*
X190849522Y-81370789D01*
X191002262Y-81274816D01*
X191129816Y-81147262D01*
X191168940Y-81084996D01*
X198457435Y-81084996D01*
X198457435Y-81085003D01*
X198477630Y-81264249D01*
X198477631Y-81264254D01*
X198537211Y-81434523D01*
X198599717Y-81534000D01*
X198633184Y-81587262D01*
X198760738Y-81714816D01*
X198913478Y-81810789D01*
X199029832Y-81851503D01*
X199083745Y-81870368D01*
X199083750Y-81870369D01*
X199262996Y-81890565D01*
X199263000Y-81890565D01*
X199263004Y-81890565D01*
X199442249Y-81870369D01*
X199442252Y-81870368D01*
X199442255Y-81870368D01*
X199612522Y-81810789D01*
X199765262Y-81714816D01*
X199892816Y-81587262D01*
X199988789Y-81434522D01*
X200048368Y-81264255D01*
X200062886Y-81135402D01*
X200068565Y-81085003D01*
X200068565Y-81084996D01*
X200048369Y-80905750D01*
X200048368Y-80905745D01*
X199988788Y-80735476D01*
X199892815Y-80582737D01*
X199765262Y-80455184D01*
X199612523Y-80359211D01*
X199442254Y-80299631D01*
X199442249Y-80299630D01*
X199263004Y-80279435D01*
X199262996Y-80279435D01*
X199083750Y-80299630D01*
X199083745Y-80299631D01*
X198913476Y-80359211D01*
X198760737Y-80455184D01*
X198633184Y-80582737D01*
X198537211Y-80735476D01*
X198477631Y-80905745D01*
X198477630Y-80905750D01*
X198457435Y-81084996D01*
X191168940Y-81084996D01*
X191225789Y-80994522D01*
X191285368Y-80824255D01*
X191296251Y-80727664D01*
X191305565Y-80645003D01*
X191305565Y-80644996D01*
X191285369Y-80465750D01*
X191285368Y-80465745D01*
X191248090Y-80359211D01*
X191225789Y-80295478D01*
X191206009Y-80263999D01*
X191129815Y-80142737D01*
X191002262Y-80015184D01*
X190849523Y-79919211D01*
X190679254Y-79859631D01*
X190679249Y-79859630D01*
X190500004Y-79839435D01*
X190499996Y-79839435D01*
X190320750Y-79859630D01*
X190320745Y-79859631D01*
X190150476Y-79919211D01*
X189997737Y-80015184D01*
X189870184Y-80142737D01*
X189774211Y-80295476D01*
X189714631Y-80465745D01*
X189714630Y-80465750D01*
X189694435Y-80644996D01*
X177826053Y-80644996D01*
X177865063Y-80499408D01*
X177885659Y-80264000D01*
X177865063Y-80028592D01*
X177803903Y-79800337D01*
X177704035Y-79586171D01*
X177689083Y-79564816D01*
X177568494Y-79392597D01*
X177401402Y-79225506D01*
X177401396Y-79225501D01*
X177215842Y-79095575D01*
X177172217Y-79040998D01*
X177165023Y-78971500D01*
X177183477Y-78934996D01*
X187281435Y-78934996D01*
X187281435Y-78935003D01*
X187301630Y-79114249D01*
X187301631Y-79114254D01*
X187361211Y-79284523D01*
X187429119Y-79392597D01*
X187457184Y-79437262D01*
X187584738Y-79564816D01*
X187737478Y-79660789D01*
X187907745Y-79720368D01*
X187907750Y-79720369D01*
X188086996Y-79740565D01*
X188087000Y-79740565D01*
X188087004Y-79740565D01*
X188266249Y-79720369D01*
X188266252Y-79720368D01*
X188266255Y-79720368D01*
X188436522Y-79660789D01*
X188589262Y-79564816D01*
X188716816Y-79437262D01*
X188812789Y-79284522D01*
X188872368Y-79114255D01*
X188880622Y-79040998D01*
X188892565Y-78935003D01*
X188892565Y-78934996D01*
X192107435Y-78934996D01*
X192107435Y-78935003D01*
X192127630Y-79114249D01*
X192127631Y-79114254D01*
X192187211Y-79284523D01*
X192255119Y-79392597D01*
X192283184Y-79437262D01*
X192410738Y-79564816D01*
X192563478Y-79660789D01*
X192733745Y-79720368D01*
X192733750Y-79720369D01*
X192912996Y-79740565D01*
X192913000Y-79740565D01*
X192913004Y-79740565D01*
X193092249Y-79720369D01*
X193092252Y-79720368D01*
X193092255Y-79720368D01*
X193262522Y-79660789D01*
X193415262Y-79564816D01*
X193542816Y-79437262D01*
X193638789Y-79284522D01*
X193698368Y-79114255D01*
X193706622Y-79040998D01*
X193718565Y-78935003D01*
X193718565Y-78934996D01*
X193698369Y-78755750D01*
X193698368Y-78755745D01*
X193638789Y-78585478D01*
X193542816Y-78432738D01*
X193415262Y-78305184D01*
X193262523Y-78209211D01*
X193092254Y-78149631D01*
X193092249Y-78149630D01*
X192913004Y-78129435D01*
X192912996Y-78129435D01*
X192733750Y-78149630D01*
X192733745Y-78149631D01*
X192563476Y-78209211D01*
X192410737Y-78305184D01*
X192283184Y-78432737D01*
X192187211Y-78585476D01*
X192127631Y-78755745D01*
X192127630Y-78755750D01*
X192107435Y-78934996D01*
X188892565Y-78934996D01*
X188872369Y-78755750D01*
X188872368Y-78755745D01*
X188812789Y-78585478D01*
X188716816Y-78432738D01*
X188589262Y-78305184D01*
X188436523Y-78209211D01*
X188266254Y-78149631D01*
X188266249Y-78149630D01*
X188087004Y-78129435D01*
X188086996Y-78129435D01*
X187907750Y-78149630D01*
X187907745Y-78149631D01*
X187737476Y-78209211D01*
X187584737Y-78305184D01*
X187457184Y-78432737D01*
X187361211Y-78585476D01*
X187301631Y-78755745D01*
X187301630Y-78755750D01*
X187281435Y-78934996D01*
X177183477Y-78934996D01*
X177196546Y-78909145D01*
X177215842Y-78892425D01*
X177238026Y-78876891D01*
X177401401Y-78762495D01*
X177568495Y-78595401D01*
X177704035Y-78401830D01*
X177803903Y-78187663D01*
X177865063Y-77959408D01*
X177885659Y-77724000D01*
X177865063Y-77488592D01*
X177803903Y-77260337D01*
X177704035Y-77046171D01*
X177687894Y-77023118D01*
X177568494Y-76852597D01*
X177401402Y-76685506D01*
X177401396Y-76685501D01*
X177215842Y-76555575D01*
X177172217Y-76500998D01*
X177165023Y-76431500D01*
X177196546Y-76369145D01*
X177215842Y-76352425D01*
X177238026Y-76336891D01*
X177401401Y-76222495D01*
X177568495Y-76055401D01*
X177704035Y-75861830D01*
X177803903Y-75647663D01*
X177865063Y-75419408D01*
X177885659Y-75184000D01*
X177865063Y-74948592D01*
X177803903Y-74720337D01*
X177704035Y-74506171D01*
X177687894Y-74483118D01*
X177568494Y-74312597D01*
X177401402Y-74145506D01*
X177401396Y-74145501D01*
X177215842Y-74015575D01*
X177172217Y-73960998D01*
X177165023Y-73891500D01*
X177196546Y-73829145D01*
X177215842Y-73812425D01*
X177238026Y-73796891D01*
X177401401Y-73682495D01*
X177568495Y-73515401D01*
X177704035Y-73321830D01*
X177803903Y-73107663D01*
X177865063Y-72879408D01*
X177885659Y-72644000D01*
X177865063Y-72408592D01*
X177803903Y-72180337D01*
X177704035Y-71966171D01*
X177687894Y-71943118D01*
X177568494Y-71772597D01*
X177401402Y-71605506D01*
X177401396Y-71605501D01*
X177215842Y-71475575D01*
X177172217Y-71420998D01*
X177165023Y-71351500D01*
X177196546Y-71289145D01*
X177215842Y-71272425D01*
X177268548Y-71235520D01*
X177401401Y-71142495D01*
X177568495Y-70975401D01*
X177704035Y-70781830D01*
X177803903Y-70567663D01*
X177865063Y-70339408D01*
X177885659Y-70104000D01*
X177865063Y-69868592D01*
X177803903Y-69640337D01*
X177783226Y-69595996D01*
X182328435Y-69595996D01*
X182328435Y-69596003D01*
X182348630Y-69775249D01*
X182348631Y-69775254D01*
X182408211Y-69945523D01*
X182445041Y-70004137D01*
X182504184Y-70098262D01*
X182631738Y-70225816D01*
X182784478Y-70321789D01*
X182954745Y-70381368D01*
X182954750Y-70381369D01*
X183059739Y-70393198D01*
X183124153Y-70420264D01*
X183163708Y-70477859D01*
X183165846Y-70547696D01*
X183162898Y-70557372D01*
X183110632Y-70706740D01*
X183110630Y-70706748D01*
X183090435Y-70885994D01*
X183090435Y-70886001D01*
X183110630Y-71065247D01*
X183110631Y-71065252D01*
X183170211Y-71235521D01*
X183227693Y-71327002D01*
X183266184Y-71388260D01*
X183393738Y-71515814D01*
X183546478Y-71611787D01*
X183716745Y-71671366D01*
X183716750Y-71671367D01*
X183895996Y-71691563D01*
X183896000Y-71691563D01*
X183896004Y-71691563D01*
X184075249Y-71671367D01*
X184075252Y-71671366D01*
X184075255Y-71671366D01*
X184245522Y-71611787D01*
X184398262Y-71515814D01*
X184525816Y-71388260D01*
X184621789Y-71235520D01*
X184681368Y-71065253D01*
X184691492Y-70975401D01*
X184701565Y-70886001D01*
X184701565Y-70885994D01*
X184681369Y-70706748D01*
X184681368Y-70706743D01*
X184621788Y-70536474D01*
X184548768Y-70420264D01*
X184525816Y-70383736D01*
X184398262Y-70256182D01*
X184349935Y-70225816D01*
X184245523Y-70160209D01*
X184075254Y-70100629D01*
X184075250Y-70100628D01*
X183970259Y-70088799D01*
X183905845Y-70061732D01*
X183866290Y-70004137D01*
X183864153Y-69934300D01*
X183867102Y-69924624D01*
X183919366Y-69775262D01*
X183919369Y-69775249D01*
X183939565Y-69596003D01*
X183939565Y-69595996D01*
X183919369Y-69416750D01*
X183919368Y-69416745D01*
X183859788Y-69246476D01*
X183763815Y-69093737D01*
X183636262Y-68966184D01*
X183483523Y-68870211D01*
X183313254Y-68810631D01*
X183313249Y-68810630D01*
X183134004Y-68790435D01*
X183133996Y-68790435D01*
X182954750Y-68810630D01*
X182954745Y-68810631D01*
X182784476Y-68870211D01*
X182631737Y-68966184D01*
X182504184Y-69093737D01*
X182408211Y-69246476D01*
X182348631Y-69416745D01*
X182348630Y-69416750D01*
X182328435Y-69595996D01*
X177783226Y-69595996D01*
X177704035Y-69426171D01*
X177697439Y-69416750D01*
X177568494Y-69232597D01*
X177401402Y-69065506D01*
X177401396Y-69065501D01*
X177215842Y-68935575D01*
X177172217Y-68880998D01*
X177165023Y-68811500D01*
X177196546Y-68749145D01*
X177215842Y-68732425D01*
X177238026Y-68716891D01*
X177401401Y-68602495D01*
X177568495Y-68435401D01*
X177704035Y-68241830D01*
X177803903Y-68027663D01*
X177865063Y-67799408D01*
X177885659Y-67564000D01*
X177865063Y-67328592D01*
X177803903Y-67100337D01*
X177704035Y-66886171D01*
X177687894Y-66863118D01*
X177568494Y-66692597D01*
X177401402Y-66525506D01*
X177401396Y-66525501D01*
X177215842Y-66395575D01*
X177172217Y-66340998D01*
X177165023Y-66271500D01*
X177196546Y-66209145D01*
X177215842Y-66192425D01*
X177238026Y-66176891D01*
X177401401Y-66062495D01*
X177568495Y-65895401D01*
X177704035Y-65701830D01*
X177803903Y-65487663D01*
X177865063Y-65259408D01*
X177885659Y-65024000D01*
X177865063Y-64788592D01*
X177803903Y-64560337D01*
X177704035Y-64346171D01*
X177687894Y-64323118D01*
X177568494Y-64152597D01*
X177401402Y-63985506D01*
X177401396Y-63985501D01*
X177215842Y-63855575D01*
X177172217Y-63800998D01*
X177165023Y-63731500D01*
X177196546Y-63669145D01*
X177215842Y-63652425D01*
X177312577Y-63584690D01*
X177401401Y-63522495D01*
X177568495Y-63355401D01*
X177704035Y-63161830D01*
X177803903Y-62947663D01*
X177865063Y-62719408D01*
X177885659Y-62484000D01*
X177865063Y-62248592D01*
X177803903Y-62020337D01*
X177704035Y-61806171D01*
X177687894Y-61783118D01*
X177568494Y-61612597D01*
X177401402Y-61445506D01*
X177401396Y-61445501D01*
X177330695Y-61395996D01*
X186894435Y-61395996D01*
X186894435Y-61396003D01*
X186914630Y-61575249D01*
X186914631Y-61575254D01*
X186974211Y-61745523D01*
X187070184Y-61898262D01*
X187180241Y-62008319D01*
X187213726Y-62069642D01*
X187208742Y-62139334D01*
X187180241Y-62183681D01*
X187070184Y-62293737D01*
X186974211Y-62446476D01*
X186914631Y-62616745D01*
X186914630Y-62616750D01*
X186894435Y-62795996D01*
X186894435Y-62796003D01*
X186914630Y-62975249D01*
X186914631Y-62975254D01*
X186974211Y-63145523D01*
X187070184Y-63298262D01*
X187197738Y-63425816D01*
X187350478Y-63521789D01*
X187520745Y-63581368D01*
X187520754Y-63581369D01*
X187521207Y-63581473D01*
X187521477Y-63581624D01*
X187527318Y-63583668D01*
X187526960Y-63584690D01*
X187582191Y-63615573D01*
X187611377Y-63669017D01*
X187612333Y-63668683D01*
X187614362Y-63674483D01*
X187614523Y-63674777D01*
X187614631Y-63675250D01*
X187614632Y-63675255D01*
X187625741Y-63707002D01*
X187674210Y-63845521D01*
X187699999Y-63886564D01*
X187770184Y-63998262D01*
X187897738Y-64125816D01*
X188050478Y-64221789D01*
X188220745Y-64281368D01*
X188220750Y-64281369D01*
X188399996Y-64301565D01*
X188400000Y-64301565D01*
X188400004Y-64301565D01*
X188579249Y-64281369D01*
X188579252Y-64281368D01*
X188579255Y-64281368D01*
X188749522Y-64221789D01*
X188902262Y-64125816D01*
X189012319Y-64015759D01*
X189073642Y-63982274D01*
X189143334Y-63987258D01*
X189187681Y-64015759D01*
X189297738Y-64125816D01*
X189450478Y-64221789D01*
X189620745Y-64281368D01*
X189620750Y-64281369D01*
X189799996Y-64301565D01*
X189800000Y-64301565D01*
X189800004Y-64301565D01*
X189979249Y-64281369D01*
X189979252Y-64281368D01*
X189979255Y-64281368D01*
X190149522Y-64221789D01*
X190302262Y-64125816D01*
X190429816Y-63998262D01*
X190525789Y-63845522D01*
X190585368Y-63675255D01*
X190585369Y-63675243D01*
X190585473Y-63674793D01*
X190585624Y-63674522D01*
X190587668Y-63668682D01*
X190588690Y-63669039D01*
X190619573Y-63613809D01*
X190673017Y-63584626D01*
X190672682Y-63583668D01*
X190678504Y-63581630D01*
X190678793Y-63581473D01*
X190679243Y-63581369D01*
X190679255Y-63581368D01*
X190849522Y-63521789D01*
X191002262Y-63425816D01*
X191129816Y-63298262D01*
X191225789Y-63145522D01*
X191285368Y-62975255D01*
X191305565Y-62796000D01*
X191296935Y-62719408D01*
X191285369Y-62616750D01*
X191285368Y-62616745D01*
X191225789Y-62446478D01*
X191129816Y-62293738D01*
X191019759Y-62183681D01*
X190986274Y-62122358D01*
X190991258Y-62052666D01*
X191019759Y-62008319D01*
X191129816Y-61898262D01*
X191225789Y-61745522D01*
X191285368Y-61575255D01*
X191299987Y-61445506D01*
X191305565Y-61396003D01*
X191305565Y-61395996D01*
X191285369Y-61216750D01*
X191285368Y-61216745D01*
X191225788Y-61046476D01*
X191129815Y-60893737D01*
X191002262Y-60766184D01*
X190849521Y-60670210D01*
X190770437Y-60642538D01*
X190679255Y-60610632D01*
X190679251Y-60610631D01*
X190679250Y-60610631D01*
X190678777Y-60610523D01*
X190678501Y-60610369D01*
X190672683Y-60608333D01*
X190673039Y-60607313D01*
X190617798Y-60576416D01*
X190588626Y-60522982D01*
X190587668Y-60523318D01*
X190585630Y-60517496D01*
X190585473Y-60517207D01*
X190585369Y-60516754D01*
X190585368Y-60516745D01*
X190525789Y-60346478D01*
X190429816Y-60193738D01*
X190302262Y-60066184D01*
X190301675Y-60065815D01*
X190149523Y-59970211D01*
X189979254Y-59910631D01*
X189979249Y-59910630D01*
X189800004Y-59890435D01*
X189799996Y-59890435D01*
X189620750Y-59910630D01*
X189620745Y-59910631D01*
X189450476Y-59970211D01*
X189297737Y-60066184D01*
X189187681Y-60176241D01*
X189126358Y-60209726D01*
X189056666Y-60204742D01*
X189012319Y-60176241D01*
X188902262Y-60066184D01*
X188749523Y-59970211D01*
X188579254Y-59910631D01*
X188579249Y-59910630D01*
X188400004Y-59890435D01*
X188399996Y-59890435D01*
X188220750Y-59910630D01*
X188220745Y-59910631D01*
X188050476Y-59970211D01*
X187897737Y-60066184D01*
X187770184Y-60193737D01*
X187674210Y-60346478D01*
X187614628Y-60516755D01*
X187614518Y-60517241D01*
X187614360Y-60517522D01*
X187612333Y-60523317D01*
X187611317Y-60522961D01*
X187580400Y-60578215D01*
X187526984Y-60607381D01*
X187527317Y-60608333D01*
X187521541Y-60610353D01*
X187521241Y-60610518D01*
X187520755Y-60610628D01*
X187350478Y-60670210D01*
X187197737Y-60766184D01*
X187070184Y-60893737D01*
X186974211Y-61046476D01*
X186914631Y-61216745D01*
X186914630Y-61216750D01*
X186894435Y-61395996D01*
X177330695Y-61395996D01*
X177215842Y-61315575D01*
X177172217Y-61260998D01*
X177165023Y-61191500D01*
X177196546Y-61129145D01*
X177215842Y-61112425D01*
X177310024Y-61046478D01*
X177401401Y-60982495D01*
X177568495Y-60815401D01*
X177704035Y-60621830D01*
X177803903Y-60407663D01*
X177865063Y-60179408D01*
X177885659Y-59944000D01*
X177865063Y-59708592D01*
X177803903Y-59480337D01*
X177704035Y-59266171D01*
X177697439Y-59256750D01*
X177568494Y-59072597D01*
X177401402Y-58905506D01*
X177401401Y-58905505D01*
X177215405Y-58775269D01*
X177171781Y-58720692D01*
X177164588Y-58651193D01*
X177196110Y-58588839D01*
X177215405Y-58572119D01*
X177401082Y-58442105D01*
X177568105Y-58275082D01*
X177644489Y-58165996D01*
X199854435Y-58165996D01*
X199854435Y-58166003D01*
X199874630Y-58345249D01*
X199874631Y-58345254D01*
X199934211Y-58515523D01*
X200030184Y-58668262D01*
X200030185Y-58668263D01*
X200075241Y-58713320D01*
X200108725Y-58774643D01*
X200103740Y-58844335D01*
X200075241Y-58888680D01*
X200030184Y-58933737D01*
X199934211Y-59086476D01*
X199874631Y-59256745D01*
X199874630Y-59256750D01*
X199854435Y-59435996D01*
X199854435Y-59436003D01*
X199874630Y-59615249D01*
X199874631Y-59615254D01*
X199934211Y-59785523D01*
X200000132Y-59890435D01*
X200030184Y-59938262D01*
X200157738Y-60065816D01*
X200310478Y-60161789D01*
X200401783Y-60193738D01*
X200480745Y-60221368D01*
X200480750Y-60221369D01*
X200659996Y-60241565D01*
X200660000Y-60241565D01*
X200660004Y-60241565D01*
X200839249Y-60221369D01*
X200839252Y-60221368D01*
X200839255Y-60221368D01*
X201009522Y-60161789D01*
X201162262Y-60065816D01*
X201289816Y-59938262D01*
X201385789Y-59785522D01*
X201445368Y-59615255D01*
X201460569Y-59480344D01*
X201465565Y-59436003D01*
X201465565Y-59435996D01*
X201445369Y-59256750D01*
X201445368Y-59256745D01*
X201385788Y-59086476D01*
X201289815Y-58933737D01*
X201244759Y-58888681D01*
X201211274Y-58827358D01*
X201216258Y-58757666D01*
X201244759Y-58713319D01*
X201261883Y-58696195D01*
X201289816Y-58668262D01*
X201385789Y-58515522D01*
X201445368Y-58345255D01*
X201445369Y-58345249D01*
X201465565Y-58166003D01*
X201465565Y-58165996D01*
X201445369Y-57986750D01*
X201445368Y-57986745D01*
X201403699Y-57867663D01*
X201385789Y-57816478D01*
X201289816Y-57663738D01*
X201162262Y-57536184D01*
X201152420Y-57530000D01*
X201009523Y-57440211D01*
X200839254Y-57380631D01*
X200839249Y-57380630D01*
X200660004Y-57360435D01*
X200659996Y-57360435D01*
X200480750Y-57380630D01*
X200480745Y-57380631D01*
X200310476Y-57440211D01*
X200157737Y-57536184D01*
X200030184Y-57663737D01*
X199934211Y-57816476D01*
X199874631Y-57986745D01*
X199874630Y-57986750D01*
X199854435Y-58165996D01*
X177644489Y-58165996D01*
X177703600Y-58081578D01*
X177803429Y-57867492D01*
X177803432Y-57867486D01*
X177860636Y-57654000D01*
X176963012Y-57654000D01*
X176995925Y-57596993D01*
X177030000Y-57469826D01*
X177030000Y-57338174D01*
X176995925Y-57211007D01*
X176963012Y-57154000D01*
X177860636Y-57154000D01*
X177860635Y-57153999D01*
X177803432Y-56940513D01*
X177803429Y-56940507D01*
X177703600Y-56726422D01*
X177703599Y-56726420D01*
X177568113Y-56532926D01*
X177568108Y-56532920D01*
X177445665Y-56410477D01*
X177412180Y-56349154D01*
X177417164Y-56279462D01*
X177459036Y-56223529D01*
X177490013Y-56206614D01*
X177622086Y-56157354D01*
X177622093Y-56157350D01*
X177737187Y-56071190D01*
X177737190Y-56071187D01*
X177823350Y-55956093D01*
X177823354Y-55956086D01*
X177873596Y-55821379D01*
X177873598Y-55821372D01*
X177879999Y-55761844D01*
X177880000Y-55761827D01*
X177880000Y-55114000D01*
X176963012Y-55114000D01*
X176995925Y-55056993D01*
X177030000Y-54929826D01*
X177030000Y-54798174D01*
X176995925Y-54671007D01*
X176963012Y-54614000D01*
X177880000Y-54614000D01*
X177880000Y-53966172D01*
X177879999Y-53966155D01*
X177873598Y-53906627D01*
X177873596Y-53906620D01*
X177823354Y-53771913D01*
X177823350Y-53771906D01*
X177737938Y-53657811D01*
X177713520Y-53592347D01*
X177728371Y-53524074D01*
X177777776Y-53474668D01*
X177837204Y-53459500D01*
X180123945Y-53459500D01*
X180190984Y-53479185D01*
G37*
G04 #@! TD.AperFunction*
G04 #@! TA.AperFunction,Conductor*
G36*
X176780000Y-56970988D02*
G01*
X176722993Y-56938075D01*
X176595826Y-56904000D01*
X176464174Y-56904000D01*
X176337007Y-56938075D01*
X176280000Y-56970988D01*
X176280000Y-55297012D01*
X176337007Y-55329925D01*
X176464174Y-55364000D01*
X176595826Y-55364000D01*
X176722993Y-55329925D01*
X176780000Y-55297012D01*
X176780000Y-56970988D01*
G37*
G04 #@! TD.AperFunction*
M02*
