G04 #@! TF.GenerationSoftware,KiCad,Pcbnew,8.0.3*
G04 #@! TF.CreationDate,2024-06-29T14:25:19-04:00*
G04 #@! TF.ProjectId,ESP32-S3-DevBoard,45535033-322d-4533-932d-446576426f61,rev?*
G04 #@! TF.SameCoordinates,Original*
G04 #@! TF.FileFunction,Copper,L1,Top*
G04 #@! TF.FilePolarity,Positive*
%FSLAX46Y46*%
G04 Gerber Fmt 4.6, Leading zero omitted, Abs format (unit mm)*
G04 Created by KiCad (PCBNEW 8.0.3) date 2024-06-29 14:25:19*
%MOMM*%
%LPD*%
G01*
G04 APERTURE LIST*
G04 Aperture macros list*
%AMRoundRect*
0 Rectangle with rounded corners*
0 $1 Rounding radius*
0 $2 $3 $4 $5 $6 $7 $8 $9 X,Y pos of 4 corners*
0 Add a 4 corners polygon primitive as box body*
4,1,4,$2,$3,$4,$5,$6,$7,$8,$9,$2,$3,0*
0 Add four circle primitives for the rounded corners*
1,1,$1+$1,$2,$3*
1,1,$1+$1,$4,$5*
1,1,$1+$1,$6,$7*
1,1,$1+$1,$8,$9*
0 Add four rect primitives between the rounded corners*
20,1,$1+$1,$2,$3,$4,$5,0*
20,1,$1+$1,$4,$5,$6,$7,0*
20,1,$1+$1,$6,$7,$8,$9,0*
20,1,$1+$1,$8,$9,$2,$3,0*%
G04 Aperture macros list end*
G04 #@! TA.AperFunction,SMDPad,CuDef*
%ADD10RoundRect,0.237500X-0.250000X-0.237500X0.250000X-0.237500X0.250000X0.237500X-0.250000X0.237500X0*%
G04 #@! TD*
G04 #@! TA.AperFunction,SMDPad,CuDef*
%ADD11R,1.050000X0.650000*%
G04 #@! TD*
G04 #@! TA.AperFunction,SMDPad,CuDef*
%ADD12RoundRect,0.375000X0.375000X-0.625000X0.375000X0.625000X-0.375000X0.625000X-0.375000X-0.625000X0*%
G04 #@! TD*
G04 #@! TA.AperFunction,SMDPad,CuDef*
%ADD13RoundRect,0.500000X1.400000X-0.500000X1.400000X0.500000X-1.400000X0.500000X-1.400000X-0.500000X0*%
G04 #@! TD*
G04 #@! TA.AperFunction,SMDPad,CuDef*
%ADD14RoundRect,0.237500X0.300000X0.237500X-0.300000X0.237500X-0.300000X-0.237500X0.300000X-0.237500X0*%
G04 #@! TD*
G04 #@! TA.AperFunction,SMDPad,CuDef*
%ADD15RoundRect,0.237500X0.237500X-0.250000X0.237500X0.250000X-0.237500X0.250000X-0.237500X-0.250000X0*%
G04 #@! TD*
G04 #@! TA.AperFunction,SMDPad,CuDef*
%ADD16R,1.500000X0.900000*%
G04 #@! TD*
G04 #@! TA.AperFunction,SMDPad,CuDef*
%ADD17R,0.900000X1.500000*%
G04 #@! TD*
G04 #@! TA.AperFunction,HeatsinkPad*
%ADD18C,0.600000*%
G04 #@! TD*
G04 #@! TA.AperFunction,SMDPad,CuDef*
%ADD19R,3.900000X3.900000*%
G04 #@! TD*
G04 #@! TA.AperFunction,SMDPad,CuDef*
%ADD20RoundRect,0.237500X-0.300000X-0.237500X0.300000X-0.237500X0.300000X0.237500X-0.300000X0.237500X0*%
G04 #@! TD*
G04 #@! TA.AperFunction,ComponentPad*
%ADD21R,1.700000X1.700000*%
G04 #@! TD*
G04 #@! TA.AperFunction,ComponentPad*
%ADD22O,1.700000X1.700000*%
G04 #@! TD*
G04 #@! TA.AperFunction,SMDPad,CuDef*
%ADD23RoundRect,0.237500X-0.237500X0.300000X-0.237500X-0.300000X0.237500X-0.300000X0.237500X0.300000X0*%
G04 #@! TD*
G04 #@! TA.AperFunction,SMDPad,CuDef*
%ADD24RoundRect,0.237500X0.250000X0.237500X-0.250000X0.237500X-0.250000X-0.237500X0.250000X-0.237500X0*%
G04 #@! TD*
G04 #@! TA.AperFunction,SMDPad,CuDef*
%ADD25RoundRect,0.237500X-0.237500X0.250000X-0.237500X-0.250000X0.237500X-0.250000X0.237500X0.250000X0*%
G04 #@! TD*
G04 #@! TA.AperFunction,SMDPad,CuDef*
%ADD26RoundRect,0.151100X-0.151100X-0.414300X0.151100X-0.414300X0.151100X0.414300X-0.151100X0.414300X0*%
G04 #@! TD*
G04 #@! TA.AperFunction,SMDPad,CuDef*
%ADD27RoundRect,0.150000X-0.150000X-0.425000X0.150000X-0.425000X0.150000X0.425000X-0.150000X0.425000X0*%
G04 #@! TD*
G04 #@! TA.AperFunction,SMDPad,CuDef*
%ADD28RoundRect,0.075000X-0.075000X-0.500000X0.075000X-0.500000X0.075000X0.500000X-0.075000X0.500000X0*%
G04 #@! TD*
G04 #@! TA.AperFunction,SMDPad,CuDef*
%ADD29RoundRect,0.151300X-0.151300X-0.414100X0.151300X-0.414100X0.151300X0.414100X-0.151300X0.414100X0*%
G04 #@! TD*
G04 #@! TA.AperFunction,ComponentPad*
%ADD30O,1.000000X2.100000*%
G04 #@! TD*
G04 #@! TA.AperFunction,ComponentPad*
%ADD31O,1.000000X1.800000*%
G04 #@! TD*
G04 #@! TA.AperFunction,SMDPad,CuDef*
%ADD32RoundRect,0.250000X0.250000X0.250000X-0.250000X0.250000X-0.250000X-0.250000X0.250000X-0.250000X0*%
G04 #@! TD*
G04 #@! TA.AperFunction,SMDPad,CuDef*
%ADD33RoundRect,0.250000X0.250000X-0.250000X0.250000X0.250000X-0.250000X0.250000X-0.250000X-0.250000X0*%
G04 #@! TD*
G04 #@! TA.AperFunction,SMDPad,CuDef*
%ADD34RoundRect,0.237500X-0.287500X-0.237500X0.287500X-0.237500X0.287500X0.237500X-0.287500X0.237500X0*%
G04 #@! TD*
G04 #@! TA.AperFunction,SMDPad,CuDef*
%ADD35RoundRect,0.250000X-0.250000X0.250000X-0.250000X-0.250000X0.250000X-0.250000X0.250000X0.250000X0*%
G04 #@! TD*
G04 #@! TA.AperFunction,SMDPad,CuDef*
%ADD36RoundRect,0.225000X-0.225000X-0.375000X0.225000X-0.375000X0.225000X0.375000X-0.225000X0.375000X0*%
G04 #@! TD*
G04 #@! TA.AperFunction,ViaPad*
%ADD37C,0.600000*%
G04 #@! TD*
G04 #@! TA.AperFunction,Conductor*
%ADD38C,0.200000*%
G04 #@! TD*
G04 APERTURE END LIST*
D10*
X187555500Y-76962000D03*
X189380500Y-76962000D03*
D11*
X182837000Y-78935000D03*
X186987000Y-78935000D03*
X182837000Y-81085000D03*
X186987000Y-81085000D03*
X194013000Y-78935000D03*
X198163000Y-78935000D03*
X194013000Y-81085000D03*
X198163000Y-81085000D03*
D12*
X188200000Y-90526000D03*
X190500000Y-90526000D03*
D13*
X190500000Y-84226000D03*
D12*
X192800000Y-90526000D03*
D14*
X185266500Y-90424000D03*
X183541500Y-90424000D03*
D15*
X194310000Y-99718500D03*
X194310000Y-97893500D03*
D14*
X185266500Y-88392000D03*
X183541500Y-88392000D03*
D16*
X181850000Y-54376000D03*
X181850000Y-55646000D03*
X181850000Y-56916000D03*
X181850000Y-58186000D03*
X181850000Y-59456000D03*
X181850000Y-60726000D03*
X181850000Y-61996000D03*
X181850000Y-63266000D03*
X181850000Y-64536000D03*
X181850000Y-65806000D03*
X181850000Y-67076000D03*
X181850000Y-68346000D03*
X181850000Y-69616000D03*
X181850000Y-70886000D03*
D17*
X183615000Y-72136000D03*
X184885000Y-72136000D03*
X186155000Y-72136000D03*
X187425000Y-72136000D03*
X188695000Y-72136000D03*
X189965000Y-72136000D03*
X191235000Y-72136000D03*
X192505000Y-72136000D03*
X193775000Y-72136000D03*
X195045000Y-72136000D03*
X196315000Y-72136000D03*
X197585000Y-72136000D03*
D16*
X199350000Y-70886000D03*
X199350000Y-69616000D03*
X199350000Y-68346000D03*
X199350000Y-67076000D03*
X199350000Y-65806000D03*
X199350000Y-64536000D03*
X199350000Y-63266000D03*
X199350000Y-61996000D03*
X199350000Y-60726000D03*
X199350000Y-59456000D03*
X199350000Y-58186000D03*
X199350000Y-56916000D03*
X199350000Y-55646000D03*
X199350000Y-54376000D03*
D18*
X187700000Y-61396000D03*
X187700000Y-62796000D03*
X188400000Y-60696000D03*
X188400000Y-62096000D03*
X188400000Y-63496000D03*
X189100000Y-61396000D03*
D19*
X189100000Y-62096000D03*
D18*
X189100000Y-62796000D03*
X189800000Y-60696000D03*
X189800000Y-62096000D03*
X189800000Y-63496000D03*
X190500000Y-61396000D03*
X190500000Y-62796000D03*
D10*
X195683500Y-86360000D03*
X197508500Y-86360000D03*
D20*
X181763500Y-102362000D03*
X183488500Y-102362000D03*
D21*
X176530000Y-54864000D03*
D22*
X176530000Y-57404000D03*
X176530000Y-59944000D03*
X176530000Y-62484000D03*
X176530000Y-65024000D03*
X176530000Y-67564000D03*
X176530000Y-70104000D03*
X176530000Y-72644000D03*
X176530000Y-75184000D03*
X176530000Y-77724000D03*
X176530000Y-80264000D03*
X176530000Y-82804000D03*
X176530000Y-85344000D03*
X176530000Y-87884000D03*
X176530000Y-90424000D03*
X176530000Y-92964000D03*
X176530000Y-95504000D03*
X176530000Y-98044000D03*
X176530000Y-100584000D03*
X176530000Y-103124000D03*
X176530000Y-105664000D03*
X176530000Y-108204000D03*
D14*
X199236500Y-104394000D03*
X197511500Y-104394000D03*
D23*
X191770000Y-78893500D03*
X191770000Y-80618500D03*
D24*
X193444500Y-76962000D03*
X191619500Y-76962000D03*
D25*
X186690000Y-97893500D03*
X186690000Y-99718500D03*
D21*
X204724000Y-54864000D03*
D22*
X204724000Y-57404000D03*
X204724000Y-59944000D03*
X204724000Y-62484000D03*
X204724000Y-65024000D03*
X204724000Y-67564000D03*
X204724000Y-70104000D03*
X204724000Y-72644000D03*
X204724000Y-75184000D03*
X204724000Y-77724000D03*
X204724000Y-80264000D03*
X204724000Y-82804000D03*
X204724000Y-85344000D03*
X204724000Y-87884000D03*
X204724000Y-90424000D03*
X204724000Y-92964000D03*
X204724000Y-95504000D03*
X204724000Y-98044000D03*
X204724000Y-100584000D03*
X204724000Y-103124000D03*
X204724000Y-105664000D03*
X204724000Y-108204000D03*
D14*
X199236500Y-102362000D03*
X197511500Y-102362000D03*
D20*
X181763500Y-104394000D03*
X183488500Y-104394000D03*
D26*
X187302200Y-102736400D03*
D27*
X188100000Y-102746000D03*
D28*
X189250000Y-102746000D03*
X190250000Y-102746000D03*
X190750000Y-102746000D03*
X191750000Y-102746000D03*
D27*
X192900000Y-102746000D03*
D29*
X193702600Y-102736400D03*
X193702600Y-102736400D03*
D27*
X192900000Y-102746000D03*
D28*
X192250000Y-102746000D03*
X191250000Y-102746000D03*
X189750000Y-102746000D03*
X188750000Y-102746000D03*
D27*
X188100000Y-102746000D03*
D26*
X187302200Y-102736400D03*
D30*
X186180000Y-103321000D03*
D31*
X186180000Y-107501000D03*
D30*
X194820000Y-103321000D03*
D31*
X194820000Y-107501000D03*
D23*
X197612000Y-94260500D03*
X197612000Y-95985500D03*
X189230000Y-78893500D03*
X189230000Y-80618500D03*
D32*
X188702000Y-94488000D03*
X186202000Y-94488000D03*
D33*
X191750000Y-100500000D03*
X191750000Y-98000000D03*
D34*
X195721000Y-88392000D03*
X197471000Y-88392000D03*
D24*
X185316500Y-86360000D03*
X183491500Y-86360000D03*
D35*
X189250000Y-98000000D03*
X189250000Y-100500000D03*
D36*
X191898000Y-94615000D03*
X195198000Y-94615000D03*
D37*
X180594000Y-54380000D03*
X188722000Y-92710000D03*
X203200000Y-54864000D03*
X190500000Y-80645000D03*
X197612000Y-97028000D03*
X184531000Y-104394000D03*
X192913000Y-78935000D03*
X178054000Y-108204000D03*
X200660000Y-54380000D03*
X189250000Y-97028000D03*
X188087000Y-78935000D03*
X197511500Y-106299000D03*
X191750000Y-97028000D03*
X182499000Y-90424000D03*
X195721000Y-89521000D03*
X199263000Y-81085000D03*
X182054500Y-81851500D03*
X199236500Y-106299000D03*
X186563000Y-76962000D03*
X194437000Y-76962000D03*
X180594000Y-55650000D03*
X182499000Y-86360000D03*
X200660000Y-59436000D03*
X200660000Y-58166000D03*
X189484000Y-101473000D03*
X183134000Y-69596000D03*
X183896000Y-70885998D03*
X191516000Y-101473000D03*
D38*
X188702000Y-92730000D02*
X188722000Y-92710000D01*
X194203500Y-98000000D02*
X194310000Y-97893500D01*
X190526500Y-80618500D02*
X191770000Y-80618500D01*
X194013000Y-78935000D02*
X198163000Y-78935000D01*
X190500000Y-80645000D02*
X190526500Y-80618500D01*
X197511500Y-102362000D02*
X197511500Y-104394000D01*
X180594000Y-54380000D02*
X181850000Y-54380000D01*
X182837000Y-78935000D02*
X186987000Y-78935000D01*
X191750000Y-97028000D02*
X191750000Y-98000000D01*
X191750000Y-98000000D02*
X194203500Y-98000000D01*
X188722000Y-92710000D02*
X188722000Y-91048000D01*
X193700000Y-102746000D02*
X194245000Y-102746000D01*
X190500000Y-80645000D02*
X190473500Y-80618500D01*
X188702000Y-94488000D02*
X188702000Y-92730000D01*
X186796500Y-98000000D02*
X186690000Y-97893500D01*
X197612000Y-95985500D02*
X197612000Y-97028000D01*
X190473500Y-80618500D02*
X189230000Y-80618500D01*
X204724000Y-54864000D02*
X203200000Y-54864000D01*
X187300000Y-102746000D02*
X186755000Y-102746000D01*
X200660000Y-54380000D02*
X199350000Y-54380000D01*
X194245000Y-102746000D02*
X194820000Y-103321000D01*
X189100000Y-60680000D02*
X189100000Y-62100000D01*
X183488500Y-102362000D02*
X183488500Y-104394000D01*
X195721000Y-89521000D02*
X195721000Y-88392000D01*
X188722000Y-91048000D02*
X188200000Y-90526000D01*
X189250000Y-98000000D02*
X186796500Y-98000000D01*
X176530000Y-108204000D02*
X178054000Y-108204000D01*
X182499000Y-90424000D02*
X183541500Y-90424000D01*
X191750000Y-98000000D02*
X189250000Y-98000000D01*
X188087000Y-78935000D02*
X186987000Y-78935000D01*
X186755000Y-102746000D02*
X186180000Y-103321000D01*
X192913000Y-78935000D02*
X194013000Y-78935000D01*
X183541500Y-88392000D02*
X183541500Y-90424000D01*
X184531000Y-104394000D02*
X183488500Y-104394000D01*
X189250000Y-97028000D02*
X189250000Y-98000000D01*
X197511500Y-106299000D02*
X197511500Y-104394000D01*
X185266500Y-98859000D02*
X185266500Y-90424000D01*
X181763500Y-102362000D02*
X185266500Y-98859000D01*
X185316500Y-90374000D02*
X185266500Y-90424000D01*
X190602000Y-84328000D02*
X190500000Y-84226000D01*
X190398000Y-84328000D02*
X190500000Y-84226000D01*
X185316500Y-86360000D02*
X185316500Y-90374000D01*
X185316500Y-86360000D02*
X187348500Y-84328000D01*
X190500000Y-90526000D02*
X190500000Y-84226000D01*
X195683500Y-86360000D02*
X193651500Y-84328000D01*
X181763500Y-102362000D02*
X181763500Y-104394000D01*
X187348500Y-84328000D02*
X190398000Y-84328000D01*
X193651500Y-84328000D02*
X190602000Y-84328000D01*
X202254000Y-85414000D02*
X204724000Y-87884000D01*
X200260000Y-75522744D02*
X202254000Y-77516744D01*
X191770000Y-78893500D02*
X191770000Y-77112500D01*
X191821500Y-78893500D02*
X194013000Y-81085000D01*
X194013000Y-81085000D02*
X198163000Y-81085000D01*
X202254000Y-77516744D02*
X202254000Y-85414000D01*
X199263000Y-81085000D02*
X198163000Y-81085000D01*
X191770000Y-77112500D02*
X191619500Y-76962000D01*
X199350000Y-70890000D02*
X200260000Y-71800000D01*
X200260000Y-71800000D02*
X200260000Y-75522744D01*
X191770000Y-78893500D02*
X191821500Y-78893500D01*
X178308000Y-59944000D02*
X176530000Y-59944000D01*
X182054500Y-81851500D02*
X182070500Y-81851500D01*
X182070500Y-81851500D02*
X182837000Y-81085000D01*
X189230000Y-77112500D02*
X189380500Y-76962000D01*
X189230000Y-78893500D02*
X189230000Y-77112500D01*
X181332000Y-56920000D02*
X178308000Y-59944000D01*
X189230000Y-78893500D02*
X189178500Y-78893500D01*
X181850000Y-56920000D02*
X181332000Y-56920000D01*
X189178500Y-78893500D02*
X186987000Y-81085000D01*
X186987000Y-81085000D02*
X182837000Y-81085000D01*
X192800000Y-90526000D02*
X193877500Y-90526000D01*
X192151000Y-94362000D02*
X192151000Y-92710000D01*
X193167000Y-90893000D02*
X192800000Y-90526000D01*
X197612000Y-94260500D02*
X199236500Y-95885000D01*
X192151000Y-92710000D02*
X192151000Y-91175000D01*
X199236500Y-106299000D02*
X199236500Y-104394000D01*
X193877500Y-90526000D02*
X197612000Y-94260500D01*
X199236500Y-104394000D02*
X199236500Y-102362000D01*
X199236500Y-95885000D02*
X199236500Y-102362000D01*
X191898000Y-94615000D02*
X192151000Y-94362000D01*
X192151000Y-91175000D02*
X192800000Y-90526000D01*
X197508500Y-88354500D02*
X197471000Y-88392000D01*
X197508500Y-86360000D02*
X197508500Y-88354500D01*
X192900000Y-103264000D02*
X192900000Y-102746000D01*
X188100000Y-103264000D02*
X188857000Y-104021000D01*
X192143000Y-104021000D02*
X192900000Y-103264000D01*
X185801000Y-100447000D02*
X187208000Y-101854000D01*
X185801000Y-94889000D02*
X185801000Y-100447000D01*
X193217001Y-101854000D02*
X192900000Y-102171001D01*
X193792000Y-101854000D02*
X193217001Y-101854000D01*
X187706000Y-101854000D02*
X188100000Y-102248000D01*
X195199000Y-94235000D02*
X195199000Y-100447000D01*
X188100000Y-102248000D02*
X188100000Y-102746000D01*
X186202000Y-94488000D02*
X185801000Y-94889000D01*
X187208000Y-101854000D02*
X187706000Y-101854000D01*
X188857000Y-104021000D02*
X192143000Y-104021000D01*
X195198000Y-94234000D02*
X195199000Y-94235000D01*
X188100000Y-102746000D02*
X188100000Y-103264000D01*
X192900000Y-102171001D02*
X192900000Y-102746000D01*
X195199000Y-100447000D02*
X193792000Y-101854000D01*
X186829910Y-99718500D02*
X189250000Y-102138590D01*
X186690000Y-99718500D02*
X186829910Y-99718500D01*
X189250000Y-102138590D02*
X189250000Y-102746000D01*
X194310000Y-99718500D02*
X194310000Y-100076000D01*
X192250000Y-102136000D02*
X192250000Y-102746000D01*
X194310000Y-100076000D02*
X192250000Y-102136000D01*
X181368000Y-68350000D02*
X180600000Y-69118000D01*
X178200000Y-81134000D02*
X176530000Y-82804000D01*
X180600000Y-69118000D02*
X180600000Y-74785372D01*
X180600000Y-74785372D02*
X178200000Y-77185372D01*
X181850000Y-68350000D02*
X181368000Y-68350000D01*
X178200000Y-77185372D02*
X178200000Y-81134000D01*
X184885000Y-72140000D02*
X184885000Y-72670000D01*
X179000000Y-85414000D02*
X176530000Y-87884000D01*
X184365000Y-73190000D02*
X183326744Y-73190000D01*
X184885000Y-72670000D02*
X184365000Y-73190000D01*
X179000000Y-77516744D02*
X179000000Y-85414000D01*
X183326744Y-73190000D02*
X179000000Y-77516744D01*
X186155000Y-72140000D02*
X186155000Y-72670000D01*
X186155000Y-72670000D02*
X185235000Y-73590000D01*
X183492430Y-73590000D02*
X179400000Y-77682430D01*
X179400000Y-77682430D02*
X179400000Y-87554000D01*
X185235000Y-73590000D02*
X183492430Y-73590000D01*
X179400000Y-87554000D02*
X176530000Y-90424000D01*
X179400000Y-72314000D02*
X176530000Y-75184000D01*
X181332000Y-64540000D02*
X179400000Y-66472000D01*
X181850000Y-64540000D02*
X181332000Y-64540000D01*
X179400000Y-66472000D02*
X179400000Y-72314000D01*
X179800000Y-74454000D02*
X176530000Y-77724000D01*
X179800000Y-66910000D02*
X179800000Y-74454000D01*
X181850000Y-65810000D02*
X180900000Y-65810000D01*
X180900000Y-65810000D02*
X179800000Y-66910000D01*
X181850000Y-67080000D02*
X180900000Y-67080000D01*
X180200000Y-67780000D02*
X180200000Y-74619686D01*
X177800000Y-78994000D02*
X176530000Y-80264000D01*
X177800000Y-77019686D02*
X177800000Y-78994000D01*
X180900000Y-67080000D02*
X180200000Y-67780000D01*
X180200000Y-74619686D02*
X177800000Y-77019686D01*
X179000000Y-70174000D02*
X176530000Y-72644000D01*
X179000000Y-65602000D02*
X179000000Y-70174000D01*
X181332000Y-63270000D02*
X179000000Y-65602000D01*
X181850000Y-63270000D02*
X181332000Y-63270000D01*
X183658116Y-73990000D02*
X179800000Y-77848116D01*
X179800000Y-89694000D02*
X176530000Y-92964000D01*
X187425000Y-72140000D02*
X187425000Y-72670000D01*
X179800000Y-77848116D02*
X179800000Y-89694000D01*
X187425000Y-72670000D02*
X186105000Y-73990000D01*
X186105000Y-73990000D02*
X183658116Y-73990000D01*
X183823802Y-74390000D02*
X180200000Y-78013802D01*
X186975000Y-74390000D02*
X183823802Y-74390000D01*
X180200000Y-78013802D02*
X180200000Y-91834000D01*
X180200000Y-91834000D02*
X176530000Y-95504000D01*
X188695000Y-72140000D02*
X188695000Y-72670000D01*
X188695000Y-72670000D02*
X186975000Y-74390000D01*
X183615000Y-72336058D02*
X178600000Y-77351058D01*
X178600000Y-77351058D02*
X178600000Y-83274000D01*
X178600000Y-83274000D02*
X176530000Y-85344000D01*
X183615000Y-72140000D02*
X183615000Y-72336058D01*
X181850000Y-58190000D02*
X181332000Y-58190000D01*
X181332000Y-58190000D02*
X177038000Y-62484000D01*
X177038000Y-62484000D02*
X176530000Y-62484000D01*
X178600000Y-68034000D02*
X176530000Y-70104000D01*
X178600000Y-64732000D02*
X178600000Y-68034000D01*
X181332000Y-62000000D02*
X178600000Y-64732000D01*
X181850000Y-62000000D02*
X181332000Y-62000000D01*
X181320000Y-60730000D02*
X178200000Y-63850000D01*
X178200000Y-65894000D02*
X176530000Y-67564000D01*
X181850000Y-60730000D02*
X181320000Y-60730000D01*
X178200000Y-63850000D02*
X178200000Y-65894000D01*
X187555500Y-76962000D02*
X186563000Y-76962000D01*
X182499000Y-86360000D02*
X183491500Y-86360000D01*
X180594000Y-55650000D02*
X181850000Y-55650000D01*
X193444500Y-76962000D02*
X194437000Y-76962000D01*
X191235000Y-72670000D02*
X188715000Y-75190000D01*
X184155174Y-75190000D02*
X181000000Y-78345174D01*
X191235000Y-72140000D02*
X191235000Y-72670000D01*
X181000000Y-96114000D02*
X176530000Y-100584000D01*
X181000000Y-78345174D02*
X181000000Y-96114000D01*
X188715000Y-75190000D02*
X184155174Y-75190000D01*
X189965000Y-72670000D02*
X187845000Y-74790000D01*
X187845000Y-74790000D02*
X183989488Y-74790000D01*
X183989488Y-74790000D02*
X180600000Y-78179488D01*
X180600000Y-93974000D02*
X176530000Y-98044000D01*
X189965000Y-72140000D02*
X189965000Y-72670000D01*
X180600000Y-78179488D02*
X180600000Y-93974000D01*
X192505000Y-72140000D02*
X192505000Y-72670000D01*
X192505000Y-72670000D02*
X189585000Y-75590000D01*
X181400000Y-78510860D02*
X181400000Y-98254000D01*
X181400000Y-98254000D02*
X176530000Y-103124000D01*
X184320860Y-75590000D02*
X181400000Y-78510860D01*
X189585000Y-75590000D02*
X184320860Y-75590000D01*
X181320000Y-59460000D02*
X177800000Y-62980000D01*
X181850000Y-59460000D02*
X181320000Y-59460000D01*
X177800000Y-63754000D02*
X176530000Y-65024000D01*
X177800000Y-62980000D02*
X177800000Y-63754000D01*
X199350000Y-60730000D02*
X199922000Y-60730000D01*
X199922000Y-60730000D02*
X203460000Y-64268000D01*
X203460000Y-66300000D02*
X204724000Y-67564000D01*
X203460000Y-64268000D02*
X203460000Y-66300000D01*
X203060000Y-65138000D02*
X203060000Y-68440000D01*
X199350000Y-62000000D02*
X199922000Y-62000000D01*
X199922000Y-62000000D02*
X203060000Y-65138000D01*
X203060000Y-68440000D02*
X204724000Y-70104000D01*
X199350000Y-68350000D02*
X199922000Y-68350000D01*
X203054000Y-81134000D02*
X204724000Y-82804000D01*
X201060000Y-75191372D02*
X203054000Y-77185372D01*
X203054000Y-77185372D02*
X203054000Y-81134000D01*
X199922000Y-68350000D02*
X201060000Y-69488000D01*
X201060000Y-69488000D02*
X201060000Y-75191372D01*
X200636000Y-59460000D02*
X200660000Y-59436000D01*
X199350000Y-59460000D02*
X200636000Y-59460000D01*
X201854000Y-87554000D02*
X204724000Y-90424000D01*
X197585000Y-73413430D02*
X201854000Y-77682430D01*
X201854000Y-77682430D02*
X201854000Y-87554000D01*
X197585000Y-72140000D02*
X197585000Y-73413430D01*
X199350000Y-63270000D02*
X199922000Y-63270000D01*
X199922000Y-63270000D02*
X202660000Y-66008000D01*
X202660000Y-70580000D02*
X204724000Y-72644000D01*
X202660000Y-66008000D02*
X202660000Y-70580000D01*
X196315000Y-72140000D02*
X196315000Y-72709116D01*
X201454000Y-89694000D02*
X204724000Y-92964000D01*
X196315000Y-72709116D02*
X201454000Y-77848116D01*
X201454000Y-77848116D02*
X201454000Y-89694000D01*
X202654000Y-77351058D02*
X202654000Y-83274000D01*
X199922000Y-69620000D02*
X200660000Y-70358000D01*
X200660000Y-75357058D02*
X202654000Y-77351058D01*
X200660000Y-70358000D02*
X200660000Y-75357058D01*
X199350000Y-69620000D02*
X199922000Y-69620000D01*
X202654000Y-83274000D02*
X204724000Y-85344000D01*
X199922000Y-55650000D02*
X203454000Y-59182000D01*
X203454000Y-59182000D02*
X203454000Y-61214000D01*
X203454000Y-61214000D02*
X204724000Y-62484000D01*
X199350000Y-55650000D02*
X199922000Y-55650000D01*
X203454000Y-78994000D02*
X204724000Y-80264000D01*
X203454000Y-77019686D02*
X203454000Y-78994000D01*
X201460000Y-68660000D02*
X201460000Y-75025686D01*
X199350000Y-67080000D02*
X199880000Y-67080000D01*
X201460000Y-75025686D02*
X203454000Y-77019686D01*
X199880000Y-67080000D02*
X201460000Y-68660000D01*
X201860000Y-74860000D02*
X204724000Y-77724000D01*
X201860000Y-67790000D02*
X201860000Y-74860000D01*
X199880000Y-65810000D02*
X201860000Y-67790000D01*
X199350000Y-65810000D02*
X199880000Y-65810000D01*
X200636000Y-58190000D02*
X199350000Y-58190000D01*
X200660000Y-58166000D02*
X200636000Y-58190000D01*
X202260000Y-66878000D02*
X202260000Y-72720000D01*
X202260000Y-72720000D02*
X204724000Y-75184000D01*
X199922000Y-64540000D02*
X202260000Y-66878000D01*
X199350000Y-64540000D02*
X199922000Y-64540000D01*
X204724000Y-64966314D02*
X204724000Y-65024000D01*
X200626314Y-56920000D02*
X203054000Y-59347686D01*
X203054000Y-63296314D02*
X204724000Y-64966314D01*
X203054000Y-59347686D02*
X203054000Y-63296314D01*
X199350000Y-56920000D02*
X200626314Y-56920000D01*
X193775000Y-72670000D02*
X194695000Y-73590000D01*
X200654000Y-78179488D02*
X200654000Y-93974000D01*
X193775000Y-72140000D02*
X193775000Y-72670000D01*
X194695000Y-73590000D02*
X196064512Y-73590000D01*
X200654000Y-93974000D02*
X204724000Y-98044000D01*
X196064512Y-73590000D02*
X200654000Y-78179488D01*
X201054000Y-78013802D02*
X201054000Y-91834000D01*
X195045000Y-72670000D02*
X195565000Y-73190000D01*
X195045000Y-72140000D02*
X195045000Y-72670000D01*
X201054000Y-91834000D02*
X204724000Y-95504000D01*
X196230198Y-73190000D02*
X201054000Y-78013802D01*
X195565000Y-73190000D02*
X196230198Y-73190000D01*
X189750000Y-102746000D02*
X189750000Y-103390000D01*
X183110000Y-69620000D02*
X183134000Y-69596000D01*
X181850000Y-69620000D02*
X183110000Y-69620000D01*
X189250000Y-101239000D02*
X189484000Y-101473000D01*
X189250000Y-100500000D02*
X189250000Y-101239000D01*
X189750000Y-101739000D02*
X189484000Y-101473000D01*
X189981000Y-103621000D02*
X190511000Y-103621000D01*
X189750000Y-102746000D02*
X189750000Y-101739000D01*
X190511000Y-103621000D02*
X190750000Y-103382000D01*
X189750000Y-103390000D02*
X189981000Y-103621000D01*
X190750000Y-103382000D02*
X190750000Y-102746000D01*
X190250000Y-102104000D02*
X190483000Y-101871000D01*
X190483000Y-101871000D02*
X190982410Y-101871000D01*
X191750000Y-100500000D02*
X191750000Y-101239000D01*
X191250000Y-102746000D02*
X191250000Y-101739000D01*
X191250000Y-102138590D02*
X191250000Y-102746000D01*
X183891998Y-70890000D02*
X181850000Y-70890000D01*
X191250000Y-101739000D02*
X191516000Y-101473000D01*
X190982410Y-101871000D02*
X191250000Y-102138590D01*
X191750000Y-101239000D02*
X191516000Y-101473000D01*
X190250000Y-102746000D02*
X190250000Y-102104000D01*
X183896000Y-70885998D02*
X183891998Y-70890000D01*
M02*
