%TF.GenerationSoftware,KiCad,Pcbnew,8.0.3*%
%TF.CreationDate,2024-06-27T11:15:38-04:00*%
%TF.ProjectId,ESP32-S3-DevBoard,45535033-322d-4533-932d-446576426f61,rev?*%
%TF.SameCoordinates,Original*%
%TF.FileFunction,Drillmap*%
%TF.FilePolarity,Positive*%
%FSLAX45Y45*%
G04 Gerber Fmt 4.5, Leading zero omitted, Abs format (unit mm)*
G04 Created by KiCad (PCBNEW 8.0.3) date 2024-06-27 11:15:38*
%MOMM*%
%LPD*%
G01*
G04 APERTURE LIST*
%ADD10C,0.050000*%
%ADD11C,0.200000*%
%ADD12C,0.100000*%
G04 APERTURE END LIST*
D10*
X17462500Y-5295900D02*
X20662900Y-5295900D01*
X20662900Y-11010900D01*
X17462500Y-11010900D01*
X17462500Y-5295900D01*
D11*
D12*
X18728500Y-10349600D02*
X18793500Y-10414600D01*
X18793500Y-10349600D02*
X18728500Y-10414600D01*
X19306500Y-10349600D02*
X19371500Y-10414600D01*
X19371500Y-10349600D02*
X19306500Y-10414600D01*
D11*
X17720777Y-11324884D02*
X17720777Y-11124884D01*
X17720777Y-11124884D02*
X17768396Y-11124884D01*
X17768396Y-11124884D02*
X17796967Y-11134408D01*
X17796967Y-11134408D02*
X17816015Y-11153455D01*
X17816015Y-11153455D02*
X17825539Y-11172503D01*
X17825539Y-11172503D02*
X17835063Y-11210598D01*
X17835063Y-11210598D02*
X17835063Y-11239169D01*
X17835063Y-11239169D02*
X17825539Y-11277265D01*
X17825539Y-11277265D02*
X17816015Y-11296312D01*
X17816015Y-11296312D02*
X17796967Y-11315360D01*
X17796967Y-11315360D02*
X17768396Y-11324884D01*
X17768396Y-11324884D02*
X17720777Y-11324884D01*
X17920777Y-11324884D02*
X17920777Y-11191550D01*
X17920777Y-11229646D02*
X17930301Y-11210598D01*
X17930301Y-11210598D02*
X17939824Y-11201074D01*
X17939824Y-11201074D02*
X17958872Y-11191550D01*
X17958872Y-11191550D02*
X17977920Y-11191550D01*
X18044586Y-11324884D02*
X18044586Y-11191550D01*
X18044586Y-11124884D02*
X18035063Y-11134408D01*
X18035063Y-11134408D02*
X18044586Y-11143931D01*
X18044586Y-11143931D02*
X18054110Y-11134408D01*
X18054110Y-11134408D02*
X18044586Y-11124884D01*
X18044586Y-11124884D02*
X18044586Y-11143931D01*
X18168396Y-11324884D02*
X18149348Y-11315360D01*
X18149348Y-11315360D02*
X18139824Y-11296312D01*
X18139824Y-11296312D02*
X18139824Y-11124884D01*
X18273158Y-11324884D02*
X18254110Y-11315360D01*
X18254110Y-11315360D02*
X18244586Y-11296312D01*
X18244586Y-11296312D02*
X18244586Y-11124884D01*
X18501729Y-11324884D02*
X18501729Y-11124884D01*
X18501729Y-11124884D02*
X18568396Y-11267741D01*
X18568396Y-11267741D02*
X18635063Y-11124884D01*
X18635063Y-11124884D02*
X18635063Y-11324884D01*
X18816015Y-11324884D02*
X18816015Y-11220122D01*
X18816015Y-11220122D02*
X18806491Y-11201074D01*
X18806491Y-11201074D02*
X18787444Y-11191550D01*
X18787444Y-11191550D02*
X18749348Y-11191550D01*
X18749348Y-11191550D02*
X18730301Y-11201074D01*
X18816015Y-11315360D02*
X18796967Y-11324884D01*
X18796967Y-11324884D02*
X18749348Y-11324884D01*
X18749348Y-11324884D02*
X18730301Y-11315360D01*
X18730301Y-11315360D02*
X18720777Y-11296312D01*
X18720777Y-11296312D02*
X18720777Y-11277265D01*
X18720777Y-11277265D02*
X18730301Y-11258217D01*
X18730301Y-11258217D02*
X18749348Y-11248693D01*
X18749348Y-11248693D02*
X18796967Y-11248693D01*
X18796967Y-11248693D02*
X18816015Y-11239169D01*
X18911253Y-11191550D02*
X18911253Y-11391550D01*
X18911253Y-11201074D02*
X18930301Y-11191550D01*
X18930301Y-11191550D02*
X18968396Y-11191550D01*
X18968396Y-11191550D02*
X18987444Y-11201074D01*
X18987444Y-11201074D02*
X18996967Y-11210598D01*
X18996967Y-11210598D02*
X19006491Y-11229646D01*
X19006491Y-11229646D02*
X19006491Y-11286788D01*
X19006491Y-11286788D02*
X18996967Y-11305836D01*
X18996967Y-11305836D02*
X18987444Y-11315360D01*
X18987444Y-11315360D02*
X18968396Y-11324884D01*
X18968396Y-11324884D02*
X18930301Y-11324884D01*
X18930301Y-11324884D02*
X18911253Y-11315360D01*
X19092205Y-11305836D02*
X19101729Y-11315360D01*
X19101729Y-11315360D02*
X19092205Y-11324884D01*
X19092205Y-11324884D02*
X19082682Y-11315360D01*
X19082682Y-11315360D02*
X19092205Y-11305836D01*
X19092205Y-11305836D02*
X19092205Y-11324884D01*
X19092205Y-11201074D02*
X19101729Y-11210598D01*
X19101729Y-11210598D02*
X19092205Y-11220122D01*
X19092205Y-11220122D02*
X19082682Y-11210598D01*
X19082682Y-11210598D02*
X19092205Y-11201074D01*
X19092205Y-11201074D02*
X19092205Y-11220122D01*
D12*
X17395000Y-11620900D02*
X17460000Y-11685900D01*
X17460000Y-11620900D02*
X17395000Y-11685900D01*
D11*
X17758872Y-11544884D02*
X17777920Y-11544884D01*
X17777920Y-11544884D02*
X17796967Y-11554408D01*
X17796967Y-11554408D02*
X17806491Y-11563931D01*
X17806491Y-11563931D02*
X17816015Y-11582979D01*
X17816015Y-11582979D02*
X17825539Y-11621074D01*
X17825539Y-11621074D02*
X17825539Y-11668693D01*
X17825539Y-11668693D02*
X17816015Y-11706788D01*
X17816015Y-11706788D02*
X17806491Y-11725836D01*
X17806491Y-11725836D02*
X17796967Y-11735360D01*
X17796967Y-11735360D02*
X17777920Y-11744884D01*
X17777920Y-11744884D02*
X17758872Y-11744884D01*
X17758872Y-11744884D02*
X17739824Y-11735360D01*
X17739824Y-11735360D02*
X17730301Y-11725836D01*
X17730301Y-11725836D02*
X17720777Y-11706788D01*
X17720777Y-11706788D02*
X17711253Y-11668693D01*
X17711253Y-11668693D02*
X17711253Y-11621074D01*
X17711253Y-11621074D02*
X17720777Y-11582979D01*
X17720777Y-11582979D02*
X17730301Y-11563931D01*
X17730301Y-11563931D02*
X17739824Y-11554408D01*
X17739824Y-11554408D02*
X17758872Y-11544884D01*
X17911253Y-11725836D02*
X17920777Y-11735360D01*
X17920777Y-11735360D02*
X17911253Y-11744884D01*
X17911253Y-11744884D02*
X17901729Y-11735360D01*
X17901729Y-11735360D02*
X17911253Y-11725836D01*
X17911253Y-11725836D02*
X17911253Y-11744884D01*
X18092205Y-11544884D02*
X18054110Y-11544884D01*
X18054110Y-11544884D02*
X18035063Y-11554408D01*
X18035063Y-11554408D02*
X18025539Y-11563931D01*
X18025539Y-11563931D02*
X18006491Y-11592503D01*
X18006491Y-11592503D02*
X17996967Y-11630598D01*
X17996967Y-11630598D02*
X17996967Y-11706788D01*
X17996967Y-11706788D02*
X18006491Y-11725836D01*
X18006491Y-11725836D02*
X18016015Y-11735360D01*
X18016015Y-11735360D02*
X18035063Y-11744884D01*
X18035063Y-11744884D02*
X18073158Y-11744884D01*
X18073158Y-11744884D02*
X18092205Y-11735360D01*
X18092205Y-11735360D02*
X18101729Y-11725836D01*
X18101729Y-11725836D02*
X18111253Y-11706788D01*
X18111253Y-11706788D02*
X18111253Y-11659169D01*
X18111253Y-11659169D02*
X18101729Y-11640122D01*
X18101729Y-11640122D02*
X18092205Y-11630598D01*
X18092205Y-11630598D02*
X18073158Y-11621074D01*
X18073158Y-11621074D02*
X18035063Y-11621074D01*
X18035063Y-11621074D02*
X18016015Y-11630598D01*
X18016015Y-11630598D02*
X18006491Y-11640122D01*
X18006491Y-11640122D02*
X17996967Y-11659169D01*
X18292205Y-11544884D02*
X18196967Y-11544884D01*
X18196967Y-11544884D02*
X18187444Y-11640122D01*
X18187444Y-11640122D02*
X18196967Y-11630598D01*
X18196967Y-11630598D02*
X18216015Y-11621074D01*
X18216015Y-11621074D02*
X18263634Y-11621074D01*
X18263634Y-11621074D02*
X18282682Y-11630598D01*
X18282682Y-11630598D02*
X18292205Y-11640122D01*
X18292205Y-11640122D02*
X18301729Y-11659169D01*
X18301729Y-11659169D02*
X18301729Y-11706788D01*
X18301729Y-11706788D02*
X18292205Y-11725836D01*
X18292205Y-11725836D02*
X18282682Y-11735360D01*
X18282682Y-11735360D02*
X18263634Y-11744884D01*
X18263634Y-11744884D02*
X18216015Y-11744884D01*
X18216015Y-11744884D02*
X18196967Y-11735360D01*
X18196967Y-11735360D02*
X18187444Y-11725836D01*
X18425539Y-11544884D02*
X18444586Y-11544884D01*
X18444586Y-11544884D02*
X18463634Y-11554408D01*
X18463634Y-11554408D02*
X18473158Y-11563931D01*
X18473158Y-11563931D02*
X18482682Y-11582979D01*
X18482682Y-11582979D02*
X18492205Y-11621074D01*
X18492205Y-11621074D02*
X18492205Y-11668693D01*
X18492205Y-11668693D02*
X18482682Y-11706788D01*
X18482682Y-11706788D02*
X18473158Y-11725836D01*
X18473158Y-11725836D02*
X18463634Y-11735360D01*
X18463634Y-11735360D02*
X18444586Y-11744884D01*
X18444586Y-11744884D02*
X18425539Y-11744884D01*
X18425539Y-11744884D02*
X18406491Y-11735360D01*
X18406491Y-11735360D02*
X18396967Y-11725836D01*
X18396967Y-11725836D02*
X18387444Y-11706788D01*
X18387444Y-11706788D02*
X18377920Y-11668693D01*
X18377920Y-11668693D02*
X18377920Y-11621074D01*
X18377920Y-11621074D02*
X18387444Y-11582979D01*
X18387444Y-11582979D02*
X18396967Y-11563931D01*
X18396967Y-11563931D02*
X18406491Y-11554408D01*
X18406491Y-11554408D02*
X18425539Y-11544884D01*
X18577920Y-11744884D02*
X18577920Y-11611550D01*
X18577920Y-11630598D02*
X18587444Y-11621074D01*
X18587444Y-11621074D02*
X18606491Y-11611550D01*
X18606491Y-11611550D02*
X18635063Y-11611550D01*
X18635063Y-11611550D02*
X18654110Y-11621074D01*
X18654110Y-11621074D02*
X18663634Y-11640122D01*
X18663634Y-11640122D02*
X18663634Y-11744884D01*
X18663634Y-11640122D02*
X18673158Y-11621074D01*
X18673158Y-11621074D02*
X18692205Y-11611550D01*
X18692205Y-11611550D02*
X18720777Y-11611550D01*
X18720777Y-11611550D02*
X18739825Y-11621074D01*
X18739825Y-11621074D02*
X18749348Y-11640122D01*
X18749348Y-11640122D02*
X18749348Y-11744884D01*
X18844586Y-11744884D02*
X18844586Y-11611550D01*
X18844586Y-11630598D02*
X18854110Y-11621074D01*
X18854110Y-11621074D02*
X18873158Y-11611550D01*
X18873158Y-11611550D02*
X18901729Y-11611550D01*
X18901729Y-11611550D02*
X18920777Y-11621074D01*
X18920777Y-11621074D02*
X18930301Y-11640122D01*
X18930301Y-11640122D02*
X18930301Y-11744884D01*
X18930301Y-11640122D02*
X18939825Y-11621074D01*
X18939825Y-11621074D02*
X18958872Y-11611550D01*
X18958872Y-11611550D02*
X18987444Y-11611550D01*
X18987444Y-11611550D02*
X19006491Y-11621074D01*
X19006491Y-11621074D02*
X19016015Y-11640122D01*
X19016015Y-11640122D02*
X19016015Y-11744884D01*
X19406491Y-11535360D02*
X19235063Y-11792503D01*
X19663634Y-11544884D02*
X19682682Y-11544884D01*
X19682682Y-11544884D02*
X19701729Y-11554408D01*
X19701729Y-11554408D02*
X19711253Y-11563931D01*
X19711253Y-11563931D02*
X19720777Y-11582979D01*
X19720777Y-11582979D02*
X19730301Y-11621074D01*
X19730301Y-11621074D02*
X19730301Y-11668693D01*
X19730301Y-11668693D02*
X19720777Y-11706788D01*
X19720777Y-11706788D02*
X19711253Y-11725836D01*
X19711253Y-11725836D02*
X19701729Y-11735360D01*
X19701729Y-11735360D02*
X19682682Y-11744884D01*
X19682682Y-11744884D02*
X19663634Y-11744884D01*
X19663634Y-11744884D02*
X19644587Y-11735360D01*
X19644587Y-11735360D02*
X19635063Y-11725836D01*
X19635063Y-11725836D02*
X19625539Y-11706788D01*
X19625539Y-11706788D02*
X19616015Y-11668693D01*
X19616015Y-11668693D02*
X19616015Y-11621074D01*
X19616015Y-11621074D02*
X19625539Y-11582979D01*
X19625539Y-11582979D02*
X19635063Y-11563931D01*
X19635063Y-11563931D02*
X19644587Y-11554408D01*
X19644587Y-11554408D02*
X19663634Y-11544884D01*
X19816015Y-11725836D02*
X19825539Y-11735360D01*
X19825539Y-11735360D02*
X19816015Y-11744884D01*
X19816015Y-11744884D02*
X19806491Y-11735360D01*
X19806491Y-11735360D02*
X19816015Y-11725836D01*
X19816015Y-11725836D02*
X19816015Y-11744884D01*
X19949348Y-11544884D02*
X19968396Y-11544884D01*
X19968396Y-11544884D02*
X19987444Y-11554408D01*
X19987444Y-11554408D02*
X19996968Y-11563931D01*
X19996968Y-11563931D02*
X20006491Y-11582979D01*
X20006491Y-11582979D02*
X20016015Y-11621074D01*
X20016015Y-11621074D02*
X20016015Y-11668693D01*
X20016015Y-11668693D02*
X20006491Y-11706788D01*
X20006491Y-11706788D02*
X19996968Y-11725836D01*
X19996968Y-11725836D02*
X19987444Y-11735360D01*
X19987444Y-11735360D02*
X19968396Y-11744884D01*
X19968396Y-11744884D02*
X19949348Y-11744884D01*
X19949348Y-11744884D02*
X19930301Y-11735360D01*
X19930301Y-11735360D02*
X19920777Y-11725836D01*
X19920777Y-11725836D02*
X19911253Y-11706788D01*
X19911253Y-11706788D02*
X19901729Y-11668693D01*
X19901729Y-11668693D02*
X19901729Y-11621074D01*
X19901729Y-11621074D02*
X19911253Y-11582979D01*
X19911253Y-11582979D02*
X19920777Y-11563931D01*
X19920777Y-11563931D02*
X19930301Y-11554408D01*
X19930301Y-11554408D02*
X19949348Y-11544884D01*
X20092206Y-11563931D02*
X20101729Y-11554408D01*
X20101729Y-11554408D02*
X20120777Y-11544884D01*
X20120777Y-11544884D02*
X20168396Y-11544884D01*
X20168396Y-11544884D02*
X20187444Y-11554408D01*
X20187444Y-11554408D02*
X20196968Y-11563931D01*
X20196968Y-11563931D02*
X20206491Y-11582979D01*
X20206491Y-11582979D02*
X20206491Y-11602027D01*
X20206491Y-11602027D02*
X20196968Y-11630598D01*
X20196968Y-11630598D02*
X20082682Y-11744884D01*
X20082682Y-11744884D02*
X20206491Y-11744884D01*
X20387444Y-11544884D02*
X20292206Y-11544884D01*
X20292206Y-11544884D02*
X20282682Y-11640122D01*
X20282682Y-11640122D02*
X20292206Y-11630598D01*
X20292206Y-11630598D02*
X20311253Y-11621074D01*
X20311253Y-11621074D02*
X20358872Y-11621074D01*
X20358872Y-11621074D02*
X20377920Y-11630598D01*
X20377920Y-11630598D02*
X20387444Y-11640122D01*
X20387444Y-11640122D02*
X20396968Y-11659169D01*
X20396968Y-11659169D02*
X20396968Y-11706788D01*
X20396968Y-11706788D02*
X20387444Y-11725836D01*
X20387444Y-11725836D02*
X20377920Y-11735360D01*
X20377920Y-11735360D02*
X20358872Y-11744884D01*
X20358872Y-11744884D02*
X20311253Y-11744884D01*
X20311253Y-11744884D02*
X20292206Y-11735360D01*
X20292206Y-11735360D02*
X20282682Y-11725836D01*
X20568396Y-11544884D02*
X20530301Y-11544884D01*
X20530301Y-11544884D02*
X20511253Y-11554408D01*
X20511253Y-11554408D02*
X20501729Y-11563931D01*
X20501729Y-11563931D02*
X20482682Y-11592503D01*
X20482682Y-11592503D02*
X20473158Y-11630598D01*
X20473158Y-11630598D02*
X20473158Y-11706788D01*
X20473158Y-11706788D02*
X20482682Y-11725836D01*
X20482682Y-11725836D02*
X20492206Y-11735360D01*
X20492206Y-11735360D02*
X20511253Y-11744884D01*
X20511253Y-11744884D02*
X20549349Y-11744884D01*
X20549349Y-11744884D02*
X20568396Y-11735360D01*
X20568396Y-11735360D02*
X20577920Y-11725836D01*
X20577920Y-11725836D02*
X20587444Y-11706788D01*
X20587444Y-11706788D02*
X20587444Y-11659169D01*
X20587444Y-11659169D02*
X20577920Y-11640122D01*
X20577920Y-11640122D02*
X20568396Y-11630598D01*
X20568396Y-11630598D02*
X20549349Y-11621074D01*
X20549349Y-11621074D02*
X20511253Y-11621074D01*
X20511253Y-11621074D02*
X20492206Y-11630598D01*
X20492206Y-11630598D02*
X20482682Y-11640122D01*
X20482682Y-11640122D02*
X20473158Y-11659169D01*
X20663634Y-11544884D02*
X20663634Y-11582979D01*
X20739825Y-11544884D02*
X20739825Y-11582979D01*
X21035063Y-11821074D02*
X21025539Y-11811550D01*
X21025539Y-11811550D02*
X21006491Y-11782979D01*
X21006491Y-11782979D02*
X20996968Y-11763931D01*
X20996968Y-11763931D02*
X20987444Y-11735360D01*
X20987444Y-11735360D02*
X20977920Y-11687741D01*
X20977920Y-11687741D02*
X20977920Y-11649646D01*
X20977920Y-11649646D02*
X20987444Y-11602027D01*
X20987444Y-11602027D02*
X20996968Y-11573455D01*
X20996968Y-11573455D02*
X21006491Y-11554408D01*
X21006491Y-11554408D02*
X21025539Y-11525836D01*
X21025539Y-11525836D02*
X21035063Y-11516312D01*
X21101730Y-11563931D02*
X21111253Y-11554408D01*
X21111253Y-11554408D02*
X21130301Y-11544884D01*
X21130301Y-11544884D02*
X21177920Y-11544884D01*
X21177920Y-11544884D02*
X21196968Y-11554408D01*
X21196968Y-11554408D02*
X21206491Y-11563931D01*
X21206491Y-11563931D02*
X21216015Y-11582979D01*
X21216015Y-11582979D02*
X21216015Y-11602027D01*
X21216015Y-11602027D02*
X21206491Y-11630598D01*
X21206491Y-11630598D02*
X21092206Y-11744884D01*
X21092206Y-11744884D02*
X21216015Y-11744884D01*
X21454111Y-11744884D02*
X21454111Y-11544884D01*
X21539825Y-11744884D02*
X21539825Y-11640122D01*
X21539825Y-11640122D02*
X21530301Y-11621074D01*
X21530301Y-11621074D02*
X21511253Y-11611550D01*
X21511253Y-11611550D02*
X21482682Y-11611550D01*
X21482682Y-11611550D02*
X21463634Y-11621074D01*
X21463634Y-11621074D02*
X21454111Y-11630598D01*
X21663634Y-11744884D02*
X21644587Y-11735360D01*
X21644587Y-11735360D02*
X21635063Y-11725836D01*
X21635063Y-11725836D02*
X21625539Y-11706788D01*
X21625539Y-11706788D02*
X21625539Y-11649646D01*
X21625539Y-11649646D02*
X21635063Y-11630598D01*
X21635063Y-11630598D02*
X21644587Y-11621074D01*
X21644587Y-11621074D02*
X21663634Y-11611550D01*
X21663634Y-11611550D02*
X21692206Y-11611550D01*
X21692206Y-11611550D02*
X21711253Y-11621074D01*
X21711253Y-11621074D02*
X21720777Y-11630598D01*
X21720777Y-11630598D02*
X21730301Y-11649646D01*
X21730301Y-11649646D02*
X21730301Y-11706788D01*
X21730301Y-11706788D02*
X21720777Y-11725836D01*
X21720777Y-11725836D02*
X21711253Y-11735360D01*
X21711253Y-11735360D02*
X21692206Y-11744884D01*
X21692206Y-11744884D02*
X21663634Y-11744884D01*
X21844587Y-11744884D02*
X21825539Y-11735360D01*
X21825539Y-11735360D02*
X21816015Y-11716312D01*
X21816015Y-11716312D02*
X21816015Y-11544884D01*
X21996968Y-11735360D02*
X21977920Y-11744884D01*
X21977920Y-11744884D02*
X21939825Y-11744884D01*
X21939825Y-11744884D02*
X21920777Y-11735360D01*
X21920777Y-11735360D02*
X21911253Y-11716312D01*
X21911253Y-11716312D02*
X21911253Y-11640122D01*
X21911253Y-11640122D02*
X21920777Y-11621074D01*
X21920777Y-11621074D02*
X21939825Y-11611550D01*
X21939825Y-11611550D02*
X21977920Y-11611550D01*
X21977920Y-11611550D02*
X21996968Y-11621074D01*
X21996968Y-11621074D02*
X22006492Y-11640122D01*
X22006492Y-11640122D02*
X22006492Y-11659169D01*
X22006492Y-11659169D02*
X21911253Y-11678217D01*
X22082682Y-11735360D02*
X22101730Y-11744884D01*
X22101730Y-11744884D02*
X22139825Y-11744884D01*
X22139825Y-11744884D02*
X22158873Y-11735360D01*
X22158873Y-11735360D02*
X22168396Y-11716312D01*
X22168396Y-11716312D02*
X22168396Y-11706788D01*
X22168396Y-11706788D02*
X22158873Y-11687741D01*
X22158873Y-11687741D02*
X22139825Y-11678217D01*
X22139825Y-11678217D02*
X22111253Y-11678217D01*
X22111253Y-11678217D02*
X22092206Y-11668693D01*
X22092206Y-11668693D02*
X22082682Y-11649646D01*
X22082682Y-11649646D02*
X22082682Y-11640122D01*
X22082682Y-11640122D02*
X22092206Y-11621074D01*
X22092206Y-11621074D02*
X22111253Y-11611550D01*
X22111253Y-11611550D02*
X22139825Y-11611550D01*
X22139825Y-11611550D02*
X22158873Y-11621074D01*
X22235063Y-11821074D02*
X22244587Y-11811550D01*
X22244587Y-11811550D02*
X22263634Y-11782979D01*
X22263634Y-11782979D02*
X22273158Y-11763931D01*
X22273158Y-11763931D02*
X22282682Y-11735360D01*
X22282682Y-11735360D02*
X22292206Y-11687741D01*
X22292206Y-11687741D02*
X22292206Y-11649646D01*
X22292206Y-11649646D02*
X22282682Y-11602027D01*
X22282682Y-11602027D02*
X22273158Y-11573455D01*
X22273158Y-11573455D02*
X22263634Y-11554408D01*
X22263634Y-11554408D02*
X22244587Y-11525836D01*
X22244587Y-11525836D02*
X22235063Y-11516312D01*
X22596968Y-11821074D02*
X22587444Y-11811550D01*
X22587444Y-11811550D02*
X22568396Y-11782979D01*
X22568396Y-11782979D02*
X22558872Y-11763931D01*
X22558872Y-11763931D02*
X22549349Y-11735360D01*
X22549349Y-11735360D02*
X22539825Y-11687741D01*
X22539825Y-11687741D02*
X22539825Y-11649646D01*
X22539825Y-11649646D02*
X22549349Y-11602027D01*
X22549349Y-11602027D02*
X22558872Y-11573455D01*
X22558872Y-11573455D02*
X22568396Y-11554408D01*
X22568396Y-11554408D02*
X22587444Y-11525836D01*
X22587444Y-11525836D02*
X22596968Y-11516312D01*
X22673158Y-11611550D02*
X22673158Y-11744884D01*
X22673158Y-11630598D02*
X22682682Y-11621074D01*
X22682682Y-11621074D02*
X22701730Y-11611550D01*
X22701730Y-11611550D02*
X22730301Y-11611550D01*
X22730301Y-11611550D02*
X22749349Y-11621074D01*
X22749349Y-11621074D02*
X22758872Y-11640122D01*
X22758872Y-11640122D02*
X22758872Y-11744884D01*
X22882682Y-11744884D02*
X22863634Y-11735360D01*
X22863634Y-11735360D02*
X22854111Y-11725836D01*
X22854111Y-11725836D02*
X22844587Y-11706788D01*
X22844587Y-11706788D02*
X22844587Y-11649646D01*
X22844587Y-11649646D02*
X22854111Y-11630598D01*
X22854111Y-11630598D02*
X22863634Y-11621074D01*
X22863634Y-11621074D02*
X22882682Y-11611550D01*
X22882682Y-11611550D02*
X22911253Y-11611550D01*
X22911253Y-11611550D02*
X22930301Y-11621074D01*
X22930301Y-11621074D02*
X22939825Y-11630598D01*
X22939825Y-11630598D02*
X22949349Y-11649646D01*
X22949349Y-11649646D02*
X22949349Y-11706788D01*
X22949349Y-11706788D02*
X22939825Y-11725836D01*
X22939825Y-11725836D02*
X22930301Y-11735360D01*
X22930301Y-11735360D02*
X22911253Y-11744884D01*
X22911253Y-11744884D02*
X22882682Y-11744884D01*
X23006492Y-11611550D02*
X23082682Y-11611550D01*
X23035063Y-11544884D02*
X23035063Y-11716312D01*
X23035063Y-11716312D02*
X23044587Y-11735360D01*
X23044587Y-11735360D02*
X23063634Y-11744884D01*
X23063634Y-11744884D02*
X23082682Y-11744884D01*
X23301730Y-11611550D02*
X23301730Y-11811550D01*
X23301730Y-11621074D02*
X23320777Y-11611550D01*
X23320777Y-11611550D02*
X23358873Y-11611550D01*
X23358873Y-11611550D02*
X23377920Y-11621074D01*
X23377920Y-11621074D02*
X23387444Y-11630598D01*
X23387444Y-11630598D02*
X23396968Y-11649646D01*
X23396968Y-11649646D02*
X23396968Y-11706788D01*
X23396968Y-11706788D02*
X23387444Y-11725836D01*
X23387444Y-11725836D02*
X23377920Y-11735360D01*
X23377920Y-11735360D02*
X23358873Y-11744884D01*
X23358873Y-11744884D02*
X23320777Y-11744884D01*
X23320777Y-11744884D02*
X23301730Y-11735360D01*
X23511253Y-11744884D02*
X23492206Y-11735360D01*
X23492206Y-11735360D02*
X23482682Y-11716312D01*
X23482682Y-11716312D02*
X23482682Y-11544884D01*
X23673158Y-11744884D02*
X23673158Y-11640122D01*
X23673158Y-11640122D02*
X23663634Y-11621074D01*
X23663634Y-11621074D02*
X23644587Y-11611550D01*
X23644587Y-11611550D02*
X23606492Y-11611550D01*
X23606492Y-11611550D02*
X23587444Y-11621074D01*
X23673158Y-11735360D02*
X23654111Y-11744884D01*
X23654111Y-11744884D02*
X23606492Y-11744884D01*
X23606492Y-11744884D02*
X23587444Y-11735360D01*
X23587444Y-11735360D02*
X23577920Y-11716312D01*
X23577920Y-11716312D02*
X23577920Y-11697265D01*
X23577920Y-11697265D02*
X23587444Y-11678217D01*
X23587444Y-11678217D02*
X23606492Y-11668693D01*
X23606492Y-11668693D02*
X23654111Y-11668693D01*
X23654111Y-11668693D02*
X23673158Y-11659169D01*
X23739825Y-11611550D02*
X23816015Y-11611550D01*
X23768396Y-11544884D02*
X23768396Y-11716312D01*
X23768396Y-11716312D02*
X23777920Y-11735360D01*
X23777920Y-11735360D02*
X23796968Y-11744884D01*
X23796968Y-11744884D02*
X23816015Y-11744884D01*
X23958873Y-11735360D02*
X23939825Y-11744884D01*
X23939825Y-11744884D02*
X23901730Y-11744884D01*
X23901730Y-11744884D02*
X23882682Y-11735360D01*
X23882682Y-11735360D02*
X23873158Y-11716312D01*
X23873158Y-11716312D02*
X23873158Y-11640122D01*
X23873158Y-11640122D02*
X23882682Y-11621074D01*
X23882682Y-11621074D02*
X23901730Y-11611550D01*
X23901730Y-11611550D02*
X23939825Y-11611550D01*
X23939825Y-11611550D02*
X23958873Y-11621074D01*
X23958873Y-11621074D02*
X23968396Y-11640122D01*
X23968396Y-11640122D02*
X23968396Y-11659169D01*
X23968396Y-11659169D02*
X23873158Y-11678217D01*
X24139825Y-11744884D02*
X24139825Y-11544884D01*
X24139825Y-11735360D02*
X24120777Y-11744884D01*
X24120777Y-11744884D02*
X24082682Y-11744884D01*
X24082682Y-11744884D02*
X24063634Y-11735360D01*
X24063634Y-11735360D02*
X24054111Y-11725836D01*
X24054111Y-11725836D02*
X24044587Y-11706788D01*
X24044587Y-11706788D02*
X24044587Y-11649646D01*
X24044587Y-11649646D02*
X24054111Y-11630598D01*
X24054111Y-11630598D02*
X24063634Y-11621074D01*
X24063634Y-11621074D02*
X24082682Y-11611550D01*
X24082682Y-11611550D02*
X24120777Y-11611550D01*
X24120777Y-11611550D02*
X24139825Y-11621074D01*
X24216015Y-11821074D02*
X24225539Y-11811550D01*
X24225539Y-11811550D02*
X24244587Y-11782979D01*
X24244587Y-11782979D02*
X24254111Y-11763931D01*
X24254111Y-11763931D02*
X24263634Y-11735360D01*
X24263634Y-11735360D02*
X24273158Y-11687741D01*
X24273158Y-11687741D02*
X24273158Y-11649646D01*
X24273158Y-11649646D02*
X24263634Y-11602027D01*
X24263634Y-11602027D02*
X24254111Y-11573455D01*
X24254111Y-11573455D02*
X24244587Y-11554408D01*
X24244587Y-11554408D02*
X24225539Y-11525836D01*
X24225539Y-11525836D02*
X24216015Y-11516312D01*
M02*
