M48
; DRILL file {KiCad 8.0.3} date 2024-06-27T11:15:37-0400
; FORMAT={-:-/ absolute / inch / decimal}
; #@! TF.CreationDate,2024-06-27T11:15:37-04:00
; #@! TF.GenerationSoftware,Kicad,Pcbnew,8.0.3
; #@! TF.FileFunction,Plated,1,4,PTH
FMAT,2
INCH
; #@! TA.AperFunction,Plated,PTH,ComponentDrill
T1C0.0079
; #@! TA.AperFunction,Plated,PTH,ViaDrill
T2C0.0118
; #@! TA.AperFunction,Plated,PTH,ComponentDrill
T3C0.0236
; #@! TA.AperFunction,Plated,PTH,ComponentDrill
T4C0.0394
%
G90
G05
T1
X7.3898Y-2.4172
X7.3898Y-2.4723
X7.4173Y-2.3896
X7.4173Y-2.4447
X7.4173Y-2.4998
X7.4449Y-2.4172
X7.4449Y-2.4723
X7.4724Y-2.3896
X7.4724Y-2.4447
X7.4724Y-2.4998
X7.5Y-2.4172
X7.5Y-2.4723
T2
X7.01Y-4.26
X7.11Y-2.1409
X7.11Y-2.1909
X7.1675Y-3.2225
X7.185Y-3.4
X7.185Y-3.56
X7.21Y-2.74
X7.24Y-2.7908
X7.265Y-4.11
X7.345Y-3.03
X7.405Y-3.1077
X7.43Y-3.65
X7.4508Y-3.82
X7.46Y-3.995
X7.5Y-3.175
X7.54Y-3.995
X7.5492Y-3.82
X7.595Y-3.1077
X7.655Y-3.03
X7.7056Y-3.5244
X7.776Y-4.185
X7.78Y-3.82
X7.844Y-4.185
X7.845Y-3.1923
X7.9Y-2.1409
X7.9Y-2.29
X7.9Y-2.34
X8.0Y-2.16
T4
X6.95Y-2.16
X6.95Y-2.26
X6.95Y-2.36
X6.95Y-2.46
X6.95Y-2.56
X6.95Y-2.66
X6.95Y-2.76
X6.95Y-2.86
X6.95Y-2.96
X6.95Y-3.06
X6.95Y-3.16
X6.95Y-3.26
X6.95Y-3.36
X6.95Y-3.46
X6.95Y-3.56
X6.95Y-3.66
X6.95Y-3.76
X6.95Y-3.86
X6.95Y-3.96
X6.95Y-4.06
X6.95Y-4.16
X6.95Y-4.26
X8.06Y-2.16
X8.06Y-2.26
X8.06Y-2.36
X8.06Y-2.46
X8.06Y-2.56
X8.06Y-2.66
X8.06Y-2.76
X8.06Y-2.86
X8.06Y-2.96
X8.06Y-3.06
X8.06Y-3.16
X8.06Y-3.26
X8.06Y-3.36
X8.06Y-3.46
X8.06Y-3.56
X8.06Y-3.66
X8.06Y-3.76
X8.06Y-3.86
X8.06Y-3.96
X8.06Y-4.06
X8.06Y-4.16
X8.06Y-4.26
T3
G00X7.3299Y-4.0461
M15
G01X7.3299Y-4.0894
M16
G05
G00X7.3299Y-4.2166
M15
G01X7.3299Y-4.2481
M16
G05
G00X7.6701Y-4.0461
M15
G01X7.6701Y-4.0894
M16
G05
G00X7.6701Y-4.2166
M15
G01X7.6701Y-4.2481
M16
G05
M30
