M48
; DRILL file {KiCad 8.0.3} date 2024-06-25T22:23:40-0400
; FORMAT={-:-/ absolute / metric / decimal}
; #@! TF.CreationDate,2024-06-25T22:23:40-04:00
; #@! TF.GenerationSoftware,Kicad,Pcbnew,8.0.3
; #@! TF.FileFunction,Plated,1,4,PTH
FMAT,2
METRIC
; #@! TA.AperFunction,Plated,PTH,ComponentDrill
T1C0.200
; #@! TA.AperFunction,Plated,PTH,ViaDrill
T2C0.300
; #@! TA.AperFunction,Plated,PTH,ComponentDrill
T3C0.600
; #@! TA.AperFunction,Plated,PTH,ComponentDrill
T4C1.000
%
G90
G05
T1
X187.7Y-61.396
X187.7Y-62.796
X188.4Y-60.696
X188.4Y-62.096
X188.4Y-63.496
X189.1Y-61.396
X189.1Y-62.796
X189.8Y-60.696
X189.8Y-62.096
X189.8Y-63.496
X190.5Y-61.396
X190.5Y-62.796
T2
X182.372Y-82.169
X183.134Y-69.596
X183.896Y-70.886
X189.484Y-101.473
X191.516Y-101.473
X199.236Y-106.235
X199.39Y-81.026
X200.66Y-58.166
X200.66Y-59.436
T4
X176.53Y-54.864
X176.53Y-57.404
X176.53Y-59.944
X176.53Y-62.484
X176.53Y-65.024
X176.53Y-67.564
X176.53Y-70.104
X176.53Y-72.644
X176.53Y-75.184
X176.53Y-77.724
X176.53Y-80.264
X176.53Y-82.804
X176.53Y-85.344
X176.53Y-87.884
X176.53Y-90.424
X176.53Y-92.964
X176.53Y-95.504
X176.53Y-98.044
X176.53Y-100.584
X176.53Y-103.124
X176.53Y-105.664
X176.53Y-108.204
X204.724Y-54.864
X204.724Y-57.404
X204.724Y-59.944
X204.724Y-62.484
X204.724Y-65.024
X204.724Y-67.564
X204.724Y-70.104
X204.724Y-72.644
X204.724Y-75.184
X204.724Y-77.724
X204.724Y-80.264
X204.724Y-82.804
X204.724Y-85.344
X204.724Y-87.884
X204.724Y-90.424
X204.724Y-92.964
X204.724Y-95.504
X204.724Y-98.044
X204.724Y-100.584
X204.724Y-103.124
X204.724Y-105.664
X204.724Y-108.204
T3
X186.18Y-102.771G85X186.18Y-103.871
G05
X186.18Y-107.101G85X186.18Y-107.901
G05
X194.82Y-102.771G85X194.82Y-103.871
G05
X194.82Y-107.101G85X194.82Y-107.901
G05
M30
