G04 #@! TF.GenerationSoftware,KiCad,Pcbnew,8.0.3*
G04 #@! TF.CreationDate,2024-06-27T11:15:23-04:00*
G04 #@! TF.ProjectId,ESP32-S3-DevBoard,45535033-322d-4533-932d-446576426f61,rev?*
G04 #@! TF.SameCoordinates,Original*
G04 #@! TF.FileFunction,Legend,Top*
G04 #@! TF.FilePolarity,Positive*
%FSLAX46Y46*%
G04 Gerber Fmt 4.6, Leading zero omitted, Abs format (unit mm)*
G04 Created by KiCad (PCBNEW 8.0.3) date 2024-06-27 11:15:23*
%MOMM*%
%LPD*%
G01*
G04 APERTURE LIST*
G04 Aperture macros list*
%AMRoundRect*
0 Rectangle with rounded corners*
0 $1 Rounding radius*
0 $2 $3 $4 $5 $6 $7 $8 $9 X,Y pos of 4 corners*
0 Add a 4 corners polygon primitive as box body*
4,1,4,$2,$3,$4,$5,$6,$7,$8,$9,$2,$3,0*
0 Add four circle primitives for the rounded corners*
1,1,$1+$1,$2,$3*
1,1,$1+$1,$4,$5*
1,1,$1+$1,$6,$7*
1,1,$1+$1,$8,$9*
0 Add four rect primitives between the rounded corners*
20,1,$1+$1,$2,$3,$4,$5,0*
20,1,$1+$1,$4,$5,$6,$7,0*
20,1,$1+$1,$6,$7,$8,$9,0*
20,1,$1+$1,$8,$9,$2,$3,0*%
G04 Aperture macros list end*
%ADD10C,0.300000*%
%ADD11C,0.150000*%
%ADD12C,0.200000*%
%ADD13C,0.000000*%
%ADD14C,0.120000*%
%ADD15RoundRect,0.237500X-0.250000X-0.237500X0.250000X-0.237500X0.250000X0.237500X-0.250000X0.237500X0*%
%ADD16R,1.050000X0.650000*%
%ADD17RoundRect,0.375000X0.375000X-0.625000X0.375000X0.625000X-0.375000X0.625000X-0.375000X-0.625000X0*%
%ADD18RoundRect,0.500000X1.400000X-0.500000X1.400000X0.500000X-1.400000X0.500000X-1.400000X-0.500000X0*%
%ADD19RoundRect,0.237500X0.300000X0.237500X-0.300000X0.237500X-0.300000X-0.237500X0.300000X-0.237500X0*%
%ADD20RoundRect,0.237500X0.237500X-0.250000X0.237500X0.250000X-0.237500X0.250000X-0.237500X-0.250000X0*%
%ADD21R,1.500000X0.900000*%
%ADD22R,0.900000X1.500000*%
%ADD23C,0.600000*%
%ADD24R,3.900000X3.900000*%
%ADD25RoundRect,0.237500X-0.300000X-0.237500X0.300000X-0.237500X0.300000X0.237500X-0.300000X0.237500X0*%
%ADD26R,1.700000X1.700000*%
%ADD27O,1.700000X1.700000*%
%ADD28RoundRect,0.237500X-0.237500X0.300000X-0.237500X-0.300000X0.237500X-0.300000X0.237500X0.300000X0*%
%ADD29RoundRect,0.237500X0.250000X0.237500X-0.250000X0.237500X-0.250000X-0.237500X0.250000X-0.237500X0*%
%ADD30RoundRect,0.237500X-0.237500X0.250000X-0.237500X-0.250000X0.237500X-0.250000X0.237500X0.250000X0*%
%ADD31C,0.650000*%
%ADD32RoundRect,0.151100X-0.151100X-0.414300X0.151100X-0.414300X0.151100X0.414300X-0.151100X0.414300X0*%
%ADD33RoundRect,0.150000X-0.150000X-0.425000X0.150000X-0.425000X0.150000X0.425000X-0.150000X0.425000X0*%
%ADD34RoundRect,0.075000X-0.075000X-0.500000X0.075000X-0.500000X0.075000X0.500000X-0.075000X0.500000X0*%
%ADD35RoundRect,0.151300X-0.151300X-0.414100X0.151300X-0.414100X0.151300X0.414100X-0.151300X0.414100X0*%
%ADD36O,1.000000X2.100000*%
%ADD37O,1.000000X1.800000*%
%ADD38RoundRect,0.250000X0.250000X0.250000X-0.250000X0.250000X-0.250000X-0.250000X0.250000X-0.250000X0*%
%ADD39RoundRect,0.250000X0.250000X-0.250000X0.250000X0.250000X-0.250000X0.250000X-0.250000X-0.250000X0*%
%ADD40RoundRect,0.237500X-0.287500X-0.237500X0.287500X-0.237500X0.287500X0.237500X-0.287500X0.237500X0*%
%ADD41RoundRect,0.250000X-0.250000X0.250000X-0.250000X-0.250000X0.250000X-0.250000X0.250000X0.250000X0*%
%ADD42RoundRect,0.225000X-0.225000X-0.375000X0.225000X-0.375000X0.225000X0.375000X-0.225000X0.375000X0*%
G04 APERTURE END LIST*
D10*
X184658000Y-95758000D02*
G75*
G02*
X180594000Y-95758000I-2032000J0D01*
G01*
X180594000Y-95758000D02*
G75*
G02*
X184658000Y-95758000I2032000J0D01*
G01*
D11*
X195596000Y-90255164D02*
X195596000Y-89505164D01*
X195596000Y-89505164D02*
X195881714Y-89505164D01*
X195881714Y-89505164D02*
X195953143Y-89540878D01*
X195953143Y-89540878D02*
X195988857Y-89576592D01*
X195988857Y-89576592D02*
X196024571Y-89648021D01*
X196024571Y-89648021D02*
X196024571Y-89755164D01*
X196024571Y-89755164D02*
X195988857Y-89826592D01*
X195988857Y-89826592D02*
X195953143Y-89862307D01*
X195953143Y-89862307D02*
X195881714Y-89898021D01*
X195881714Y-89898021D02*
X195596000Y-89898021D01*
X196274571Y-89505164D02*
X196453143Y-90255164D01*
X196453143Y-90255164D02*
X196596000Y-89719450D01*
X196596000Y-89719450D02*
X196738857Y-90255164D01*
X196738857Y-90255164D02*
X196917429Y-89505164D01*
X197631714Y-90255164D02*
X197381714Y-89898021D01*
X197203143Y-90255164D02*
X197203143Y-89505164D01*
X197203143Y-89505164D02*
X197488857Y-89505164D01*
X197488857Y-89505164D02*
X197560286Y-89540878D01*
X197560286Y-89540878D02*
X197596000Y-89576592D01*
X197596000Y-89576592D02*
X197631714Y-89648021D01*
X197631714Y-89648021D02*
X197631714Y-89755164D01*
X197631714Y-89755164D02*
X197596000Y-89826592D01*
X197596000Y-89826592D02*
X197560286Y-89862307D01*
X197560286Y-89862307D02*
X197488857Y-89898021D01*
X197488857Y-89898021D02*
X197203143Y-89898021D01*
X179445121Y-107632571D02*
X179480835Y-107561143D01*
X179480835Y-107561143D02*
X179480835Y-107454000D01*
X179480835Y-107454000D02*
X179445121Y-107346857D01*
X179445121Y-107346857D02*
X179373692Y-107275428D01*
X179373692Y-107275428D02*
X179302264Y-107239714D01*
X179302264Y-107239714D02*
X179159407Y-107204000D01*
X179159407Y-107204000D02*
X179052264Y-107204000D01*
X179052264Y-107204000D02*
X178909407Y-107239714D01*
X178909407Y-107239714D02*
X178837978Y-107275428D01*
X178837978Y-107275428D02*
X178766550Y-107346857D01*
X178766550Y-107346857D02*
X178730835Y-107454000D01*
X178730835Y-107454000D02*
X178730835Y-107525428D01*
X178730835Y-107525428D02*
X178766550Y-107632571D01*
X178766550Y-107632571D02*
X178802264Y-107668285D01*
X178802264Y-107668285D02*
X179052264Y-107668285D01*
X179052264Y-107668285D02*
X179052264Y-107525428D01*
X178730835Y-107989714D02*
X179480835Y-107989714D01*
X179480835Y-107989714D02*
X178730835Y-108418285D01*
X178730835Y-108418285D02*
X179480835Y-108418285D01*
X178730835Y-108775428D02*
X179480835Y-108775428D01*
X179480835Y-108775428D02*
X179480835Y-108953999D01*
X179480835Y-108953999D02*
X179445121Y-109061142D01*
X179445121Y-109061142D02*
X179373692Y-109132571D01*
X179373692Y-109132571D02*
X179302264Y-109168285D01*
X179302264Y-109168285D02*
X179159407Y-109203999D01*
X179159407Y-109203999D02*
X179052264Y-109203999D01*
X179052264Y-109203999D02*
X178909407Y-109168285D01*
X178909407Y-109168285D02*
X178837978Y-109132571D01*
X178837978Y-109132571D02*
X178766550Y-109061142D01*
X178766550Y-109061142D02*
X178730835Y-108953999D01*
X178730835Y-108953999D02*
X178730835Y-108775428D01*
X179230835Y-62626857D02*
X178730835Y-62626857D01*
X179516550Y-62448285D02*
X178980835Y-62269714D01*
X178980835Y-62269714D02*
X178980835Y-62733999D01*
X202023164Y-72858286D02*
X202523164Y-72858286D01*
X201737450Y-73036857D02*
X202273164Y-73215428D01*
X202273164Y-73215428D02*
X202273164Y-72751143D01*
X201773164Y-72322571D02*
X201773164Y-72251142D01*
X201773164Y-72251142D02*
X201808878Y-72179714D01*
X201808878Y-72179714D02*
X201844592Y-72144000D01*
X201844592Y-72144000D02*
X201916021Y-72108285D01*
X201916021Y-72108285D02*
X202058878Y-72072571D01*
X202058878Y-72072571D02*
X202237450Y-72072571D01*
X202237450Y-72072571D02*
X202380307Y-72108285D01*
X202380307Y-72108285D02*
X202451735Y-72144000D01*
X202451735Y-72144000D02*
X202487450Y-72179714D01*
X202487450Y-72179714D02*
X202523164Y-72251142D01*
X202523164Y-72251142D02*
X202523164Y-72322571D01*
X202523164Y-72322571D02*
X202487450Y-72394000D01*
X202487450Y-72394000D02*
X202451735Y-72429714D01*
X202451735Y-72429714D02*
X202380307Y-72465428D01*
X202380307Y-72465428D02*
X202237450Y-72501142D01*
X202237450Y-72501142D02*
X202058878Y-72501142D01*
X202058878Y-72501142D02*
X201916021Y-72465428D01*
X201916021Y-72465428D02*
X201844592Y-72429714D01*
X201844592Y-72429714D02*
X201808878Y-72394000D01*
X201808878Y-72394000D02*
X201773164Y-72322571D01*
X178730835Y-95361142D02*
X178730835Y-94932571D01*
X178730835Y-95146856D02*
X179480835Y-95146856D01*
X179480835Y-95146856D02*
X179373692Y-95075428D01*
X179373692Y-95075428D02*
X179302264Y-95003999D01*
X179302264Y-95003999D02*
X179266550Y-94932571D01*
X178730835Y-96075428D02*
X178730835Y-95646857D01*
X178730835Y-95861142D02*
X179480835Y-95861142D01*
X179480835Y-95861142D02*
X179373692Y-95789714D01*
X179373692Y-95789714D02*
X179302264Y-95718285D01*
X179302264Y-95718285D02*
X179266550Y-95646857D01*
X202023164Y-67778286D02*
X202523164Y-67778286D01*
X201737450Y-67956857D02*
X202273164Y-68135428D01*
X202273164Y-68135428D02*
X202273164Y-67671143D01*
X201844592Y-67421142D02*
X201808878Y-67385428D01*
X201808878Y-67385428D02*
X201773164Y-67314000D01*
X201773164Y-67314000D02*
X201773164Y-67135428D01*
X201773164Y-67135428D02*
X201808878Y-67064000D01*
X201808878Y-67064000D02*
X201844592Y-67028285D01*
X201844592Y-67028285D02*
X201916021Y-66992571D01*
X201916021Y-66992571D02*
X201987450Y-66992571D01*
X201987450Y-66992571D02*
X202094592Y-67028285D01*
X202094592Y-67028285D02*
X202523164Y-67456857D01*
X202523164Y-67456857D02*
X202523164Y-66992571D01*
X202523164Y-60069000D02*
X202166021Y-60319000D01*
X202523164Y-60497571D02*
X201773164Y-60497571D01*
X201773164Y-60497571D02*
X201773164Y-60211857D01*
X201773164Y-60211857D02*
X201808878Y-60140428D01*
X201808878Y-60140428D02*
X201844592Y-60104714D01*
X201844592Y-60104714D02*
X201916021Y-60069000D01*
X201916021Y-60069000D02*
X202023164Y-60069000D01*
X202023164Y-60069000D02*
X202094592Y-60104714D01*
X202094592Y-60104714D02*
X202130307Y-60140428D01*
X202130307Y-60140428D02*
X202166021Y-60211857D01*
X202166021Y-60211857D02*
X202166021Y-60497571D01*
X201773164Y-59819000D02*
X202523164Y-59319000D01*
X201773164Y-59319000D02*
X202523164Y-59819000D01*
X202023164Y-95718286D02*
X202523164Y-95718286D01*
X201737450Y-95896857D02*
X202273164Y-96075428D01*
X202273164Y-96075428D02*
X202273164Y-95611143D01*
X201773164Y-95396857D02*
X201773164Y-94896857D01*
X201773164Y-94896857D02*
X202523164Y-95218285D01*
D12*
X194730857Y-82732409D02*
X194873714Y-82780028D01*
X194873714Y-82780028D02*
X194921333Y-82827647D01*
X194921333Y-82827647D02*
X194968952Y-82922885D01*
X194968952Y-82922885D02*
X194968952Y-83065742D01*
X194968952Y-83065742D02*
X194921333Y-83160980D01*
X194921333Y-83160980D02*
X194873714Y-83208600D01*
X194873714Y-83208600D02*
X194778476Y-83256219D01*
X194778476Y-83256219D02*
X194397524Y-83256219D01*
X194397524Y-83256219D02*
X194397524Y-82256219D01*
X194397524Y-82256219D02*
X194730857Y-82256219D01*
X194730857Y-82256219D02*
X194826095Y-82303838D01*
X194826095Y-82303838D02*
X194873714Y-82351457D01*
X194873714Y-82351457D02*
X194921333Y-82446695D01*
X194921333Y-82446695D02*
X194921333Y-82541933D01*
X194921333Y-82541933D02*
X194873714Y-82637171D01*
X194873714Y-82637171D02*
X194826095Y-82684790D01*
X194826095Y-82684790D02*
X194730857Y-82732409D01*
X194730857Y-82732409D02*
X194397524Y-82732409D01*
X195588000Y-82256219D02*
X195778476Y-82256219D01*
X195778476Y-82256219D02*
X195873714Y-82303838D01*
X195873714Y-82303838D02*
X195968952Y-82399076D01*
X195968952Y-82399076D02*
X196016571Y-82589552D01*
X196016571Y-82589552D02*
X196016571Y-82922885D01*
X196016571Y-82922885D02*
X195968952Y-83113361D01*
X195968952Y-83113361D02*
X195873714Y-83208600D01*
X195873714Y-83208600D02*
X195778476Y-83256219D01*
X195778476Y-83256219D02*
X195588000Y-83256219D01*
X195588000Y-83256219D02*
X195492762Y-83208600D01*
X195492762Y-83208600D02*
X195397524Y-83113361D01*
X195397524Y-83113361D02*
X195349905Y-82922885D01*
X195349905Y-82922885D02*
X195349905Y-82589552D01*
X195349905Y-82589552D02*
X195397524Y-82399076D01*
X195397524Y-82399076D02*
X195492762Y-82303838D01*
X195492762Y-82303838D02*
X195588000Y-82256219D01*
X196635619Y-82256219D02*
X196826095Y-82256219D01*
X196826095Y-82256219D02*
X196921333Y-82303838D01*
X196921333Y-82303838D02*
X197016571Y-82399076D01*
X197016571Y-82399076D02*
X197064190Y-82589552D01*
X197064190Y-82589552D02*
X197064190Y-82922885D01*
X197064190Y-82922885D02*
X197016571Y-83113361D01*
X197016571Y-83113361D02*
X196921333Y-83208600D01*
X196921333Y-83208600D02*
X196826095Y-83256219D01*
X196826095Y-83256219D02*
X196635619Y-83256219D01*
X196635619Y-83256219D02*
X196540381Y-83208600D01*
X196540381Y-83208600D02*
X196445143Y-83113361D01*
X196445143Y-83113361D02*
X196397524Y-82922885D01*
X196397524Y-82922885D02*
X196397524Y-82589552D01*
X196397524Y-82589552D02*
X196445143Y-82399076D01*
X196445143Y-82399076D02*
X196540381Y-82303838D01*
X196540381Y-82303838D02*
X196635619Y-82256219D01*
X197349905Y-82256219D02*
X197921333Y-82256219D01*
X197635619Y-83256219D02*
X197635619Y-82256219D01*
X184364380Y-83256219D02*
X184031047Y-82780028D01*
X183792952Y-83256219D02*
X183792952Y-82256219D01*
X183792952Y-82256219D02*
X184173904Y-82256219D01*
X184173904Y-82256219D02*
X184269142Y-82303838D01*
X184269142Y-82303838D02*
X184316761Y-82351457D01*
X184316761Y-82351457D02*
X184364380Y-82446695D01*
X184364380Y-82446695D02*
X184364380Y-82589552D01*
X184364380Y-82589552D02*
X184316761Y-82684790D01*
X184316761Y-82684790D02*
X184269142Y-82732409D01*
X184269142Y-82732409D02*
X184173904Y-82780028D01*
X184173904Y-82780028D02*
X183792952Y-82780028D01*
X184745333Y-83208600D02*
X184888190Y-83256219D01*
X184888190Y-83256219D02*
X185126285Y-83256219D01*
X185126285Y-83256219D02*
X185221523Y-83208600D01*
X185221523Y-83208600D02*
X185269142Y-83160980D01*
X185269142Y-83160980D02*
X185316761Y-83065742D01*
X185316761Y-83065742D02*
X185316761Y-82970504D01*
X185316761Y-82970504D02*
X185269142Y-82875266D01*
X185269142Y-82875266D02*
X185221523Y-82827647D01*
X185221523Y-82827647D02*
X185126285Y-82780028D01*
X185126285Y-82780028D02*
X184935809Y-82732409D01*
X184935809Y-82732409D02*
X184840571Y-82684790D01*
X184840571Y-82684790D02*
X184792952Y-82637171D01*
X184792952Y-82637171D02*
X184745333Y-82541933D01*
X184745333Y-82541933D02*
X184745333Y-82446695D01*
X184745333Y-82446695D02*
X184792952Y-82351457D01*
X184792952Y-82351457D02*
X184840571Y-82303838D01*
X184840571Y-82303838D02*
X184935809Y-82256219D01*
X184935809Y-82256219D02*
X185173904Y-82256219D01*
X185173904Y-82256219D02*
X185316761Y-82303838D01*
X185602476Y-82256219D02*
X186173904Y-82256219D01*
X185888190Y-83256219D02*
X185888190Y-82256219D01*
D11*
X179480835Y-53935428D02*
X179480835Y-54399714D01*
X179480835Y-54399714D02*
X179195121Y-54149714D01*
X179195121Y-54149714D02*
X179195121Y-54256857D01*
X179195121Y-54256857D02*
X179159407Y-54328286D01*
X179159407Y-54328286D02*
X179123692Y-54364000D01*
X179123692Y-54364000D02*
X179052264Y-54399714D01*
X179052264Y-54399714D02*
X178873692Y-54399714D01*
X178873692Y-54399714D02*
X178802264Y-54364000D01*
X178802264Y-54364000D02*
X178766550Y-54328286D01*
X178766550Y-54328286D02*
X178730835Y-54256857D01*
X178730835Y-54256857D02*
X178730835Y-54042571D01*
X178730835Y-54042571D02*
X178766550Y-53971143D01*
X178766550Y-53971143D02*
X178802264Y-53935428D01*
X179480835Y-54614000D02*
X178730835Y-54864000D01*
X178730835Y-54864000D02*
X179480835Y-55114000D01*
X179480835Y-55292571D02*
X179480835Y-55756857D01*
X179480835Y-55756857D02*
X179195121Y-55506857D01*
X179195121Y-55506857D02*
X179195121Y-55614000D01*
X179195121Y-55614000D02*
X179159407Y-55685429D01*
X179159407Y-55685429D02*
X179123692Y-55721143D01*
X179123692Y-55721143D02*
X179052264Y-55756857D01*
X179052264Y-55756857D02*
X178873692Y-55756857D01*
X178873692Y-55756857D02*
X178802264Y-55721143D01*
X178802264Y-55721143D02*
X178766550Y-55685429D01*
X178766550Y-55685429D02*
X178730835Y-55614000D01*
X178730835Y-55614000D02*
X178730835Y-55399714D01*
X178730835Y-55399714D02*
X178766550Y-55328286D01*
X178766550Y-55328286D02*
X178802264Y-55292571D01*
X201773164Y-78331143D02*
X201773164Y-77866857D01*
X201773164Y-77866857D02*
X202058878Y-78116857D01*
X202058878Y-78116857D02*
X202058878Y-78009714D01*
X202058878Y-78009714D02*
X202094592Y-77938286D01*
X202094592Y-77938286D02*
X202130307Y-77902571D01*
X202130307Y-77902571D02*
X202201735Y-77866857D01*
X202201735Y-77866857D02*
X202380307Y-77866857D01*
X202380307Y-77866857D02*
X202451735Y-77902571D01*
X202451735Y-77902571D02*
X202487450Y-77938286D01*
X202487450Y-77938286D02*
X202523164Y-78009714D01*
X202523164Y-78009714D02*
X202523164Y-78224000D01*
X202523164Y-78224000D02*
X202487450Y-78295428D01*
X202487450Y-78295428D02*
X202451735Y-78331143D01*
X202094592Y-77438285D02*
X202058878Y-77509714D01*
X202058878Y-77509714D02*
X202023164Y-77545428D01*
X202023164Y-77545428D02*
X201951735Y-77581142D01*
X201951735Y-77581142D02*
X201916021Y-77581142D01*
X201916021Y-77581142D02*
X201844592Y-77545428D01*
X201844592Y-77545428D02*
X201808878Y-77509714D01*
X201808878Y-77509714D02*
X201773164Y-77438285D01*
X201773164Y-77438285D02*
X201773164Y-77295428D01*
X201773164Y-77295428D02*
X201808878Y-77224000D01*
X201808878Y-77224000D02*
X201844592Y-77188285D01*
X201844592Y-77188285D02*
X201916021Y-77152571D01*
X201916021Y-77152571D02*
X201951735Y-77152571D01*
X201951735Y-77152571D02*
X202023164Y-77188285D01*
X202023164Y-77188285D02*
X202058878Y-77224000D01*
X202058878Y-77224000D02*
X202094592Y-77295428D01*
X202094592Y-77295428D02*
X202094592Y-77438285D01*
X202094592Y-77438285D02*
X202130307Y-77509714D01*
X202130307Y-77509714D02*
X202166021Y-77545428D01*
X202166021Y-77545428D02*
X202237450Y-77581142D01*
X202237450Y-77581142D02*
X202380307Y-77581142D01*
X202380307Y-77581142D02*
X202451735Y-77545428D01*
X202451735Y-77545428D02*
X202487450Y-77509714D01*
X202487450Y-77509714D02*
X202523164Y-77438285D01*
X202523164Y-77438285D02*
X202523164Y-77295428D01*
X202523164Y-77295428D02*
X202487450Y-77224000D01*
X202487450Y-77224000D02*
X202451735Y-77188285D01*
X202451735Y-77188285D02*
X202380307Y-77152571D01*
X202380307Y-77152571D02*
X202237450Y-77152571D01*
X202237450Y-77152571D02*
X202166021Y-77188285D01*
X202166021Y-77188285D02*
X202130307Y-77224000D01*
X202130307Y-77224000D02*
X202094592Y-77295428D01*
X178730835Y-92821142D02*
X178730835Y-92392571D01*
X178730835Y-92606856D02*
X179480835Y-92606856D01*
X179480835Y-92606856D02*
X179373692Y-92535428D01*
X179373692Y-92535428D02*
X179302264Y-92463999D01*
X179302264Y-92463999D02*
X179266550Y-92392571D01*
X179480835Y-93285428D02*
X179480835Y-93356857D01*
X179480835Y-93356857D02*
X179445121Y-93428285D01*
X179445121Y-93428285D02*
X179409407Y-93464000D01*
X179409407Y-93464000D02*
X179337978Y-93499714D01*
X179337978Y-93499714D02*
X179195121Y-93535428D01*
X179195121Y-93535428D02*
X179016550Y-93535428D01*
X179016550Y-93535428D02*
X178873692Y-93499714D01*
X178873692Y-93499714D02*
X178802264Y-93464000D01*
X178802264Y-93464000D02*
X178766550Y-93428285D01*
X178766550Y-93428285D02*
X178730835Y-93356857D01*
X178730835Y-93356857D02*
X178730835Y-93285428D01*
X178730835Y-93285428D02*
X178766550Y-93214000D01*
X178766550Y-93214000D02*
X178802264Y-93178285D01*
X178802264Y-93178285D02*
X178873692Y-93142571D01*
X178873692Y-93142571D02*
X179016550Y-93106857D01*
X179016550Y-93106857D02*
X179195121Y-93106857D01*
X179195121Y-93106857D02*
X179337978Y-93142571D01*
X179337978Y-93142571D02*
X179409407Y-93178285D01*
X179409407Y-93178285D02*
X179445121Y-93214000D01*
X179445121Y-93214000D02*
X179480835Y-93285428D01*
X179480835Y-105521143D02*
X179480835Y-105164000D01*
X179480835Y-105164000D02*
X179123692Y-105128286D01*
X179123692Y-105128286D02*
X179159407Y-105164000D01*
X179159407Y-105164000D02*
X179195121Y-105235429D01*
X179195121Y-105235429D02*
X179195121Y-105414000D01*
X179195121Y-105414000D02*
X179159407Y-105485429D01*
X179159407Y-105485429D02*
X179123692Y-105521143D01*
X179123692Y-105521143D02*
X179052264Y-105556857D01*
X179052264Y-105556857D02*
X178873692Y-105556857D01*
X178873692Y-105556857D02*
X178802264Y-105521143D01*
X178802264Y-105521143D02*
X178766550Y-105485429D01*
X178766550Y-105485429D02*
X178730835Y-105414000D01*
X178730835Y-105414000D02*
X178730835Y-105235429D01*
X178730835Y-105235429D02*
X178766550Y-105164000D01*
X178766550Y-105164000D02*
X178802264Y-105128286D01*
X179480835Y-105771143D02*
X178730835Y-106021143D01*
X178730835Y-106021143D02*
X179480835Y-106271143D01*
X201773164Y-87665714D02*
X201773164Y-87594285D01*
X201773164Y-87594285D02*
X201808878Y-87522857D01*
X201808878Y-87522857D02*
X201844592Y-87487143D01*
X201844592Y-87487143D02*
X201916021Y-87451428D01*
X201916021Y-87451428D02*
X202058878Y-87415714D01*
X202058878Y-87415714D02*
X202237450Y-87415714D01*
X202237450Y-87415714D02*
X202380307Y-87451428D01*
X202380307Y-87451428D02*
X202451735Y-87487143D01*
X202451735Y-87487143D02*
X202487450Y-87522857D01*
X202487450Y-87522857D02*
X202523164Y-87594285D01*
X202523164Y-87594285D02*
X202523164Y-87665714D01*
X202523164Y-87665714D02*
X202487450Y-87737143D01*
X202487450Y-87737143D02*
X202451735Y-87772857D01*
X202451735Y-87772857D02*
X202380307Y-87808571D01*
X202380307Y-87808571D02*
X202237450Y-87844285D01*
X202237450Y-87844285D02*
X202058878Y-87844285D01*
X202058878Y-87844285D02*
X201916021Y-87808571D01*
X201916021Y-87808571D02*
X201844592Y-87772857D01*
X201844592Y-87772857D02*
X201808878Y-87737143D01*
X201808878Y-87737143D02*
X201773164Y-87665714D01*
X201808878Y-106235428D02*
X201773164Y-106306857D01*
X201773164Y-106306857D02*
X201773164Y-106413999D01*
X201773164Y-106413999D02*
X201808878Y-106521142D01*
X201808878Y-106521142D02*
X201880307Y-106592571D01*
X201880307Y-106592571D02*
X201951735Y-106628285D01*
X201951735Y-106628285D02*
X202094592Y-106663999D01*
X202094592Y-106663999D02*
X202201735Y-106663999D01*
X202201735Y-106663999D02*
X202344592Y-106628285D01*
X202344592Y-106628285D02*
X202416021Y-106592571D01*
X202416021Y-106592571D02*
X202487450Y-106521142D01*
X202487450Y-106521142D02*
X202523164Y-106413999D01*
X202523164Y-106413999D02*
X202523164Y-106342571D01*
X202523164Y-106342571D02*
X202487450Y-106235428D01*
X202487450Y-106235428D02*
X202451735Y-106199714D01*
X202451735Y-106199714D02*
X202201735Y-106199714D01*
X202201735Y-106199714D02*
X202201735Y-106342571D01*
X202523164Y-105878285D02*
X201773164Y-105878285D01*
X201773164Y-105878285D02*
X202523164Y-105449714D01*
X202523164Y-105449714D02*
X201773164Y-105449714D01*
X202523164Y-105092571D02*
X201773164Y-105092571D01*
X201773164Y-105092571D02*
X201773164Y-104914000D01*
X201773164Y-104914000D02*
X201808878Y-104806857D01*
X201808878Y-104806857D02*
X201880307Y-104735428D01*
X201880307Y-104735428D02*
X201951735Y-104699714D01*
X201951735Y-104699714D02*
X202094592Y-104664000D01*
X202094592Y-104664000D02*
X202201735Y-104664000D01*
X202201735Y-104664000D02*
X202344592Y-104699714D01*
X202344592Y-104699714D02*
X202416021Y-104735428D01*
X202416021Y-104735428D02*
X202487450Y-104806857D01*
X202487450Y-104806857D02*
X202523164Y-104914000D01*
X202523164Y-104914000D02*
X202523164Y-105092571D01*
X178730835Y-90281142D02*
X178730835Y-90423999D01*
X178730835Y-90423999D02*
X178766550Y-90495428D01*
X178766550Y-90495428D02*
X178802264Y-90531142D01*
X178802264Y-90531142D02*
X178909407Y-90602571D01*
X178909407Y-90602571D02*
X179052264Y-90638285D01*
X179052264Y-90638285D02*
X179337978Y-90638285D01*
X179337978Y-90638285D02*
X179409407Y-90602571D01*
X179409407Y-90602571D02*
X179445121Y-90566857D01*
X179445121Y-90566857D02*
X179480835Y-90495428D01*
X179480835Y-90495428D02*
X179480835Y-90352571D01*
X179480835Y-90352571D02*
X179445121Y-90281142D01*
X179445121Y-90281142D02*
X179409407Y-90245428D01*
X179409407Y-90245428D02*
X179337978Y-90209714D01*
X179337978Y-90209714D02*
X179159407Y-90209714D01*
X179159407Y-90209714D02*
X179087978Y-90245428D01*
X179087978Y-90245428D02*
X179052264Y-90281142D01*
X179052264Y-90281142D02*
X179016550Y-90352571D01*
X179016550Y-90352571D02*
X179016550Y-90495428D01*
X179016550Y-90495428D02*
X179052264Y-90566857D01*
X179052264Y-90566857D02*
X179087978Y-90602571D01*
X179087978Y-90602571D02*
X179159407Y-90638285D01*
X202523164Y-62269714D02*
X202523164Y-62698285D01*
X202523164Y-62484000D02*
X201773164Y-62484000D01*
X201773164Y-62484000D02*
X201880307Y-62555428D01*
X201880307Y-62555428D02*
X201951735Y-62626857D01*
X201951735Y-62626857D02*
X201987450Y-62698285D01*
X178730835Y-77581142D02*
X178730835Y-77152571D01*
X178730835Y-77366856D02*
X179480835Y-77366856D01*
X179480835Y-77366856D02*
X179373692Y-77295428D01*
X179373692Y-77295428D02*
X179302264Y-77223999D01*
X179302264Y-77223999D02*
X179266550Y-77152571D01*
X179480835Y-77831142D02*
X179480835Y-78331142D01*
X179480835Y-78331142D02*
X178730835Y-78009714D01*
X201773164Y-80871143D02*
X201773164Y-80406857D01*
X201773164Y-80406857D02*
X202058878Y-80656857D01*
X202058878Y-80656857D02*
X202058878Y-80549714D01*
X202058878Y-80549714D02*
X202094592Y-80478286D01*
X202094592Y-80478286D02*
X202130307Y-80442571D01*
X202130307Y-80442571D02*
X202201735Y-80406857D01*
X202201735Y-80406857D02*
X202380307Y-80406857D01*
X202380307Y-80406857D02*
X202451735Y-80442571D01*
X202451735Y-80442571D02*
X202487450Y-80478286D01*
X202487450Y-80478286D02*
X202523164Y-80549714D01*
X202523164Y-80549714D02*
X202523164Y-80764000D01*
X202523164Y-80764000D02*
X202487450Y-80835428D01*
X202487450Y-80835428D02*
X202451735Y-80871143D01*
X201773164Y-80156857D02*
X201773164Y-79656857D01*
X201773164Y-79656857D02*
X202523164Y-79978285D01*
X179159407Y-82732571D02*
X179195121Y-82661142D01*
X179195121Y-82661142D02*
X179230835Y-82625428D01*
X179230835Y-82625428D02*
X179302264Y-82589714D01*
X179302264Y-82589714D02*
X179337978Y-82589714D01*
X179337978Y-82589714D02*
X179409407Y-82625428D01*
X179409407Y-82625428D02*
X179445121Y-82661142D01*
X179445121Y-82661142D02*
X179480835Y-82732571D01*
X179480835Y-82732571D02*
X179480835Y-82875428D01*
X179480835Y-82875428D02*
X179445121Y-82946857D01*
X179445121Y-82946857D02*
X179409407Y-82982571D01*
X179409407Y-82982571D02*
X179337978Y-83018285D01*
X179337978Y-83018285D02*
X179302264Y-83018285D01*
X179302264Y-83018285D02*
X179230835Y-82982571D01*
X179230835Y-82982571D02*
X179195121Y-82946857D01*
X179195121Y-82946857D02*
X179159407Y-82875428D01*
X179159407Y-82875428D02*
X179159407Y-82732571D01*
X179159407Y-82732571D02*
X179123692Y-82661142D01*
X179123692Y-82661142D02*
X179087978Y-82625428D01*
X179087978Y-82625428D02*
X179016550Y-82589714D01*
X179016550Y-82589714D02*
X178873692Y-82589714D01*
X178873692Y-82589714D02*
X178802264Y-82625428D01*
X178802264Y-82625428D02*
X178766550Y-82661142D01*
X178766550Y-82661142D02*
X178730835Y-82732571D01*
X178730835Y-82732571D02*
X178730835Y-82875428D01*
X178730835Y-82875428D02*
X178766550Y-82946857D01*
X178766550Y-82946857D02*
X178802264Y-82982571D01*
X178802264Y-82982571D02*
X178873692Y-83018285D01*
X178873692Y-83018285D02*
X179016550Y-83018285D01*
X179016550Y-83018285D02*
X179087978Y-82982571D01*
X179087978Y-82982571D02*
X179123692Y-82946857D01*
X179123692Y-82946857D02*
X179159407Y-82875428D01*
X201844592Y-101155428D02*
X201808878Y-101119714D01*
X201808878Y-101119714D02*
X201773164Y-101048286D01*
X201773164Y-101048286D02*
X201773164Y-100869714D01*
X201773164Y-100869714D02*
X201808878Y-100798286D01*
X201808878Y-100798286D02*
X201844592Y-100762571D01*
X201844592Y-100762571D02*
X201916021Y-100726857D01*
X201916021Y-100726857D02*
X201987450Y-100726857D01*
X201987450Y-100726857D02*
X202094592Y-100762571D01*
X202094592Y-100762571D02*
X202523164Y-101191143D01*
X202523164Y-101191143D02*
X202523164Y-100726857D01*
X201773164Y-100262571D02*
X201773164Y-100191142D01*
X201773164Y-100191142D02*
X201808878Y-100119714D01*
X201808878Y-100119714D02*
X201844592Y-100084000D01*
X201844592Y-100084000D02*
X201916021Y-100048285D01*
X201916021Y-100048285D02*
X202058878Y-100012571D01*
X202058878Y-100012571D02*
X202237450Y-100012571D01*
X202237450Y-100012571D02*
X202380307Y-100048285D01*
X202380307Y-100048285D02*
X202451735Y-100084000D01*
X202451735Y-100084000D02*
X202487450Y-100119714D01*
X202487450Y-100119714D02*
X202523164Y-100191142D01*
X202523164Y-100191142D02*
X202523164Y-100262571D01*
X202523164Y-100262571D02*
X202487450Y-100334000D01*
X202487450Y-100334000D02*
X202451735Y-100369714D01*
X202451735Y-100369714D02*
X202380307Y-100405428D01*
X202380307Y-100405428D02*
X202237450Y-100441142D01*
X202237450Y-100441142D02*
X202058878Y-100441142D01*
X202058878Y-100441142D02*
X201916021Y-100405428D01*
X201916021Y-100405428D02*
X201844592Y-100369714D01*
X201844592Y-100369714D02*
X201808878Y-100334000D01*
X201808878Y-100334000D02*
X201773164Y-100262571D01*
X201808878Y-55435428D02*
X201773164Y-55506857D01*
X201773164Y-55506857D02*
X201773164Y-55613999D01*
X201773164Y-55613999D02*
X201808878Y-55721142D01*
X201808878Y-55721142D02*
X201880307Y-55792571D01*
X201880307Y-55792571D02*
X201951735Y-55828285D01*
X201951735Y-55828285D02*
X202094592Y-55863999D01*
X202094592Y-55863999D02*
X202201735Y-55863999D01*
X202201735Y-55863999D02*
X202344592Y-55828285D01*
X202344592Y-55828285D02*
X202416021Y-55792571D01*
X202416021Y-55792571D02*
X202487450Y-55721142D01*
X202487450Y-55721142D02*
X202523164Y-55613999D01*
X202523164Y-55613999D02*
X202523164Y-55542571D01*
X202523164Y-55542571D02*
X202487450Y-55435428D01*
X202487450Y-55435428D02*
X202451735Y-55399714D01*
X202451735Y-55399714D02*
X202201735Y-55399714D01*
X202201735Y-55399714D02*
X202201735Y-55542571D01*
X202523164Y-55078285D02*
X201773164Y-55078285D01*
X201773164Y-55078285D02*
X202523164Y-54649714D01*
X202523164Y-54649714D02*
X201773164Y-54649714D01*
X202523164Y-54292571D02*
X201773164Y-54292571D01*
X201773164Y-54292571D02*
X201773164Y-54114000D01*
X201773164Y-54114000D02*
X201808878Y-54006857D01*
X201808878Y-54006857D02*
X201880307Y-53935428D01*
X201880307Y-53935428D02*
X201951735Y-53899714D01*
X201951735Y-53899714D02*
X202094592Y-53864000D01*
X202094592Y-53864000D02*
X202201735Y-53864000D01*
X202201735Y-53864000D02*
X202344592Y-53899714D01*
X202344592Y-53899714D02*
X202416021Y-53935428D01*
X202416021Y-53935428D02*
X202487450Y-54006857D01*
X202487450Y-54006857D02*
X202523164Y-54114000D01*
X202523164Y-54114000D02*
X202523164Y-54292571D01*
X201773164Y-85951143D02*
X201773164Y-85486857D01*
X201773164Y-85486857D02*
X202058878Y-85736857D01*
X202058878Y-85736857D02*
X202058878Y-85629714D01*
X202058878Y-85629714D02*
X202094592Y-85558286D01*
X202094592Y-85558286D02*
X202130307Y-85522571D01*
X202130307Y-85522571D02*
X202201735Y-85486857D01*
X202201735Y-85486857D02*
X202380307Y-85486857D01*
X202380307Y-85486857D02*
X202451735Y-85522571D01*
X202451735Y-85522571D02*
X202487450Y-85558286D01*
X202487450Y-85558286D02*
X202523164Y-85629714D01*
X202523164Y-85629714D02*
X202523164Y-85844000D01*
X202523164Y-85844000D02*
X202487450Y-85915428D01*
X202487450Y-85915428D02*
X202451735Y-85951143D01*
X201773164Y-84808285D02*
X201773164Y-85165428D01*
X201773164Y-85165428D02*
X202130307Y-85201142D01*
X202130307Y-85201142D02*
X202094592Y-85165428D01*
X202094592Y-85165428D02*
X202058878Y-85094000D01*
X202058878Y-85094000D02*
X202058878Y-84915428D01*
X202058878Y-84915428D02*
X202094592Y-84844000D01*
X202094592Y-84844000D02*
X202130307Y-84808285D01*
X202130307Y-84808285D02*
X202201735Y-84772571D01*
X202201735Y-84772571D02*
X202380307Y-84772571D01*
X202380307Y-84772571D02*
X202451735Y-84808285D01*
X202451735Y-84808285D02*
X202487450Y-84844000D01*
X202487450Y-84844000D02*
X202523164Y-84915428D01*
X202523164Y-84915428D02*
X202523164Y-85094000D01*
X202523164Y-85094000D02*
X202487450Y-85165428D01*
X202487450Y-85165428D02*
X202451735Y-85201142D01*
X201808878Y-108775428D02*
X201773164Y-108846857D01*
X201773164Y-108846857D02*
X201773164Y-108953999D01*
X201773164Y-108953999D02*
X201808878Y-109061142D01*
X201808878Y-109061142D02*
X201880307Y-109132571D01*
X201880307Y-109132571D02*
X201951735Y-109168285D01*
X201951735Y-109168285D02*
X202094592Y-109203999D01*
X202094592Y-109203999D02*
X202201735Y-109203999D01*
X202201735Y-109203999D02*
X202344592Y-109168285D01*
X202344592Y-109168285D02*
X202416021Y-109132571D01*
X202416021Y-109132571D02*
X202487450Y-109061142D01*
X202487450Y-109061142D02*
X202523164Y-108953999D01*
X202523164Y-108953999D02*
X202523164Y-108882571D01*
X202523164Y-108882571D02*
X202487450Y-108775428D01*
X202487450Y-108775428D02*
X202451735Y-108739714D01*
X202451735Y-108739714D02*
X202201735Y-108739714D01*
X202201735Y-108739714D02*
X202201735Y-108882571D01*
X202523164Y-108418285D02*
X201773164Y-108418285D01*
X201773164Y-108418285D02*
X202523164Y-107989714D01*
X202523164Y-107989714D02*
X201773164Y-107989714D01*
X202523164Y-107632571D02*
X201773164Y-107632571D01*
X201773164Y-107632571D02*
X201773164Y-107454000D01*
X201773164Y-107454000D02*
X201808878Y-107346857D01*
X201808878Y-107346857D02*
X201880307Y-107275428D01*
X201880307Y-107275428D02*
X201951735Y-107239714D01*
X201951735Y-107239714D02*
X202094592Y-107204000D01*
X202094592Y-107204000D02*
X202201735Y-107204000D01*
X202201735Y-107204000D02*
X202344592Y-107239714D01*
X202344592Y-107239714D02*
X202416021Y-107275428D01*
X202416021Y-107275428D02*
X202487450Y-107346857D01*
X202487450Y-107346857D02*
X202523164Y-107454000D01*
X202523164Y-107454000D02*
X202523164Y-107632571D01*
X178730835Y-102981142D02*
X178730835Y-102552571D01*
X178730835Y-102766856D02*
X179480835Y-102766856D01*
X179480835Y-102766856D02*
X179373692Y-102695428D01*
X179373692Y-102695428D02*
X179302264Y-102623999D01*
X179302264Y-102623999D02*
X179266550Y-102552571D01*
X179230835Y-103624000D02*
X178730835Y-103624000D01*
X179516550Y-103445428D02*
X178980835Y-103266857D01*
X178980835Y-103266857D02*
X178980835Y-103731142D01*
X179480835Y-56475428D02*
X179480835Y-56939714D01*
X179480835Y-56939714D02*
X179195121Y-56689714D01*
X179195121Y-56689714D02*
X179195121Y-56796857D01*
X179195121Y-56796857D02*
X179159407Y-56868286D01*
X179159407Y-56868286D02*
X179123692Y-56904000D01*
X179123692Y-56904000D02*
X179052264Y-56939714D01*
X179052264Y-56939714D02*
X178873692Y-56939714D01*
X178873692Y-56939714D02*
X178802264Y-56904000D01*
X178802264Y-56904000D02*
X178766550Y-56868286D01*
X178766550Y-56868286D02*
X178730835Y-56796857D01*
X178730835Y-56796857D02*
X178730835Y-56582571D01*
X178730835Y-56582571D02*
X178766550Y-56511143D01*
X178766550Y-56511143D02*
X178802264Y-56475428D01*
X179480835Y-57154000D02*
X178730835Y-57404000D01*
X178730835Y-57404000D02*
X179480835Y-57654000D01*
X179480835Y-57832571D02*
X179480835Y-58296857D01*
X179480835Y-58296857D02*
X179195121Y-58046857D01*
X179195121Y-58046857D02*
X179195121Y-58154000D01*
X179195121Y-58154000D02*
X179159407Y-58225429D01*
X179159407Y-58225429D02*
X179123692Y-58261143D01*
X179123692Y-58261143D02*
X179052264Y-58296857D01*
X179052264Y-58296857D02*
X178873692Y-58296857D01*
X178873692Y-58296857D02*
X178802264Y-58261143D01*
X178802264Y-58261143D02*
X178766550Y-58225429D01*
X178766550Y-58225429D02*
X178730835Y-58154000D01*
X178730835Y-58154000D02*
X178730835Y-57939714D01*
X178730835Y-57939714D02*
X178766550Y-57868286D01*
X178766550Y-57868286D02*
X178802264Y-57832571D01*
X178730835Y-100441142D02*
X178730835Y-100012571D01*
X178730835Y-100226856D02*
X179480835Y-100226856D01*
X179480835Y-100226856D02*
X179373692Y-100155428D01*
X179373692Y-100155428D02*
X179302264Y-100083999D01*
X179302264Y-100083999D02*
X179266550Y-100012571D01*
X179480835Y-100691142D02*
X179480835Y-101155428D01*
X179480835Y-101155428D02*
X179195121Y-100905428D01*
X179195121Y-100905428D02*
X179195121Y-101012571D01*
X179195121Y-101012571D02*
X179159407Y-101084000D01*
X179159407Y-101084000D02*
X179123692Y-101119714D01*
X179123692Y-101119714D02*
X179052264Y-101155428D01*
X179052264Y-101155428D02*
X178873692Y-101155428D01*
X178873692Y-101155428D02*
X178802264Y-101119714D01*
X178802264Y-101119714D02*
X178766550Y-101084000D01*
X178766550Y-101084000D02*
X178730835Y-101012571D01*
X178730835Y-101012571D02*
X178730835Y-100798285D01*
X178730835Y-100798285D02*
X178766550Y-100726857D01*
X178766550Y-100726857D02*
X178802264Y-100691142D01*
X201773164Y-57975428D02*
X201773164Y-57546857D01*
X202523164Y-57761142D02*
X201773164Y-57761142D01*
X201773164Y-57368285D02*
X202523164Y-56868285D01*
X201773164Y-56868285D02*
X202523164Y-57368285D01*
X202023164Y-90638286D02*
X202523164Y-90638286D01*
X201737450Y-90816857D02*
X202273164Y-90995428D01*
X202273164Y-90995428D02*
X202273164Y-90531143D01*
X201773164Y-89888285D02*
X201773164Y-90245428D01*
X201773164Y-90245428D02*
X202130307Y-90281142D01*
X202130307Y-90281142D02*
X202094592Y-90245428D01*
X202094592Y-90245428D02*
X202058878Y-90174000D01*
X202058878Y-90174000D02*
X202058878Y-89995428D01*
X202058878Y-89995428D02*
X202094592Y-89924000D01*
X202094592Y-89924000D02*
X202130307Y-89888285D01*
X202130307Y-89888285D02*
X202201735Y-89852571D01*
X202201735Y-89852571D02*
X202380307Y-89852571D01*
X202380307Y-89852571D02*
X202451735Y-89888285D01*
X202451735Y-89888285D02*
X202487450Y-89924000D01*
X202487450Y-89924000D02*
X202523164Y-89995428D01*
X202523164Y-89995428D02*
X202523164Y-90174000D01*
X202523164Y-90174000D02*
X202487450Y-90245428D01*
X202487450Y-90245428D02*
X202451735Y-90281142D01*
X202023164Y-70318286D02*
X202523164Y-70318286D01*
X201737450Y-70496857D02*
X202273164Y-70675428D01*
X202273164Y-70675428D02*
X202273164Y-70211143D01*
X202523164Y-69532571D02*
X202523164Y-69961142D01*
X202523164Y-69746857D02*
X201773164Y-69746857D01*
X201773164Y-69746857D02*
X201880307Y-69818285D01*
X201880307Y-69818285D02*
X201951735Y-69889714D01*
X201951735Y-69889714D02*
X201987450Y-69961142D01*
X178730835Y-97901142D02*
X178730835Y-97472571D01*
X178730835Y-97686856D02*
X179480835Y-97686856D01*
X179480835Y-97686856D02*
X179373692Y-97615428D01*
X179373692Y-97615428D02*
X179302264Y-97543999D01*
X179302264Y-97543999D02*
X179266550Y-97472571D01*
X179409407Y-98186857D02*
X179445121Y-98222571D01*
X179445121Y-98222571D02*
X179480835Y-98294000D01*
X179480835Y-98294000D02*
X179480835Y-98472571D01*
X179480835Y-98472571D02*
X179445121Y-98544000D01*
X179445121Y-98544000D02*
X179409407Y-98579714D01*
X179409407Y-98579714D02*
X179337978Y-98615428D01*
X179337978Y-98615428D02*
X179266550Y-98615428D01*
X179266550Y-98615428D02*
X179159407Y-98579714D01*
X179159407Y-98579714D02*
X178730835Y-98151142D01*
X178730835Y-98151142D02*
X178730835Y-98615428D01*
X179480835Y-69853999D02*
X179480835Y-70353999D01*
X179480835Y-70353999D02*
X178730835Y-70032571D01*
X179480835Y-85093999D02*
X179480835Y-85558285D01*
X179480835Y-85558285D02*
X179195121Y-85308285D01*
X179195121Y-85308285D02*
X179195121Y-85415428D01*
X179195121Y-85415428D02*
X179159407Y-85486857D01*
X179159407Y-85486857D02*
X179123692Y-85522571D01*
X179123692Y-85522571D02*
X179052264Y-85558285D01*
X179052264Y-85558285D02*
X178873692Y-85558285D01*
X178873692Y-85558285D02*
X178802264Y-85522571D01*
X178802264Y-85522571D02*
X178766550Y-85486857D01*
X178766550Y-85486857D02*
X178730835Y-85415428D01*
X178730835Y-85415428D02*
X178730835Y-85201142D01*
X178730835Y-85201142D02*
X178766550Y-85129714D01*
X178766550Y-85129714D02*
X178802264Y-85093999D01*
X202523164Y-103266857D02*
X202523164Y-103695428D01*
X202523164Y-103481143D02*
X201773164Y-103481143D01*
X201773164Y-103481143D02*
X201880307Y-103552571D01*
X201880307Y-103552571D02*
X201951735Y-103624000D01*
X201951735Y-103624000D02*
X201987450Y-103695428D01*
X202523164Y-102909714D02*
X202523164Y-102766857D01*
X202523164Y-102766857D02*
X202487450Y-102695428D01*
X202487450Y-102695428D02*
X202451735Y-102659714D01*
X202451735Y-102659714D02*
X202344592Y-102588285D01*
X202344592Y-102588285D02*
X202201735Y-102552571D01*
X202201735Y-102552571D02*
X201916021Y-102552571D01*
X201916021Y-102552571D02*
X201844592Y-102588285D01*
X201844592Y-102588285D02*
X201808878Y-102624000D01*
X201808878Y-102624000D02*
X201773164Y-102695428D01*
X201773164Y-102695428D02*
X201773164Y-102838285D01*
X201773164Y-102838285D02*
X201808878Y-102909714D01*
X201808878Y-102909714D02*
X201844592Y-102945428D01*
X201844592Y-102945428D02*
X201916021Y-102981142D01*
X201916021Y-102981142D02*
X202094592Y-102981142D01*
X202094592Y-102981142D02*
X202166021Y-102945428D01*
X202166021Y-102945428D02*
X202201735Y-102909714D01*
X202201735Y-102909714D02*
X202237450Y-102838285D01*
X202237450Y-102838285D02*
X202237450Y-102695428D01*
X202237450Y-102695428D02*
X202201735Y-102624000D01*
X202201735Y-102624000D02*
X202166021Y-102588285D01*
X202166021Y-102588285D02*
X202094592Y-102552571D01*
X179230835Y-87669714D02*
X178730835Y-87669714D01*
X179516550Y-87491142D02*
X178980835Y-87312571D01*
X178980835Y-87312571D02*
X178980835Y-87776856D01*
X179480835Y-88384000D02*
X179480835Y-88241142D01*
X179480835Y-88241142D02*
X179445121Y-88169714D01*
X179445121Y-88169714D02*
X179409407Y-88134000D01*
X179409407Y-88134000D02*
X179302264Y-88062571D01*
X179302264Y-88062571D02*
X179159407Y-88026857D01*
X179159407Y-88026857D02*
X178873692Y-88026857D01*
X178873692Y-88026857D02*
X178802264Y-88062571D01*
X178802264Y-88062571D02*
X178766550Y-88098285D01*
X178766550Y-88098285D02*
X178730835Y-88169714D01*
X178730835Y-88169714D02*
X178730835Y-88312571D01*
X178730835Y-88312571D02*
X178766550Y-88384000D01*
X178766550Y-88384000D02*
X178802264Y-88419714D01*
X178802264Y-88419714D02*
X178873692Y-88455428D01*
X178873692Y-88455428D02*
X179052264Y-88455428D01*
X179052264Y-88455428D02*
X179123692Y-88419714D01*
X179123692Y-88419714D02*
X179159407Y-88384000D01*
X179159407Y-88384000D02*
X179195121Y-88312571D01*
X179195121Y-88312571D02*
X179195121Y-88169714D01*
X179195121Y-88169714D02*
X179159407Y-88098285D01*
X179159407Y-88098285D02*
X179123692Y-88062571D01*
X179123692Y-88062571D02*
X179052264Y-88026857D01*
X178730835Y-59533285D02*
X179087978Y-59283285D01*
X178730835Y-59104714D02*
X179480835Y-59104714D01*
X179480835Y-59104714D02*
X179480835Y-59390428D01*
X179480835Y-59390428D02*
X179445121Y-59461857D01*
X179445121Y-59461857D02*
X179409407Y-59497571D01*
X179409407Y-59497571D02*
X179337978Y-59533285D01*
X179337978Y-59533285D02*
X179230835Y-59533285D01*
X179230835Y-59533285D02*
X179159407Y-59497571D01*
X179159407Y-59497571D02*
X179123692Y-59461857D01*
X179123692Y-59461857D02*
X179087978Y-59390428D01*
X179087978Y-59390428D02*
X179087978Y-59104714D01*
X178766550Y-59819000D02*
X178730835Y-59926143D01*
X178730835Y-59926143D02*
X178730835Y-60104714D01*
X178730835Y-60104714D02*
X178766550Y-60176143D01*
X178766550Y-60176143D02*
X178802264Y-60211857D01*
X178802264Y-60211857D02*
X178873692Y-60247571D01*
X178873692Y-60247571D02*
X178945121Y-60247571D01*
X178945121Y-60247571D02*
X179016550Y-60211857D01*
X179016550Y-60211857D02*
X179052264Y-60176143D01*
X179052264Y-60176143D02*
X179087978Y-60104714D01*
X179087978Y-60104714D02*
X179123692Y-59961857D01*
X179123692Y-59961857D02*
X179159407Y-59890428D01*
X179159407Y-59890428D02*
X179195121Y-59854714D01*
X179195121Y-59854714D02*
X179266550Y-59819000D01*
X179266550Y-59819000D02*
X179337978Y-59819000D01*
X179337978Y-59819000D02*
X179409407Y-59854714D01*
X179409407Y-59854714D02*
X179445121Y-59890428D01*
X179445121Y-59890428D02*
X179480835Y-59961857D01*
X179480835Y-59961857D02*
X179480835Y-60140428D01*
X179480835Y-60140428D02*
X179445121Y-60247571D01*
X179480835Y-60461857D02*
X179480835Y-60890429D01*
X178730835Y-60676143D02*
X179480835Y-60676143D01*
X178730835Y-80121142D02*
X178730835Y-79692571D01*
X178730835Y-79906856D02*
X179480835Y-79906856D01*
X179480835Y-79906856D02*
X179373692Y-79835428D01*
X179373692Y-79835428D02*
X179302264Y-79763999D01*
X179302264Y-79763999D02*
X179266550Y-79692571D01*
X179159407Y-80549714D02*
X179195121Y-80478285D01*
X179195121Y-80478285D02*
X179230835Y-80442571D01*
X179230835Y-80442571D02*
X179302264Y-80406857D01*
X179302264Y-80406857D02*
X179337978Y-80406857D01*
X179337978Y-80406857D02*
X179409407Y-80442571D01*
X179409407Y-80442571D02*
X179445121Y-80478285D01*
X179445121Y-80478285D02*
X179480835Y-80549714D01*
X179480835Y-80549714D02*
X179480835Y-80692571D01*
X179480835Y-80692571D02*
X179445121Y-80764000D01*
X179445121Y-80764000D02*
X179409407Y-80799714D01*
X179409407Y-80799714D02*
X179337978Y-80835428D01*
X179337978Y-80835428D02*
X179302264Y-80835428D01*
X179302264Y-80835428D02*
X179230835Y-80799714D01*
X179230835Y-80799714D02*
X179195121Y-80764000D01*
X179195121Y-80764000D02*
X179159407Y-80692571D01*
X179159407Y-80692571D02*
X179159407Y-80549714D01*
X179159407Y-80549714D02*
X179123692Y-80478285D01*
X179123692Y-80478285D02*
X179087978Y-80442571D01*
X179087978Y-80442571D02*
X179016550Y-80406857D01*
X179016550Y-80406857D02*
X178873692Y-80406857D01*
X178873692Y-80406857D02*
X178802264Y-80442571D01*
X178802264Y-80442571D02*
X178766550Y-80478285D01*
X178766550Y-80478285D02*
X178730835Y-80549714D01*
X178730835Y-80549714D02*
X178730835Y-80692571D01*
X178730835Y-80692571D02*
X178766550Y-80764000D01*
X178766550Y-80764000D02*
X178802264Y-80799714D01*
X178802264Y-80799714D02*
X178873692Y-80835428D01*
X178873692Y-80835428D02*
X179016550Y-80835428D01*
X179016550Y-80835428D02*
X179087978Y-80799714D01*
X179087978Y-80799714D02*
X179123692Y-80764000D01*
X179123692Y-80764000D02*
X179159407Y-80692571D01*
X202023164Y-93178286D02*
X202523164Y-93178286D01*
X201737450Y-93356857D02*
X202273164Y-93535428D01*
X202273164Y-93535428D02*
X202273164Y-93071143D01*
X202094592Y-92678285D02*
X202058878Y-92749714D01*
X202058878Y-92749714D02*
X202023164Y-92785428D01*
X202023164Y-92785428D02*
X201951735Y-92821142D01*
X201951735Y-92821142D02*
X201916021Y-92821142D01*
X201916021Y-92821142D02*
X201844592Y-92785428D01*
X201844592Y-92785428D02*
X201808878Y-92749714D01*
X201808878Y-92749714D02*
X201773164Y-92678285D01*
X201773164Y-92678285D02*
X201773164Y-92535428D01*
X201773164Y-92535428D02*
X201808878Y-92464000D01*
X201808878Y-92464000D02*
X201844592Y-92428285D01*
X201844592Y-92428285D02*
X201916021Y-92392571D01*
X201916021Y-92392571D02*
X201951735Y-92392571D01*
X201951735Y-92392571D02*
X202023164Y-92428285D01*
X202023164Y-92428285D02*
X202058878Y-92464000D01*
X202058878Y-92464000D02*
X202094592Y-92535428D01*
X202094592Y-92535428D02*
X202094592Y-92678285D01*
X202094592Y-92678285D02*
X202130307Y-92749714D01*
X202130307Y-92749714D02*
X202166021Y-92785428D01*
X202166021Y-92785428D02*
X202237450Y-92821142D01*
X202237450Y-92821142D02*
X202380307Y-92821142D01*
X202380307Y-92821142D02*
X202451735Y-92785428D01*
X202451735Y-92785428D02*
X202487450Y-92749714D01*
X202487450Y-92749714D02*
X202523164Y-92678285D01*
X202523164Y-92678285D02*
X202523164Y-92535428D01*
X202523164Y-92535428D02*
X202487450Y-92464000D01*
X202487450Y-92464000D02*
X202451735Y-92428285D01*
X202451735Y-92428285D02*
X202380307Y-92392571D01*
X202380307Y-92392571D02*
X202237450Y-92392571D01*
X202237450Y-92392571D02*
X202166021Y-92428285D01*
X202166021Y-92428285D02*
X202130307Y-92464000D01*
X202130307Y-92464000D02*
X202094592Y-92535428D01*
X201773164Y-83411143D02*
X201773164Y-82946857D01*
X201773164Y-82946857D02*
X202058878Y-83196857D01*
X202058878Y-83196857D02*
X202058878Y-83089714D01*
X202058878Y-83089714D02*
X202094592Y-83018286D01*
X202094592Y-83018286D02*
X202130307Y-82982571D01*
X202130307Y-82982571D02*
X202201735Y-82946857D01*
X202201735Y-82946857D02*
X202380307Y-82946857D01*
X202380307Y-82946857D02*
X202451735Y-82982571D01*
X202451735Y-82982571D02*
X202487450Y-83018286D01*
X202487450Y-83018286D02*
X202523164Y-83089714D01*
X202523164Y-83089714D02*
X202523164Y-83304000D01*
X202523164Y-83304000D02*
X202487450Y-83375428D01*
X202487450Y-83375428D02*
X202451735Y-83411143D01*
X201773164Y-82304000D02*
X201773164Y-82446857D01*
X201773164Y-82446857D02*
X201808878Y-82518285D01*
X201808878Y-82518285D02*
X201844592Y-82554000D01*
X201844592Y-82554000D02*
X201951735Y-82625428D01*
X201951735Y-82625428D02*
X202094592Y-82661142D01*
X202094592Y-82661142D02*
X202380307Y-82661142D01*
X202380307Y-82661142D02*
X202451735Y-82625428D01*
X202451735Y-82625428D02*
X202487450Y-82589714D01*
X202487450Y-82589714D02*
X202523164Y-82518285D01*
X202523164Y-82518285D02*
X202523164Y-82375428D01*
X202523164Y-82375428D02*
X202487450Y-82304000D01*
X202487450Y-82304000D02*
X202451735Y-82268285D01*
X202451735Y-82268285D02*
X202380307Y-82232571D01*
X202380307Y-82232571D02*
X202201735Y-82232571D01*
X202201735Y-82232571D02*
X202130307Y-82268285D01*
X202130307Y-82268285D02*
X202094592Y-82304000D01*
X202094592Y-82304000D02*
X202058878Y-82375428D01*
X202058878Y-82375428D02*
X202058878Y-82518285D01*
X202058878Y-82518285D02*
X202094592Y-82589714D01*
X202094592Y-82589714D02*
X202130307Y-82625428D01*
X202130307Y-82625428D02*
X202201735Y-82661142D01*
X201844592Y-65238285D02*
X201808878Y-65202571D01*
X201808878Y-65202571D02*
X201773164Y-65131143D01*
X201773164Y-65131143D02*
X201773164Y-64952571D01*
X201773164Y-64952571D02*
X201808878Y-64881143D01*
X201808878Y-64881143D02*
X201844592Y-64845428D01*
X201844592Y-64845428D02*
X201916021Y-64809714D01*
X201916021Y-64809714D02*
X201987450Y-64809714D01*
X201987450Y-64809714D02*
X202094592Y-64845428D01*
X202094592Y-64845428D02*
X202523164Y-65274000D01*
X202523164Y-65274000D02*
X202523164Y-64809714D01*
X179480835Y-67706857D02*
X179480835Y-67563999D01*
X179480835Y-67563999D02*
X179445121Y-67492571D01*
X179445121Y-67492571D02*
X179409407Y-67456857D01*
X179409407Y-67456857D02*
X179302264Y-67385428D01*
X179302264Y-67385428D02*
X179159407Y-67349714D01*
X179159407Y-67349714D02*
X178873692Y-67349714D01*
X178873692Y-67349714D02*
X178802264Y-67385428D01*
X178802264Y-67385428D02*
X178766550Y-67421142D01*
X178766550Y-67421142D02*
X178730835Y-67492571D01*
X178730835Y-67492571D02*
X178730835Y-67635428D01*
X178730835Y-67635428D02*
X178766550Y-67706857D01*
X178766550Y-67706857D02*
X178802264Y-67742571D01*
X178802264Y-67742571D02*
X178873692Y-67778285D01*
X178873692Y-67778285D02*
X179052264Y-67778285D01*
X179052264Y-67778285D02*
X179123692Y-67742571D01*
X179123692Y-67742571D02*
X179159407Y-67706857D01*
X179159407Y-67706857D02*
X179195121Y-67635428D01*
X179195121Y-67635428D02*
X179195121Y-67492571D01*
X179195121Y-67492571D02*
X179159407Y-67421142D01*
X179159407Y-67421142D02*
X179123692Y-67385428D01*
X179123692Y-67385428D02*
X179052264Y-67349714D01*
X179480835Y-65202571D02*
X179480835Y-64845428D01*
X179480835Y-64845428D02*
X179123692Y-64809714D01*
X179123692Y-64809714D02*
X179159407Y-64845428D01*
X179159407Y-64845428D02*
X179195121Y-64916857D01*
X179195121Y-64916857D02*
X179195121Y-65095428D01*
X179195121Y-65095428D02*
X179159407Y-65166857D01*
X179159407Y-65166857D02*
X179123692Y-65202571D01*
X179123692Y-65202571D02*
X179052264Y-65238285D01*
X179052264Y-65238285D02*
X178873692Y-65238285D01*
X178873692Y-65238285D02*
X178802264Y-65202571D01*
X178802264Y-65202571D02*
X178766550Y-65166857D01*
X178766550Y-65166857D02*
X178730835Y-65095428D01*
X178730835Y-65095428D02*
X178730835Y-64916857D01*
X178730835Y-64916857D02*
X178766550Y-64845428D01*
X178766550Y-64845428D02*
X178802264Y-64809714D01*
X201844592Y-98615428D02*
X201808878Y-98579714D01*
X201808878Y-98579714D02*
X201773164Y-98508286D01*
X201773164Y-98508286D02*
X201773164Y-98329714D01*
X201773164Y-98329714D02*
X201808878Y-98258286D01*
X201808878Y-98258286D02*
X201844592Y-98222571D01*
X201844592Y-98222571D02*
X201916021Y-98186857D01*
X201916021Y-98186857D02*
X201987450Y-98186857D01*
X201987450Y-98186857D02*
X202094592Y-98222571D01*
X202094592Y-98222571D02*
X202523164Y-98651143D01*
X202523164Y-98651143D02*
X202523164Y-98186857D01*
X202523164Y-97472571D02*
X202523164Y-97901142D01*
X202523164Y-97686857D02*
X201773164Y-97686857D01*
X201773164Y-97686857D02*
X201880307Y-97758285D01*
X201880307Y-97758285D02*
X201951735Y-97829714D01*
X201951735Y-97829714D02*
X201987450Y-97901142D01*
X201773164Y-75791143D02*
X201773164Y-75326857D01*
X201773164Y-75326857D02*
X202058878Y-75576857D01*
X202058878Y-75576857D02*
X202058878Y-75469714D01*
X202058878Y-75469714D02*
X202094592Y-75398286D01*
X202094592Y-75398286D02*
X202130307Y-75362571D01*
X202130307Y-75362571D02*
X202201735Y-75326857D01*
X202201735Y-75326857D02*
X202380307Y-75326857D01*
X202380307Y-75326857D02*
X202451735Y-75362571D01*
X202451735Y-75362571D02*
X202487450Y-75398286D01*
X202487450Y-75398286D02*
X202523164Y-75469714D01*
X202523164Y-75469714D02*
X202523164Y-75684000D01*
X202523164Y-75684000D02*
X202487450Y-75755428D01*
X202487450Y-75755428D02*
X202451735Y-75791143D01*
X202523164Y-74969714D02*
X202523164Y-74826857D01*
X202523164Y-74826857D02*
X202487450Y-74755428D01*
X202487450Y-74755428D02*
X202451735Y-74719714D01*
X202451735Y-74719714D02*
X202344592Y-74648285D01*
X202344592Y-74648285D02*
X202201735Y-74612571D01*
X202201735Y-74612571D02*
X201916021Y-74612571D01*
X201916021Y-74612571D02*
X201844592Y-74648285D01*
X201844592Y-74648285D02*
X201808878Y-74684000D01*
X201808878Y-74684000D02*
X201773164Y-74755428D01*
X201773164Y-74755428D02*
X201773164Y-74898285D01*
X201773164Y-74898285D02*
X201808878Y-74969714D01*
X201808878Y-74969714D02*
X201844592Y-75005428D01*
X201844592Y-75005428D02*
X201916021Y-75041142D01*
X201916021Y-75041142D02*
X202094592Y-75041142D01*
X202094592Y-75041142D02*
X202166021Y-75005428D01*
X202166021Y-75005428D02*
X202201735Y-74969714D01*
X202201735Y-74969714D02*
X202237450Y-74898285D01*
X202237450Y-74898285D02*
X202237450Y-74755428D01*
X202237450Y-74755428D02*
X202201735Y-74684000D01*
X202201735Y-74684000D02*
X202166021Y-74648285D01*
X202166021Y-74648285D02*
X202094592Y-74612571D01*
X178730835Y-75041142D02*
X178730835Y-74612571D01*
X178730835Y-74826856D02*
X179480835Y-74826856D01*
X179480835Y-74826856D02*
X179373692Y-74755428D01*
X179373692Y-74755428D02*
X179302264Y-74683999D01*
X179302264Y-74683999D02*
X179266550Y-74612571D01*
X179480835Y-75684000D02*
X179480835Y-75541142D01*
X179480835Y-75541142D02*
X179445121Y-75469714D01*
X179445121Y-75469714D02*
X179409407Y-75434000D01*
X179409407Y-75434000D02*
X179302264Y-75362571D01*
X179302264Y-75362571D02*
X179159407Y-75326857D01*
X179159407Y-75326857D02*
X178873692Y-75326857D01*
X178873692Y-75326857D02*
X178802264Y-75362571D01*
X178802264Y-75362571D02*
X178766550Y-75398285D01*
X178766550Y-75398285D02*
X178730835Y-75469714D01*
X178730835Y-75469714D02*
X178730835Y-75612571D01*
X178730835Y-75612571D02*
X178766550Y-75684000D01*
X178766550Y-75684000D02*
X178802264Y-75719714D01*
X178802264Y-75719714D02*
X178873692Y-75755428D01*
X178873692Y-75755428D02*
X179052264Y-75755428D01*
X179052264Y-75755428D02*
X179123692Y-75719714D01*
X179123692Y-75719714D02*
X179159407Y-75684000D01*
X179159407Y-75684000D02*
X179195121Y-75612571D01*
X179195121Y-75612571D02*
X179195121Y-75469714D01*
X179195121Y-75469714D02*
X179159407Y-75398285D01*
X179159407Y-75398285D02*
X179123692Y-75362571D01*
X179123692Y-75362571D02*
X179052264Y-75326857D01*
X178730835Y-72501142D02*
X178730835Y-72072571D01*
X178730835Y-72286856D02*
X179480835Y-72286856D01*
X179480835Y-72286856D02*
X179373692Y-72215428D01*
X179373692Y-72215428D02*
X179302264Y-72143999D01*
X179302264Y-72143999D02*
X179266550Y-72072571D01*
X179480835Y-73179714D02*
X179480835Y-72822571D01*
X179480835Y-72822571D02*
X179123692Y-72786857D01*
X179123692Y-72786857D02*
X179159407Y-72822571D01*
X179159407Y-72822571D02*
X179195121Y-72894000D01*
X179195121Y-72894000D02*
X179195121Y-73072571D01*
X179195121Y-73072571D02*
X179159407Y-73144000D01*
X179159407Y-73144000D02*
X179123692Y-73179714D01*
X179123692Y-73179714D02*
X179052264Y-73215428D01*
X179052264Y-73215428D02*
X178873692Y-73215428D01*
X178873692Y-73215428D02*
X178802264Y-73179714D01*
X178802264Y-73179714D02*
X178766550Y-73144000D01*
X178766550Y-73144000D02*
X178730835Y-73072571D01*
X178730835Y-73072571D02*
X178730835Y-72894000D01*
X178730835Y-72894000D02*
X178766550Y-72822571D01*
X178766550Y-72822571D02*
X178802264Y-72786857D01*
X188342999Y-76031164D02*
X188092999Y-75674021D01*
X187914428Y-76031164D02*
X187914428Y-75281164D01*
X187914428Y-75281164D02*
X188200142Y-75281164D01*
X188200142Y-75281164D02*
X188271571Y-75316878D01*
X188271571Y-75316878D02*
X188307285Y-75352592D01*
X188307285Y-75352592D02*
X188342999Y-75424021D01*
X188342999Y-75424021D02*
X188342999Y-75531164D01*
X188342999Y-75531164D02*
X188307285Y-75602592D01*
X188307285Y-75602592D02*
X188271571Y-75638307D01*
X188271571Y-75638307D02*
X188200142Y-75674021D01*
X188200142Y-75674021D02*
X187914428Y-75674021D01*
X188592999Y-75281164D02*
X189057285Y-75281164D01*
X189057285Y-75281164D02*
X188807285Y-75566878D01*
X188807285Y-75566878D02*
X188914428Y-75566878D01*
X188914428Y-75566878D02*
X188985857Y-75602592D01*
X188985857Y-75602592D02*
X189021571Y-75638307D01*
X189021571Y-75638307D02*
X189057285Y-75709735D01*
X189057285Y-75709735D02*
X189057285Y-75888307D01*
X189057285Y-75888307D02*
X189021571Y-75959735D01*
X189021571Y-75959735D02*
X188985857Y-75995450D01*
X188985857Y-75995450D02*
X188914428Y-76031164D01*
X188914428Y-76031164D02*
X188700142Y-76031164D01*
X188700142Y-76031164D02*
X188628714Y-75995450D01*
X188628714Y-75995450D02*
X188592999Y-75959735D01*
X181797172Y-90691735D02*
X181761458Y-90727450D01*
X181761458Y-90727450D02*
X181654315Y-90763164D01*
X181654315Y-90763164D02*
X181582887Y-90763164D01*
X181582887Y-90763164D02*
X181475744Y-90727450D01*
X181475744Y-90727450D02*
X181404315Y-90656021D01*
X181404315Y-90656021D02*
X181368601Y-90584592D01*
X181368601Y-90584592D02*
X181332887Y-90441735D01*
X181332887Y-90441735D02*
X181332887Y-90334592D01*
X181332887Y-90334592D02*
X181368601Y-90191735D01*
X181368601Y-90191735D02*
X181404315Y-90120307D01*
X181404315Y-90120307D02*
X181475744Y-90048878D01*
X181475744Y-90048878D02*
X181582887Y-90013164D01*
X181582887Y-90013164D02*
X181654315Y-90013164D01*
X181654315Y-90013164D02*
X181761458Y-90048878D01*
X181761458Y-90048878D02*
X181797172Y-90084592D01*
X182225744Y-90334592D02*
X182154315Y-90298878D01*
X182154315Y-90298878D02*
X182118601Y-90263164D01*
X182118601Y-90263164D02*
X182082887Y-90191735D01*
X182082887Y-90191735D02*
X182082887Y-90156021D01*
X182082887Y-90156021D02*
X182118601Y-90084592D01*
X182118601Y-90084592D02*
X182154315Y-90048878D01*
X182154315Y-90048878D02*
X182225744Y-90013164D01*
X182225744Y-90013164D02*
X182368601Y-90013164D01*
X182368601Y-90013164D02*
X182440030Y-90048878D01*
X182440030Y-90048878D02*
X182475744Y-90084592D01*
X182475744Y-90084592D02*
X182511458Y-90156021D01*
X182511458Y-90156021D02*
X182511458Y-90191735D01*
X182511458Y-90191735D02*
X182475744Y-90263164D01*
X182475744Y-90263164D02*
X182440030Y-90298878D01*
X182440030Y-90298878D02*
X182368601Y-90334592D01*
X182368601Y-90334592D02*
X182225744Y-90334592D01*
X182225744Y-90334592D02*
X182154315Y-90370307D01*
X182154315Y-90370307D02*
X182118601Y-90406021D01*
X182118601Y-90406021D02*
X182082887Y-90477450D01*
X182082887Y-90477450D02*
X182082887Y-90620307D01*
X182082887Y-90620307D02*
X182118601Y-90691735D01*
X182118601Y-90691735D02*
X182154315Y-90727450D01*
X182154315Y-90727450D02*
X182225744Y-90763164D01*
X182225744Y-90763164D02*
X182368601Y-90763164D01*
X182368601Y-90763164D02*
X182440030Y-90727450D01*
X182440030Y-90727450D02*
X182475744Y-90691735D01*
X182475744Y-90691735D02*
X182511458Y-90620307D01*
X182511458Y-90620307D02*
X182511458Y-90477450D01*
X182511458Y-90477450D02*
X182475744Y-90406021D01*
X182475744Y-90406021D02*
X182440030Y-90370307D01*
X182440030Y-90370307D02*
X182368601Y-90334592D01*
X194184999Y-96986164D02*
X193934999Y-96629021D01*
X193756428Y-96986164D02*
X193756428Y-96236164D01*
X193756428Y-96236164D02*
X194042142Y-96236164D01*
X194042142Y-96236164D02*
X194113571Y-96271878D01*
X194113571Y-96271878D02*
X194149285Y-96307592D01*
X194149285Y-96307592D02*
X194184999Y-96379021D01*
X194184999Y-96379021D02*
X194184999Y-96486164D01*
X194184999Y-96486164D02*
X194149285Y-96557592D01*
X194149285Y-96557592D02*
X194113571Y-96593307D01*
X194113571Y-96593307D02*
X194042142Y-96629021D01*
X194042142Y-96629021D02*
X193756428Y-96629021D01*
X194827857Y-96236164D02*
X194684999Y-96236164D01*
X194684999Y-96236164D02*
X194613571Y-96271878D01*
X194613571Y-96271878D02*
X194577857Y-96307592D01*
X194577857Y-96307592D02*
X194506428Y-96414735D01*
X194506428Y-96414735D02*
X194470714Y-96557592D01*
X194470714Y-96557592D02*
X194470714Y-96843307D01*
X194470714Y-96843307D02*
X194506428Y-96914735D01*
X194506428Y-96914735D02*
X194542142Y-96950450D01*
X194542142Y-96950450D02*
X194613571Y-96986164D01*
X194613571Y-96986164D02*
X194756428Y-96986164D01*
X194756428Y-96986164D02*
X194827857Y-96950450D01*
X194827857Y-96950450D02*
X194863571Y-96914735D01*
X194863571Y-96914735D02*
X194899285Y-96843307D01*
X194899285Y-96843307D02*
X194899285Y-96664735D01*
X194899285Y-96664735D02*
X194863571Y-96593307D01*
X194863571Y-96593307D02*
X194827857Y-96557592D01*
X194827857Y-96557592D02*
X194756428Y-96521878D01*
X194756428Y-96521878D02*
X194613571Y-96521878D01*
X194613571Y-96521878D02*
X194542142Y-96557592D01*
X194542142Y-96557592D02*
X194506428Y-96593307D01*
X194506428Y-96593307D02*
X194470714Y-96664735D01*
X181797172Y-88659735D02*
X181761458Y-88695450D01*
X181761458Y-88695450D02*
X181654315Y-88731164D01*
X181654315Y-88731164D02*
X181582887Y-88731164D01*
X181582887Y-88731164D02*
X181475744Y-88695450D01*
X181475744Y-88695450D02*
X181404315Y-88624021D01*
X181404315Y-88624021D02*
X181368601Y-88552592D01*
X181368601Y-88552592D02*
X181332887Y-88409735D01*
X181332887Y-88409735D02*
X181332887Y-88302592D01*
X181332887Y-88302592D02*
X181368601Y-88159735D01*
X181368601Y-88159735D02*
X181404315Y-88088307D01*
X181404315Y-88088307D02*
X181475744Y-88016878D01*
X181475744Y-88016878D02*
X181582887Y-87981164D01*
X181582887Y-87981164D02*
X181654315Y-87981164D01*
X181654315Y-87981164D02*
X181761458Y-88016878D01*
X181761458Y-88016878D02*
X181797172Y-88052592D01*
X182047172Y-87981164D02*
X182547172Y-87981164D01*
X182547172Y-87981164D02*
X182225744Y-88731164D01*
X196470999Y-85429164D02*
X196220999Y-85072021D01*
X196042428Y-85429164D02*
X196042428Y-84679164D01*
X196042428Y-84679164D02*
X196328142Y-84679164D01*
X196328142Y-84679164D02*
X196399571Y-84714878D01*
X196399571Y-84714878D02*
X196435285Y-84750592D01*
X196435285Y-84750592D02*
X196470999Y-84822021D01*
X196470999Y-84822021D02*
X196470999Y-84929164D01*
X196470999Y-84929164D02*
X196435285Y-85000592D01*
X196435285Y-85000592D02*
X196399571Y-85036307D01*
X196399571Y-85036307D02*
X196328142Y-85072021D01*
X196328142Y-85072021D02*
X196042428Y-85072021D01*
X197113857Y-84929164D02*
X197113857Y-85429164D01*
X196935285Y-84643450D02*
X196756714Y-85179164D01*
X196756714Y-85179164D02*
X197220999Y-85179164D01*
X182500999Y-101359735D02*
X182465285Y-101395450D01*
X182465285Y-101395450D02*
X182358142Y-101431164D01*
X182358142Y-101431164D02*
X182286714Y-101431164D01*
X182286714Y-101431164D02*
X182179571Y-101395450D01*
X182179571Y-101395450D02*
X182108142Y-101324021D01*
X182108142Y-101324021D02*
X182072428Y-101252592D01*
X182072428Y-101252592D02*
X182036714Y-101109735D01*
X182036714Y-101109735D02*
X182036714Y-101002592D01*
X182036714Y-101002592D02*
X182072428Y-100859735D01*
X182072428Y-100859735D02*
X182108142Y-100788307D01*
X182108142Y-100788307D02*
X182179571Y-100716878D01*
X182179571Y-100716878D02*
X182286714Y-100681164D01*
X182286714Y-100681164D02*
X182358142Y-100681164D01*
X182358142Y-100681164D02*
X182465285Y-100716878D01*
X182465285Y-100716878D02*
X182500999Y-100752592D01*
X183215285Y-101431164D02*
X182786714Y-101431164D01*
X183000999Y-101431164D02*
X183000999Y-100681164D01*
X183000999Y-100681164D02*
X182929571Y-100788307D01*
X182929571Y-100788307D02*
X182858142Y-100859735D01*
X182858142Y-100859735D02*
X182786714Y-100895450D01*
X198248999Y-105931735D02*
X198213285Y-105967450D01*
X198213285Y-105967450D02*
X198106142Y-106003164D01*
X198106142Y-106003164D02*
X198034714Y-106003164D01*
X198034714Y-106003164D02*
X197927571Y-105967450D01*
X197927571Y-105967450D02*
X197856142Y-105896021D01*
X197856142Y-105896021D02*
X197820428Y-105824592D01*
X197820428Y-105824592D02*
X197784714Y-105681735D01*
X197784714Y-105681735D02*
X197784714Y-105574592D01*
X197784714Y-105574592D02*
X197820428Y-105431735D01*
X197820428Y-105431735D02*
X197856142Y-105360307D01*
X197856142Y-105360307D02*
X197927571Y-105288878D01*
X197927571Y-105288878D02*
X198034714Y-105253164D01*
X198034714Y-105253164D02*
X198106142Y-105253164D01*
X198106142Y-105253164D02*
X198213285Y-105288878D01*
X198213285Y-105288878D02*
X198248999Y-105324592D01*
X198891857Y-105253164D02*
X198748999Y-105253164D01*
X198748999Y-105253164D02*
X198677571Y-105288878D01*
X198677571Y-105288878D02*
X198641857Y-105324592D01*
X198641857Y-105324592D02*
X198570428Y-105431735D01*
X198570428Y-105431735D02*
X198534714Y-105574592D01*
X198534714Y-105574592D02*
X198534714Y-105860307D01*
X198534714Y-105860307D02*
X198570428Y-105931735D01*
X198570428Y-105931735D02*
X198606142Y-105967450D01*
X198606142Y-105967450D02*
X198677571Y-106003164D01*
X198677571Y-106003164D02*
X198820428Y-106003164D01*
X198820428Y-106003164D02*
X198891857Y-105967450D01*
X198891857Y-105967450D02*
X198927571Y-105931735D01*
X198927571Y-105931735D02*
X198963285Y-105860307D01*
X198963285Y-105860307D02*
X198963285Y-105681735D01*
X198963285Y-105681735D02*
X198927571Y-105610307D01*
X198927571Y-105610307D02*
X198891857Y-105574592D01*
X198891857Y-105574592D02*
X198820428Y-105538878D01*
X198820428Y-105538878D02*
X198677571Y-105538878D01*
X198677571Y-105538878D02*
X198606142Y-105574592D01*
X198606142Y-105574592D02*
X198570428Y-105610307D01*
X198570428Y-105610307D02*
X198534714Y-105681735D01*
X191644999Y-82309735D02*
X191609285Y-82345450D01*
X191609285Y-82345450D02*
X191502142Y-82381164D01*
X191502142Y-82381164D02*
X191430714Y-82381164D01*
X191430714Y-82381164D02*
X191323571Y-82345450D01*
X191323571Y-82345450D02*
X191252142Y-82274021D01*
X191252142Y-82274021D02*
X191216428Y-82202592D01*
X191216428Y-82202592D02*
X191180714Y-82059735D01*
X191180714Y-82059735D02*
X191180714Y-81952592D01*
X191180714Y-81952592D02*
X191216428Y-81809735D01*
X191216428Y-81809735D02*
X191252142Y-81738307D01*
X191252142Y-81738307D02*
X191323571Y-81666878D01*
X191323571Y-81666878D02*
X191430714Y-81631164D01*
X191430714Y-81631164D02*
X191502142Y-81631164D01*
X191502142Y-81631164D02*
X191609285Y-81666878D01*
X191609285Y-81666878D02*
X191644999Y-81702592D01*
X191894999Y-81631164D02*
X192359285Y-81631164D01*
X192359285Y-81631164D02*
X192109285Y-81916878D01*
X192109285Y-81916878D02*
X192216428Y-81916878D01*
X192216428Y-81916878D02*
X192287857Y-81952592D01*
X192287857Y-81952592D02*
X192323571Y-81988307D01*
X192323571Y-81988307D02*
X192359285Y-82059735D01*
X192359285Y-82059735D02*
X192359285Y-82238307D01*
X192359285Y-82238307D02*
X192323571Y-82309735D01*
X192323571Y-82309735D02*
X192287857Y-82345450D01*
X192287857Y-82345450D02*
X192216428Y-82381164D01*
X192216428Y-82381164D02*
X192002142Y-82381164D01*
X192002142Y-82381164D02*
X191930714Y-82345450D01*
X191930714Y-82345450D02*
X191894999Y-82309735D01*
X192406999Y-76031164D02*
X192156999Y-75674021D01*
X191978428Y-76031164D02*
X191978428Y-75281164D01*
X191978428Y-75281164D02*
X192264142Y-75281164D01*
X192264142Y-75281164D02*
X192335571Y-75316878D01*
X192335571Y-75316878D02*
X192371285Y-75352592D01*
X192371285Y-75352592D02*
X192406999Y-75424021D01*
X192406999Y-75424021D02*
X192406999Y-75531164D01*
X192406999Y-75531164D02*
X192371285Y-75602592D01*
X192371285Y-75602592D02*
X192335571Y-75638307D01*
X192335571Y-75638307D02*
X192264142Y-75674021D01*
X192264142Y-75674021D02*
X191978428Y-75674021D01*
X192692714Y-75352592D02*
X192728428Y-75316878D01*
X192728428Y-75316878D02*
X192799857Y-75281164D01*
X192799857Y-75281164D02*
X192978428Y-75281164D01*
X192978428Y-75281164D02*
X193049857Y-75316878D01*
X193049857Y-75316878D02*
X193085571Y-75352592D01*
X193085571Y-75352592D02*
X193121285Y-75424021D01*
X193121285Y-75424021D02*
X193121285Y-75495450D01*
X193121285Y-75495450D02*
X193085571Y-75602592D01*
X193085571Y-75602592D02*
X192656999Y-76031164D01*
X192656999Y-76031164D02*
X193121285Y-76031164D01*
X186564999Y-96986164D02*
X186314999Y-96629021D01*
X186136428Y-96986164D02*
X186136428Y-96236164D01*
X186136428Y-96236164D02*
X186422142Y-96236164D01*
X186422142Y-96236164D02*
X186493571Y-96271878D01*
X186493571Y-96271878D02*
X186529285Y-96307592D01*
X186529285Y-96307592D02*
X186564999Y-96379021D01*
X186564999Y-96379021D02*
X186564999Y-96486164D01*
X186564999Y-96486164D02*
X186529285Y-96557592D01*
X186529285Y-96557592D02*
X186493571Y-96593307D01*
X186493571Y-96593307D02*
X186422142Y-96629021D01*
X186422142Y-96629021D02*
X186136428Y-96629021D01*
X187243571Y-96236164D02*
X186886428Y-96236164D01*
X186886428Y-96236164D02*
X186850714Y-96593307D01*
X186850714Y-96593307D02*
X186886428Y-96557592D01*
X186886428Y-96557592D02*
X186957857Y-96521878D01*
X186957857Y-96521878D02*
X187136428Y-96521878D01*
X187136428Y-96521878D02*
X187207857Y-96557592D01*
X187207857Y-96557592D02*
X187243571Y-96593307D01*
X187243571Y-96593307D02*
X187279285Y-96664735D01*
X187279285Y-96664735D02*
X187279285Y-96843307D01*
X187279285Y-96843307D02*
X187243571Y-96914735D01*
X187243571Y-96914735D02*
X187207857Y-96950450D01*
X187207857Y-96950450D02*
X187136428Y-96986164D01*
X187136428Y-96986164D02*
X186957857Y-96986164D01*
X186957857Y-96986164D02*
X186886428Y-96950450D01*
X186886428Y-96950450D02*
X186850714Y-96914735D01*
X198248999Y-101359735D02*
X198213285Y-101395450D01*
X198213285Y-101395450D02*
X198106142Y-101431164D01*
X198106142Y-101431164D02*
X198034714Y-101431164D01*
X198034714Y-101431164D02*
X197927571Y-101395450D01*
X197927571Y-101395450D02*
X197856142Y-101324021D01*
X197856142Y-101324021D02*
X197820428Y-101252592D01*
X197820428Y-101252592D02*
X197784714Y-101109735D01*
X197784714Y-101109735D02*
X197784714Y-101002592D01*
X197784714Y-101002592D02*
X197820428Y-100859735D01*
X197820428Y-100859735D02*
X197856142Y-100788307D01*
X197856142Y-100788307D02*
X197927571Y-100716878D01*
X197927571Y-100716878D02*
X198034714Y-100681164D01*
X198034714Y-100681164D02*
X198106142Y-100681164D01*
X198106142Y-100681164D02*
X198213285Y-100716878D01*
X198213285Y-100716878D02*
X198248999Y-100752592D01*
X198927571Y-100681164D02*
X198570428Y-100681164D01*
X198570428Y-100681164D02*
X198534714Y-101038307D01*
X198534714Y-101038307D02*
X198570428Y-101002592D01*
X198570428Y-101002592D02*
X198641857Y-100966878D01*
X198641857Y-100966878D02*
X198820428Y-100966878D01*
X198820428Y-100966878D02*
X198891857Y-101002592D01*
X198891857Y-101002592D02*
X198927571Y-101038307D01*
X198927571Y-101038307D02*
X198963285Y-101109735D01*
X198963285Y-101109735D02*
X198963285Y-101288307D01*
X198963285Y-101288307D02*
X198927571Y-101359735D01*
X198927571Y-101359735D02*
X198891857Y-101395450D01*
X198891857Y-101395450D02*
X198820428Y-101431164D01*
X198820428Y-101431164D02*
X198641857Y-101431164D01*
X198641857Y-101431164D02*
X198570428Y-101395450D01*
X198570428Y-101395450D02*
X198534714Y-101359735D01*
X182500999Y-105931735D02*
X182465285Y-105967450D01*
X182465285Y-105967450D02*
X182358142Y-106003164D01*
X182358142Y-106003164D02*
X182286714Y-106003164D01*
X182286714Y-106003164D02*
X182179571Y-105967450D01*
X182179571Y-105967450D02*
X182108142Y-105896021D01*
X182108142Y-105896021D02*
X182072428Y-105824592D01*
X182072428Y-105824592D02*
X182036714Y-105681735D01*
X182036714Y-105681735D02*
X182036714Y-105574592D01*
X182036714Y-105574592D02*
X182072428Y-105431735D01*
X182072428Y-105431735D02*
X182108142Y-105360307D01*
X182108142Y-105360307D02*
X182179571Y-105288878D01*
X182179571Y-105288878D02*
X182286714Y-105253164D01*
X182286714Y-105253164D02*
X182358142Y-105253164D01*
X182358142Y-105253164D02*
X182465285Y-105288878D01*
X182465285Y-105288878D02*
X182500999Y-105324592D01*
X182786714Y-105324592D02*
X182822428Y-105288878D01*
X182822428Y-105288878D02*
X182893857Y-105253164D01*
X182893857Y-105253164D02*
X183072428Y-105253164D01*
X183072428Y-105253164D02*
X183143857Y-105288878D01*
X183143857Y-105288878D02*
X183179571Y-105324592D01*
X183179571Y-105324592D02*
X183215285Y-105396021D01*
X183215285Y-105396021D02*
X183215285Y-105467450D01*
X183215285Y-105467450D02*
X183179571Y-105574592D01*
X183179571Y-105574592D02*
X182750999Y-106003164D01*
X182750999Y-106003164D02*
X183215285Y-106003164D01*
X197486999Y-93205235D02*
X197451285Y-93240950D01*
X197451285Y-93240950D02*
X197344142Y-93276664D01*
X197344142Y-93276664D02*
X197272714Y-93276664D01*
X197272714Y-93276664D02*
X197165571Y-93240950D01*
X197165571Y-93240950D02*
X197094142Y-93169521D01*
X197094142Y-93169521D02*
X197058428Y-93098092D01*
X197058428Y-93098092D02*
X197022714Y-92955235D01*
X197022714Y-92955235D02*
X197022714Y-92848092D01*
X197022714Y-92848092D02*
X197058428Y-92705235D01*
X197058428Y-92705235D02*
X197094142Y-92633807D01*
X197094142Y-92633807D02*
X197165571Y-92562378D01*
X197165571Y-92562378D02*
X197272714Y-92526664D01*
X197272714Y-92526664D02*
X197344142Y-92526664D01*
X197344142Y-92526664D02*
X197451285Y-92562378D01*
X197451285Y-92562378D02*
X197486999Y-92598092D01*
X197844142Y-93276664D02*
X197986999Y-93276664D01*
X197986999Y-93276664D02*
X198058428Y-93240950D01*
X198058428Y-93240950D02*
X198094142Y-93205235D01*
X198094142Y-93205235D02*
X198165571Y-93098092D01*
X198165571Y-93098092D02*
X198201285Y-92955235D01*
X198201285Y-92955235D02*
X198201285Y-92669521D01*
X198201285Y-92669521D02*
X198165571Y-92598092D01*
X198165571Y-92598092D02*
X198129857Y-92562378D01*
X198129857Y-92562378D02*
X198058428Y-92526664D01*
X198058428Y-92526664D02*
X197915571Y-92526664D01*
X197915571Y-92526664D02*
X197844142Y-92562378D01*
X197844142Y-92562378D02*
X197808428Y-92598092D01*
X197808428Y-92598092D02*
X197772714Y-92669521D01*
X197772714Y-92669521D02*
X197772714Y-92848092D01*
X197772714Y-92848092D02*
X197808428Y-92919521D01*
X197808428Y-92919521D02*
X197844142Y-92955235D01*
X197844142Y-92955235D02*
X197915571Y-92990950D01*
X197915571Y-92990950D02*
X198058428Y-92990950D01*
X198058428Y-92990950D02*
X198129857Y-92955235D01*
X198129857Y-92955235D02*
X198165571Y-92919521D01*
X198165571Y-92919521D02*
X198201285Y-92848092D01*
X189104999Y-82309735D02*
X189069285Y-82345450D01*
X189069285Y-82345450D02*
X188962142Y-82381164D01*
X188962142Y-82381164D02*
X188890714Y-82381164D01*
X188890714Y-82381164D02*
X188783571Y-82345450D01*
X188783571Y-82345450D02*
X188712142Y-82274021D01*
X188712142Y-82274021D02*
X188676428Y-82202592D01*
X188676428Y-82202592D02*
X188640714Y-82059735D01*
X188640714Y-82059735D02*
X188640714Y-81952592D01*
X188640714Y-81952592D02*
X188676428Y-81809735D01*
X188676428Y-81809735D02*
X188712142Y-81738307D01*
X188712142Y-81738307D02*
X188783571Y-81666878D01*
X188783571Y-81666878D02*
X188890714Y-81631164D01*
X188890714Y-81631164D02*
X188962142Y-81631164D01*
X188962142Y-81631164D02*
X189069285Y-81666878D01*
X189069285Y-81666878D02*
X189104999Y-81702592D01*
X189747857Y-81881164D02*
X189747857Y-82381164D01*
X189569285Y-81595450D02*
X189390714Y-82131164D01*
X189390714Y-82131164D02*
X189854999Y-82131164D01*
X186898428Y-93303164D02*
X186898428Y-92553164D01*
X186898428Y-92553164D02*
X187076999Y-92553164D01*
X187076999Y-92553164D02*
X187184142Y-92588878D01*
X187184142Y-92588878D02*
X187255571Y-92660307D01*
X187255571Y-92660307D02*
X187291285Y-92731735D01*
X187291285Y-92731735D02*
X187326999Y-92874592D01*
X187326999Y-92874592D02*
X187326999Y-92981735D01*
X187326999Y-92981735D02*
X187291285Y-93124592D01*
X187291285Y-93124592D02*
X187255571Y-93196021D01*
X187255571Y-93196021D02*
X187184142Y-93267450D01*
X187184142Y-93267450D02*
X187076999Y-93303164D01*
X187076999Y-93303164D02*
X186898428Y-93303164D01*
X188005571Y-92553164D02*
X187648428Y-92553164D01*
X187648428Y-92553164D02*
X187612714Y-92910307D01*
X187612714Y-92910307D02*
X187648428Y-92874592D01*
X187648428Y-92874592D02*
X187719857Y-92838878D01*
X187719857Y-92838878D02*
X187898428Y-92838878D01*
X187898428Y-92838878D02*
X187969857Y-92874592D01*
X187969857Y-92874592D02*
X188005571Y-92910307D01*
X188005571Y-92910307D02*
X188041285Y-92981735D01*
X188041285Y-92981735D02*
X188041285Y-93160307D01*
X188041285Y-93160307D02*
X188005571Y-93231735D01*
X188005571Y-93231735D02*
X187969857Y-93267450D01*
X187969857Y-93267450D02*
X187898428Y-93303164D01*
X187898428Y-93303164D02*
X187719857Y-93303164D01*
X187719857Y-93303164D02*
X187648428Y-93267450D01*
X187648428Y-93267450D02*
X187612714Y-93231735D01*
X191216428Y-96986164D02*
X191216428Y-96236164D01*
X191216428Y-96236164D02*
X191394999Y-96236164D01*
X191394999Y-96236164D02*
X191502142Y-96271878D01*
X191502142Y-96271878D02*
X191573571Y-96343307D01*
X191573571Y-96343307D02*
X191609285Y-96414735D01*
X191609285Y-96414735D02*
X191644999Y-96557592D01*
X191644999Y-96557592D02*
X191644999Y-96664735D01*
X191644999Y-96664735D02*
X191609285Y-96807592D01*
X191609285Y-96807592D02*
X191573571Y-96879021D01*
X191573571Y-96879021D02*
X191502142Y-96950450D01*
X191502142Y-96950450D02*
X191394999Y-96986164D01*
X191394999Y-96986164D02*
X191216428Y-96986164D01*
X192287857Y-96486164D02*
X192287857Y-96986164D01*
X192109285Y-96200450D02*
X191930714Y-96736164D01*
X191930714Y-96736164D02*
X192394999Y-96736164D01*
X184278999Y-85429164D02*
X184028999Y-85072021D01*
X183850428Y-85429164D02*
X183850428Y-84679164D01*
X183850428Y-84679164D02*
X184136142Y-84679164D01*
X184136142Y-84679164D02*
X184207571Y-84714878D01*
X184207571Y-84714878D02*
X184243285Y-84750592D01*
X184243285Y-84750592D02*
X184278999Y-84822021D01*
X184278999Y-84822021D02*
X184278999Y-84929164D01*
X184278999Y-84929164D02*
X184243285Y-85000592D01*
X184243285Y-85000592D02*
X184207571Y-85036307D01*
X184207571Y-85036307D02*
X184136142Y-85072021D01*
X184136142Y-85072021D02*
X183850428Y-85072021D01*
X184993285Y-85429164D02*
X184564714Y-85429164D01*
X184778999Y-85429164D02*
X184778999Y-84679164D01*
X184778999Y-84679164D02*
X184707571Y-84786307D01*
X184707571Y-84786307D02*
X184636142Y-84857735D01*
X184636142Y-84857735D02*
X184564714Y-84893450D01*
X188676428Y-96986164D02*
X188676428Y-96236164D01*
X188676428Y-96236164D02*
X188854999Y-96236164D01*
X188854999Y-96236164D02*
X188962142Y-96271878D01*
X188962142Y-96271878D02*
X189033571Y-96343307D01*
X189033571Y-96343307D02*
X189069285Y-96414735D01*
X189069285Y-96414735D02*
X189104999Y-96557592D01*
X189104999Y-96557592D02*
X189104999Y-96664735D01*
X189104999Y-96664735D02*
X189069285Y-96807592D01*
X189069285Y-96807592D02*
X189033571Y-96879021D01*
X189033571Y-96879021D02*
X188962142Y-96950450D01*
X188962142Y-96950450D02*
X188854999Y-96986164D01*
X188854999Y-96986164D02*
X188676428Y-96986164D01*
X189354999Y-96236164D02*
X189819285Y-96236164D01*
X189819285Y-96236164D02*
X189569285Y-96521878D01*
X189569285Y-96521878D02*
X189676428Y-96521878D01*
X189676428Y-96521878D02*
X189747857Y-96557592D01*
X189747857Y-96557592D02*
X189783571Y-96593307D01*
X189783571Y-96593307D02*
X189819285Y-96664735D01*
X189819285Y-96664735D02*
X189819285Y-96843307D01*
X189819285Y-96843307D02*
X189783571Y-96914735D01*
X189783571Y-96914735D02*
X189747857Y-96950450D01*
X189747857Y-96950450D02*
X189676428Y-96986164D01*
X189676428Y-96986164D02*
X189462142Y-96986164D01*
X189462142Y-96986164D02*
X189390714Y-96950450D01*
X189390714Y-96950450D02*
X189354999Y-96914735D01*
X192994428Y-93303164D02*
X192994428Y-92553164D01*
X192994428Y-92553164D02*
X193172999Y-92553164D01*
X193172999Y-92553164D02*
X193280142Y-92588878D01*
X193280142Y-92588878D02*
X193351571Y-92660307D01*
X193351571Y-92660307D02*
X193387285Y-92731735D01*
X193387285Y-92731735D02*
X193422999Y-92874592D01*
X193422999Y-92874592D02*
X193422999Y-92981735D01*
X193422999Y-92981735D02*
X193387285Y-93124592D01*
X193387285Y-93124592D02*
X193351571Y-93196021D01*
X193351571Y-93196021D02*
X193280142Y-93267450D01*
X193280142Y-93267450D02*
X193172999Y-93303164D01*
X193172999Y-93303164D02*
X192994428Y-93303164D01*
X193708714Y-92624592D02*
X193744428Y-92588878D01*
X193744428Y-92588878D02*
X193815857Y-92553164D01*
X193815857Y-92553164D02*
X193994428Y-92553164D01*
X193994428Y-92553164D02*
X194065857Y-92588878D01*
X194065857Y-92588878D02*
X194101571Y-92624592D01*
X194101571Y-92624592D02*
X194137285Y-92696021D01*
X194137285Y-92696021D02*
X194137285Y-92767450D01*
X194137285Y-92767450D02*
X194101571Y-92874592D01*
X194101571Y-92874592D02*
X193672999Y-93303164D01*
X193672999Y-93303164D02*
X194137285Y-93303164D01*
D13*
G36*
X182650630Y-95277705D02*
G01*
X182800661Y-95278034D01*
X182936948Y-95278327D01*
X183060209Y-95278615D01*
X183171161Y-95278926D01*
X183270520Y-95279292D01*
X183359005Y-95279741D01*
X183437332Y-95280304D01*
X183506218Y-95281011D01*
X183566380Y-95281890D01*
X183618535Y-95282973D01*
X183663401Y-95284288D01*
X183701694Y-95285865D01*
X183734132Y-95287735D01*
X183761431Y-95289927D01*
X183784310Y-95292471D01*
X183803484Y-95295396D01*
X183819671Y-95298733D01*
X183833588Y-95302511D01*
X183845952Y-95306760D01*
X183857480Y-95311509D01*
X183868889Y-95316790D01*
X183880897Y-95322630D01*
X183894220Y-95329061D01*
X183894916Y-95329390D01*
X183953524Y-95363707D01*
X183999947Y-95405565D01*
X184034215Y-95455052D01*
X184056362Y-95512255D01*
X184066418Y-95577264D01*
X184064416Y-95650165D01*
X184050388Y-95731048D01*
X184046267Y-95747707D01*
X184017941Y-95828914D01*
X183976946Y-95904201D01*
X183924234Y-95972506D01*
X183860758Y-96032763D01*
X183787469Y-96083910D01*
X183710709Y-96122634D01*
X183687062Y-96133544D01*
X183669356Y-96143441D01*
X183661277Y-96150255D01*
X183661200Y-96150450D01*
X183661422Y-96161134D01*
X183664575Y-96181429D01*
X183669977Y-96206944D01*
X183669985Y-96206980D01*
X183681374Y-96255458D01*
X183693548Y-96307776D01*
X183706079Y-96362051D01*
X183718542Y-96416398D01*
X183730508Y-96468934D01*
X183741552Y-96517774D01*
X183751246Y-96561034D01*
X183759164Y-96596830D01*
X183764879Y-96623278D01*
X183767963Y-96638494D01*
X183768386Y-96641329D01*
X183763839Y-96643761D01*
X183749635Y-96645723D01*
X183724926Y-96647245D01*
X183688866Y-96648356D01*
X183640609Y-96649085D01*
X183579307Y-96649461D01*
X183530586Y-96649531D01*
X183292787Y-96649531D01*
X183270559Y-96532038D01*
X183261454Y-96483670D01*
X183251775Y-96431846D01*
X183242510Y-96381886D01*
X183234648Y-96339108D01*
X183232587Y-96327783D01*
X183225941Y-96292533D01*
X183219585Y-96261240D01*
X183214252Y-96237372D01*
X183210755Y-96224601D01*
X183204667Y-96208183D01*
X182889946Y-96210141D01*
X182813670Y-96210569D01*
X182750649Y-96210796D01*
X182699680Y-96210786D01*
X182659557Y-96210506D01*
X182629078Y-96209920D01*
X182607037Y-96208994D01*
X182592230Y-96207694D01*
X182583454Y-96205986D01*
X182579503Y-96203835D01*
X182579157Y-96201253D01*
X182582952Y-96191584D01*
X182591354Y-96170640D01*
X182603508Y-96140536D01*
X182618559Y-96103386D01*
X182635655Y-96061304D01*
X182642505Y-96044471D01*
X182701919Y-95898535D01*
X183063433Y-95896105D01*
X183149921Y-95895515D01*
X183223235Y-95894883D01*
X183284662Y-95894034D01*
X183335486Y-95892795D01*
X183376995Y-95890989D01*
X183410473Y-95888443D01*
X183437208Y-95884979D01*
X183458485Y-95880425D01*
X183475590Y-95874605D01*
X183489809Y-95867343D01*
X183502429Y-95858465D01*
X183514734Y-95847795D01*
X183528012Y-95835160D01*
X183530765Y-95832508D01*
X183558116Y-95799694D01*
X183574613Y-95762817D01*
X183581722Y-95718229D01*
X183582222Y-95704291D01*
X183576141Y-95672431D01*
X183557598Y-95646815D01*
X183527712Y-95628720D01*
X183511425Y-95623512D01*
X183499890Y-95622101D01*
X183476898Y-95620838D01*
X183442150Y-95619722D01*
X183395350Y-95618750D01*
X183336199Y-95617918D01*
X183264399Y-95617224D01*
X183179652Y-95616664D01*
X183081661Y-95616238D01*
X182970128Y-95615940D01*
X182844755Y-95615769D01*
X182705243Y-95615721D01*
X182693294Y-95615723D01*
X181906587Y-95615846D01*
X181848745Y-95750448D01*
X181831075Y-95791595D01*
X181815348Y-95828279D01*
X181802458Y-95858403D01*
X181793306Y-95879866D01*
X181788787Y-95890572D01*
X181788515Y-95891245D01*
X181795026Y-95892519D01*
X181814613Y-95893781D01*
X181845893Y-95895000D01*
X181887480Y-95896142D01*
X181937990Y-95897174D01*
X181996041Y-95898066D01*
X182060246Y-95898784D01*
X182129222Y-95899296D01*
X182133269Y-95899318D01*
X182480410Y-95901196D01*
X182417656Y-96054756D01*
X182354902Y-96208316D01*
X181770666Y-96210207D01*
X181664641Y-96210532D01*
X181572169Y-96210763D01*
X181492343Y-96210885D01*
X181424255Y-96210885D01*
X181366998Y-96210746D01*
X181319666Y-96210454D01*
X181281350Y-96209993D01*
X181251143Y-96209349D01*
X181228139Y-96208506D01*
X181211429Y-96207451D01*
X181200108Y-96206166D01*
X181193266Y-96204639D01*
X181189997Y-96202853D01*
X181189394Y-96200793D01*
X181189440Y-96200593D01*
X181192620Y-96192105D01*
X181200820Y-96171353D01*
X181213586Y-96139459D01*
X181230466Y-96097543D01*
X181251006Y-96046727D01*
X181274752Y-95988131D01*
X181301250Y-95922876D01*
X181330048Y-95852085D01*
X181360691Y-95776877D01*
X181378930Y-95732167D01*
X181565411Y-95275246D01*
X182650630Y-95277705D01*
G37*
G36*
X182550256Y-94755342D02*
G01*
X182629081Y-94755436D01*
X182696210Y-94755613D01*
X182752563Y-94755892D01*
X182799064Y-94756293D01*
X182836632Y-94756838D01*
X182866189Y-94757545D01*
X182888657Y-94758435D01*
X182904957Y-94759529D01*
X182916010Y-94760846D01*
X182922738Y-94762407D01*
X182926062Y-94764231D01*
X182926904Y-94766339D01*
X182926564Y-94767848D01*
X182922632Y-94777873D01*
X182914065Y-94799295D01*
X182901670Y-94830111D01*
X182886252Y-94868321D01*
X182868619Y-94911923D01*
X182855296Y-94944808D01*
X182788682Y-95109114D01*
X182211464Y-95109297D01*
X182106677Y-95109247D01*
X182010681Y-95109035D01*
X181924128Y-95108668D01*
X181847672Y-95108152D01*
X181781966Y-95107496D01*
X181727662Y-95106707D01*
X181685413Y-95105793D01*
X181655872Y-95104760D01*
X181639692Y-95103616D01*
X181636656Y-95102773D01*
X181639919Y-95094483D01*
X181647842Y-95074660D01*
X181659672Y-95045179D01*
X181674654Y-95007915D01*
X181692037Y-94964745D01*
X181707754Y-94925755D01*
X181776442Y-94755443D01*
X182353831Y-94755319D01*
X182458813Y-94755309D01*
X182550256Y-94755342D01*
G37*
D14*
X188213276Y-76439500D02*
X188722724Y-76439500D01*
X188213276Y-77484500D02*
X188722724Y-77484500D01*
X182712000Y-78310000D02*
X182712000Y-78430000D01*
X182712000Y-79440000D02*
X182712000Y-80580000D01*
X182712000Y-81590000D02*
X182712000Y-81710000D01*
X182712000Y-81710000D02*
X187112000Y-81710000D01*
X187112000Y-78310000D02*
X182712000Y-78310000D01*
X187112000Y-78430000D02*
X187112000Y-78310000D01*
X187112000Y-80580000D02*
X187112000Y-79440000D01*
X187112000Y-81710000D02*
X187112000Y-81590000D01*
X193888000Y-78310000D02*
X193888000Y-78430000D01*
X193888000Y-79440000D02*
X193888000Y-80580000D01*
X193888000Y-81590000D02*
X193888000Y-81710000D01*
X193888000Y-81710000D02*
X198288000Y-81710000D01*
X198288000Y-78310000D02*
X193888000Y-78310000D01*
X198288000Y-78430000D02*
X198288000Y-78310000D01*
X198288000Y-80580000D02*
X198288000Y-79440000D01*
X198288000Y-81710000D02*
X198288000Y-81590000D01*
X187090000Y-85466000D02*
X188350000Y-85466000D01*
X187090000Y-89226000D02*
X187090000Y-85466000D01*
X193910000Y-85466000D02*
X192650000Y-85466000D01*
X193910000Y-89226000D02*
X193910000Y-85466000D01*
X187190000Y-90506000D02*
X186860000Y-90746000D01*
X186860000Y-90266000D01*
X187190000Y-90506000D01*
G36*
X187190000Y-90506000D02*
G01*
X186860000Y-90746000D01*
X186860000Y-90266000D01*
X187190000Y-90506000D01*
G37*
X184550267Y-89914000D02*
X184257733Y-89914000D01*
X184550267Y-90934000D02*
X184257733Y-90934000D01*
X193787500Y-99060724D02*
X193787500Y-98551276D01*
X194832500Y-99060724D02*
X194832500Y-98551276D01*
X184550267Y-87882000D02*
X184257733Y-87882000D01*
X184550267Y-88902000D02*
X184257733Y-88902000D01*
X181400000Y-71586000D02*
X181400000Y-72586000D01*
X181400000Y-72586000D02*
X182900000Y-72586000D01*
X199800000Y-72586000D02*
X198300000Y-72586000D01*
X199800000Y-72586000D02*
X199800000Y-71586000D01*
X181400000Y-53611000D02*
X180900000Y-53611000D01*
X181400000Y-53111000D01*
X181400000Y-53611000D01*
G36*
X181400000Y-53611000D02*
G01*
X180900000Y-53611000D01*
X181400000Y-53111000D01*
X181400000Y-53611000D01*
G37*
X196341276Y-85837500D02*
X196850724Y-85837500D01*
X196341276Y-86882500D02*
X196850724Y-86882500D01*
X182479733Y-101852000D02*
X182772267Y-101852000D01*
X182479733Y-102872000D02*
X182772267Y-102872000D01*
X175200000Y-56134000D02*
X175200000Y-109534000D01*
X175200000Y-56134000D02*
X177860000Y-56134000D01*
X175200000Y-109534000D02*
X177860000Y-109534000D01*
X176530000Y-53534000D02*
X177860000Y-53534000D01*
X177860000Y-53534000D02*
X177860000Y-54864000D01*
X177860000Y-56134000D02*
X177860000Y-109534000D01*
X198520267Y-103884000D02*
X198227733Y-103884000D01*
X198520267Y-104904000D02*
X198227733Y-104904000D01*
X191260000Y-79609733D02*
X191260000Y-79902267D01*
X192280000Y-79609733D02*
X192280000Y-79902267D01*
X192786724Y-76439500D02*
X192277276Y-76439500D01*
X192786724Y-77484500D02*
X192277276Y-77484500D01*
X186167500Y-98551276D02*
X186167500Y-99060724D01*
X187212500Y-98551276D02*
X187212500Y-99060724D01*
X203394000Y-56134000D02*
X203394000Y-109534000D01*
X203394000Y-56134000D02*
X206054000Y-56134000D01*
X203394000Y-109534000D02*
X206054000Y-109534000D01*
X204724000Y-53534000D02*
X206054000Y-53534000D01*
X206054000Y-53534000D02*
X206054000Y-54864000D01*
X206054000Y-56134000D02*
X206054000Y-109534000D01*
X198520267Y-101852000D02*
X198227733Y-101852000D01*
X198520267Y-102872000D02*
X198227733Y-102872000D01*
X182479733Y-103884000D02*
X182772267Y-103884000D01*
X182479733Y-104904000D02*
X182772267Y-104904000D01*
X185830000Y-106326000D02*
X185830000Y-104626000D01*
X195170000Y-106326000D02*
X195170000Y-104626000D01*
X197102000Y-94976733D02*
X197102000Y-95269267D01*
X198122000Y-94976733D02*
X198122000Y-95269267D01*
X188720000Y-79609733D02*
X188720000Y-79902267D01*
X189740000Y-79609733D02*
X189740000Y-79902267D01*
X194936000Y-87657000D02*
X194936000Y-89127000D01*
X194936000Y-89127000D02*
X197396000Y-89127000D01*
X197396000Y-87657000D02*
X194936000Y-87657000D01*
X184658724Y-85837500D02*
X184149276Y-85837500D01*
X184658724Y-86882500D02*
X184149276Y-86882500D01*
X191188000Y-93615000D02*
X191188000Y-95615000D01*
X191188000Y-93615000D02*
X195198000Y-93615000D01*
X191188000Y-95615000D02*
X195198000Y-95615000D01*
%LPC*%
D15*
X187555500Y-76962000D03*
X189380500Y-76962000D03*
D16*
X182837000Y-78935000D03*
X186987000Y-78935000D03*
X182837000Y-81085000D03*
X186987000Y-81085000D03*
X194013000Y-78935000D03*
X198163000Y-78935000D03*
X194013000Y-81085000D03*
X198163000Y-81085000D03*
D17*
X188200000Y-90526000D03*
X190500000Y-90526000D03*
D18*
X190500000Y-84226000D03*
D17*
X192800000Y-90526000D03*
D19*
X185266500Y-90424000D03*
X183541500Y-90424000D03*
D20*
X194310000Y-99718500D03*
X194310000Y-97893500D03*
D19*
X185266500Y-88392000D03*
X183541500Y-88392000D03*
D21*
X181850000Y-54376000D03*
X181850000Y-55646000D03*
X181850000Y-56916000D03*
X181850000Y-58186000D03*
X181850000Y-59456000D03*
X181850000Y-60726000D03*
X181850000Y-61996000D03*
X181850000Y-63266000D03*
X181850000Y-64536000D03*
X181850000Y-65806000D03*
X181850000Y-67076000D03*
X181850000Y-68346000D03*
X181850000Y-69616000D03*
X181850000Y-70886000D03*
D22*
X183615000Y-72136000D03*
X184885000Y-72136000D03*
X186155000Y-72136000D03*
X187425000Y-72136000D03*
X188695000Y-72136000D03*
X189965000Y-72136000D03*
X191235000Y-72136000D03*
X192505000Y-72136000D03*
X193775000Y-72136000D03*
X195045000Y-72136000D03*
X196315000Y-72136000D03*
X197585000Y-72136000D03*
D21*
X199350000Y-70886000D03*
X199350000Y-69616000D03*
X199350000Y-68346000D03*
X199350000Y-67076000D03*
X199350000Y-65806000D03*
X199350000Y-64536000D03*
X199350000Y-63266000D03*
X199350000Y-61996000D03*
X199350000Y-60726000D03*
X199350000Y-59456000D03*
X199350000Y-58186000D03*
X199350000Y-56916000D03*
X199350000Y-55646000D03*
X199350000Y-54376000D03*
D23*
X187700000Y-61396000D03*
X187700000Y-62796000D03*
X188400000Y-60696000D03*
X188400000Y-62096000D03*
X188400000Y-63496000D03*
X189100000Y-61396000D03*
D24*
X189100000Y-62096000D03*
D23*
X189100000Y-62796000D03*
X189800000Y-60696000D03*
X189800000Y-62096000D03*
X189800000Y-63496000D03*
X190500000Y-61396000D03*
X190500000Y-62796000D03*
D15*
X195683500Y-86360000D03*
X197508500Y-86360000D03*
D25*
X181763500Y-102362000D03*
X183488500Y-102362000D03*
D26*
X176530000Y-54864000D03*
D27*
X176530000Y-57404000D03*
X176530000Y-59944000D03*
X176530000Y-62484000D03*
X176530000Y-65024000D03*
X176530000Y-67564000D03*
X176530000Y-70104000D03*
X176530000Y-72644000D03*
X176530000Y-75184000D03*
X176530000Y-77724000D03*
X176530000Y-80264000D03*
X176530000Y-82804000D03*
X176530000Y-85344000D03*
X176530000Y-87884000D03*
X176530000Y-90424000D03*
X176530000Y-92964000D03*
X176530000Y-95504000D03*
X176530000Y-98044000D03*
X176530000Y-100584000D03*
X176530000Y-103124000D03*
X176530000Y-105664000D03*
X176530000Y-108204000D03*
D19*
X199236500Y-104394000D03*
X197511500Y-104394000D03*
D28*
X191770000Y-78893500D03*
X191770000Y-80618500D03*
D29*
X193444500Y-76962000D03*
X191619500Y-76962000D03*
D30*
X186690000Y-97893500D03*
X186690000Y-99718500D03*
D26*
X204724000Y-54864000D03*
D27*
X204724000Y-57404000D03*
X204724000Y-59944000D03*
X204724000Y-62484000D03*
X204724000Y-65024000D03*
X204724000Y-67564000D03*
X204724000Y-70104000D03*
X204724000Y-72644000D03*
X204724000Y-75184000D03*
X204724000Y-77724000D03*
X204724000Y-80264000D03*
X204724000Y-82804000D03*
X204724000Y-85344000D03*
X204724000Y-87884000D03*
X204724000Y-90424000D03*
X204724000Y-92964000D03*
X204724000Y-95504000D03*
X204724000Y-98044000D03*
X204724000Y-100584000D03*
X204724000Y-103124000D03*
X204724000Y-105664000D03*
X204724000Y-108204000D03*
D19*
X199236500Y-102362000D03*
X197511500Y-102362000D03*
D25*
X181763500Y-104394000D03*
X183488500Y-104394000D03*
D31*
X187610000Y-103821000D03*
X193390000Y-103821000D03*
D32*
X187302200Y-102736400D03*
D33*
X188100000Y-102746000D03*
D34*
X189250000Y-102746000D03*
X190250000Y-102746000D03*
X190750000Y-102746000D03*
X191750000Y-102746000D03*
D33*
X192900000Y-102746000D03*
D35*
X193702600Y-102736400D03*
X193702600Y-102736400D03*
D33*
X192900000Y-102746000D03*
D34*
X192250000Y-102746000D03*
X191250000Y-102746000D03*
X189750000Y-102746000D03*
X188750000Y-102746000D03*
D33*
X188100000Y-102746000D03*
D32*
X187302200Y-102736400D03*
D36*
X186180000Y-103321000D03*
D37*
X186180000Y-107501000D03*
D36*
X194820000Y-103321000D03*
D37*
X194820000Y-107501000D03*
D28*
X197612000Y-94260500D03*
X197612000Y-95985500D03*
X189230000Y-78893500D03*
X189230000Y-80618500D03*
D38*
X188702000Y-94488000D03*
X186202000Y-94488000D03*
D39*
X191750000Y-100500000D03*
X191750000Y-98000000D03*
D40*
X195721000Y-88392000D03*
X197471000Y-88392000D03*
D29*
X185316500Y-86360000D03*
X183491500Y-86360000D03*
D41*
X189250000Y-98000000D03*
X189250000Y-100500000D03*
D42*
X191898000Y-94615000D03*
X195198000Y-94615000D03*
%LPD*%
M02*
