G04 #@! TF.GenerationSoftware,KiCad,Pcbnew,8.0.3*
G04 #@! TF.CreationDate,2024-06-29T14:25:19-04:00*
G04 #@! TF.ProjectId,ESP32-S3-DevBoard,45535033-322d-4533-932d-446576426f61,rev?*
G04 #@! TF.SameCoordinates,Original*
G04 #@! TF.FileFunction,Legend,Bot*
G04 #@! TF.FilePolarity,Positive*
%FSLAX46Y46*%
G04 Gerber Fmt 4.6, Leading zero omitted, Abs format (unit mm)*
G04 Created by KiCad (PCBNEW 8.0.3) date 2024-06-29 14:25:19*
%MOMM*%
%LPD*%
G01*
G04 APERTURE LIST*
%ADD10R,1.700000X1.700000*%
%ADD11O,1.700000X1.700000*%
%ADD12C,0.650000*%
%ADD13O,1.000000X2.100000*%
%ADD14O,1.000000X1.800000*%
G04 APERTURE END LIST*
%LPC*%
D10*
X176530000Y-54864000D03*
D11*
X176530000Y-57404000D03*
X176530000Y-59944000D03*
X176530000Y-62484000D03*
X176530000Y-65024000D03*
X176530000Y-67564000D03*
X176530000Y-70104000D03*
X176530000Y-72644000D03*
X176530000Y-75184000D03*
X176530000Y-77724000D03*
X176530000Y-80264000D03*
X176530000Y-82804000D03*
X176530000Y-85344000D03*
X176530000Y-87884000D03*
X176530000Y-90424000D03*
X176530000Y-92964000D03*
X176530000Y-95504000D03*
X176530000Y-98044000D03*
X176530000Y-100584000D03*
X176530000Y-103124000D03*
X176530000Y-105664000D03*
X176530000Y-108204000D03*
D10*
X204724000Y-54864000D03*
D11*
X204724000Y-57404000D03*
X204724000Y-59944000D03*
X204724000Y-62484000D03*
X204724000Y-65024000D03*
X204724000Y-67564000D03*
X204724000Y-70104000D03*
X204724000Y-72644000D03*
X204724000Y-75184000D03*
X204724000Y-77724000D03*
X204724000Y-80264000D03*
X204724000Y-82804000D03*
X204724000Y-85344000D03*
X204724000Y-87884000D03*
X204724000Y-90424000D03*
X204724000Y-92964000D03*
X204724000Y-95504000D03*
X204724000Y-98044000D03*
X204724000Y-100584000D03*
X204724000Y-103124000D03*
X204724000Y-105664000D03*
X204724000Y-108204000D03*
D12*
X187610000Y-103821000D03*
X193390000Y-103821000D03*
D13*
X186180000Y-103321000D03*
D14*
X186180000Y-107501000D03*
D13*
X194820000Y-103321000D03*
D14*
X194820000Y-107501000D03*
%LPD*%
M02*
