%TF.GenerationSoftware,KiCad,Pcbnew,8.0.3*%
%TF.CreationDate,2024-06-25T22:23:39-04:00*%
%TF.ProjectId,ESP32-S3-DevBoard,45535033-322d-4533-932d-446576426f61,rev?*%
%TF.SameCoordinates,Original*%
%TF.FileFunction,Drillmap*%
%TF.FilePolarity,Positive*%
%FSLAX45Y45*%
G04 Gerber Fmt 4.5, Leading zero omitted, Abs format (unit mm)*
G04 Created by KiCad (PCBNEW 8.0.3) date 2024-06-25 22:23:39*
%MOMM*%
%LPD*%
G01*
G04 APERTURE LIST*
%ADD10C,0.050000*%
%ADD11C,0.200000*%
%ADD12C,0.100000*%
G04 APERTURE END LIST*
D10*
X17462500Y-5295900D02*
X20662900Y-5295900D01*
X20662900Y-11010900D01*
X17462500Y-11010900D01*
X17462500Y-5295900D01*
D11*
D12*
X17790400Y-10805400D02*
X17820400Y-10835400D01*
X17820400Y-10805400D02*
X17790400Y-10835400D01*
X18031700Y-5423000D02*
X18061700Y-5453000D01*
X18061700Y-5423000D02*
X18031700Y-5453000D01*
X18333850Y-10536050D02*
X18363850Y-10566050D01*
X18363850Y-10536050D02*
X18333850Y-10566050D01*
X18339150Y-9139050D02*
X18369150Y-9169050D01*
X18369150Y-9139050D02*
X18339150Y-9169050D01*
X18482100Y-10735100D02*
X18512100Y-10765100D01*
X18512100Y-10735100D02*
X18482100Y-10765100D01*
X18488900Y-10322800D02*
X18518900Y-10352800D01*
X18518900Y-10322800D02*
X18488900Y-10352800D01*
X18654000Y-9649700D02*
X18684000Y-9679700D01*
X18684000Y-9649700D02*
X18654000Y-9679700D01*
X18793700Y-7878500D02*
X18823700Y-7908500D01*
X18823700Y-7878500D02*
X18793700Y-7908500D01*
X18857200Y-9256000D02*
X18887200Y-9286000D01*
X18887200Y-9256000D02*
X18857200Y-9286000D01*
X18908000Y-9662400D02*
X18938000Y-9692400D01*
X18938000Y-9662400D02*
X18908000Y-9692400D01*
X19035000Y-8049500D02*
X19065000Y-8079500D01*
X19065000Y-8049500D02*
X19035000Y-8079500D01*
X19162000Y-9675100D02*
X19192000Y-9705100D01*
X19192000Y-9675100D02*
X19162000Y-9705100D01*
X19276300Y-7878500D02*
X19306300Y-7908500D01*
X19306300Y-7878500D02*
X19276300Y-7908500D01*
X19416000Y-9662400D02*
X19446000Y-9692400D01*
X19446000Y-9662400D02*
X19416000Y-9692400D01*
X19557100Y-8937100D02*
X19587100Y-8967100D01*
X19587100Y-8937100D02*
X19557100Y-8967100D01*
X19581100Y-10317100D02*
X19611100Y-10347100D01*
X19611100Y-10317100D02*
X19581100Y-10347100D01*
X19581100Y-10729200D02*
X19611100Y-10759200D01*
X19611100Y-10729200D02*
X19581100Y-10759200D01*
X19736150Y-10536050D02*
X19766150Y-10566050D01*
X19766150Y-10536050D02*
X19736150Y-10566050D01*
X19746200Y-9700500D02*
X19776200Y-9730500D01*
X19776200Y-9700500D02*
X19746200Y-9730500D01*
X20051000Y-5423000D02*
X20081000Y-5453000D01*
X20081000Y-5423000D02*
X20051000Y-5453000D01*
X20292300Y-5471400D02*
X20322300Y-5501400D01*
X20322300Y-5471400D02*
X20292300Y-5501400D01*
X20305000Y-10551400D02*
X20335000Y-10581400D01*
X20335000Y-10551400D02*
X20305000Y-10581400D01*
X20305000Y-10805400D02*
X20335000Y-10835400D01*
X20335000Y-10805400D02*
X20305000Y-10835400D01*
D11*
X17720777Y-11324884D02*
X17720777Y-11124884D01*
X17720777Y-11124884D02*
X17768396Y-11124884D01*
X17768396Y-11124884D02*
X17796967Y-11134408D01*
X17796967Y-11134408D02*
X17816015Y-11153455D01*
X17816015Y-11153455D02*
X17825539Y-11172503D01*
X17825539Y-11172503D02*
X17835063Y-11210598D01*
X17835063Y-11210598D02*
X17835063Y-11239169D01*
X17835063Y-11239169D02*
X17825539Y-11277265D01*
X17825539Y-11277265D02*
X17816015Y-11296312D01*
X17816015Y-11296312D02*
X17796967Y-11315360D01*
X17796967Y-11315360D02*
X17768396Y-11324884D01*
X17768396Y-11324884D02*
X17720777Y-11324884D01*
X17920777Y-11324884D02*
X17920777Y-11191550D01*
X17920777Y-11229646D02*
X17930301Y-11210598D01*
X17930301Y-11210598D02*
X17939824Y-11201074D01*
X17939824Y-11201074D02*
X17958872Y-11191550D01*
X17958872Y-11191550D02*
X17977920Y-11191550D01*
X18044586Y-11324884D02*
X18044586Y-11191550D01*
X18044586Y-11124884D02*
X18035063Y-11134408D01*
X18035063Y-11134408D02*
X18044586Y-11143931D01*
X18044586Y-11143931D02*
X18054110Y-11134408D01*
X18054110Y-11134408D02*
X18044586Y-11124884D01*
X18044586Y-11124884D02*
X18044586Y-11143931D01*
X18168396Y-11324884D02*
X18149348Y-11315360D01*
X18149348Y-11315360D02*
X18139824Y-11296312D01*
X18139824Y-11296312D02*
X18139824Y-11124884D01*
X18273158Y-11324884D02*
X18254110Y-11315360D01*
X18254110Y-11315360D02*
X18244586Y-11296312D01*
X18244586Y-11296312D02*
X18244586Y-11124884D01*
X18501729Y-11324884D02*
X18501729Y-11124884D01*
X18501729Y-11124884D02*
X18568396Y-11267741D01*
X18568396Y-11267741D02*
X18635063Y-11124884D01*
X18635063Y-11124884D02*
X18635063Y-11324884D01*
X18816015Y-11324884D02*
X18816015Y-11220122D01*
X18816015Y-11220122D02*
X18806491Y-11201074D01*
X18806491Y-11201074D02*
X18787444Y-11191550D01*
X18787444Y-11191550D02*
X18749348Y-11191550D01*
X18749348Y-11191550D02*
X18730301Y-11201074D01*
X18816015Y-11315360D02*
X18796967Y-11324884D01*
X18796967Y-11324884D02*
X18749348Y-11324884D01*
X18749348Y-11324884D02*
X18730301Y-11315360D01*
X18730301Y-11315360D02*
X18720777Y-11296312D01*
X18720777Y-11296312D02*
X18720777Y-11277265D01*
X18720777Y-11277265D02*
X18730301Y-11258217D01*
X18730301Y-11258217D02*
X18749348Y-11248693D01*
X18749348Y-11248693D02*
X18796967Y-11248693D01*
X18796967Y-11248693D02*
X18816015Y-11239169D01*
X18911253Y-11191550D02*
X18911253Y-11391550D01*
X18911253Y-11201074D02*
X18930301Y-11191550D01*
X18930301Y-11191550D02*
X18968396Y-11191550D01*
X18968396Y-11191550D02*
X18987444Y-11201074D01*
X18987444Y-11201074D02*
X18996967Y-11210598D01*
X18996967Y-11210598D02*
X19006491Y-11229646D01*
X19006491Y-11229646D02*
X19006491Y-11286788D01*
X19006491Y-11286788D02*
X18996967Y-11305836D01*
X18996967Y-11305836D02*
X18987444Y-11315360D01*
X18987444Y-11315360D02*
X18968396Y-11324884D01*
X18968396Y-11324884D02*
X18930301Y-11324884D01*
X18930301Y-11324884D02*
X18911253Y-11315360D01*
X19092205Y-11305836D02*
X19101729Y-11315360D01*
X19101729Y-11315360D02*
X19092205Y-11324884D01*
X19092205Y-11324884D02*
X19082682Y-11315360D01*
X19082682Y-11315360D02*
X19092205Y-11305836D01*
X19092205Y-11305836D02*
X19092205Y-11324884D01*
X19092205Y-11201074D02*
X19101729Y-11210598D01*
X19101729Y-11210598D02*
X19092205Y-11220122D01*
X19092205Y-11220122D02*
X19082682Y-11210598D01*
X19082682Y-11210598D02*
X19092205Y-11201074D01*
X19092205Y-11201074D02*
X19092205Y-11220122D01*
D12*
X17430000Y-11638400D02*
X17460000Y-11668400D01*
X17460000Y-11638400D02*
X17430000Y-11668400D01*
D11*
X17758872Y-11544884D02*
X17777920Y-11544884D01*
X17777920Y-11544884D02*
X17796967Y-11554408D01*
X17796967Y-11554408D02*
X17806491Y-11563931D01*
X17806491Y-11563931D02*
X17816015Y-11582979D01*
X17816015Y-11582979D02*
X17825539Y-11621074D01*
X17825539Y-11621074D02*
X17825539Y-11668693D01*
X17825539Y-11668693D02*
X17816015Y-11706788D01*
X17816015Y-11706788D02*
X17806491Y-11725836D01*
X17806491Y-11725836D02*
X17796967Y-11735360D01*
X17796967Y-11735360D02*
X17777920Y-11744884D01*
X17777920Y-11744884D02*
X17758872Y-11744884D01*
X17758872Y-11744884D02*
X17739824Y-11735360D01*
X17739824Y-11735360D02*
X17730301Y-11725836D01*
X17730301Y-11725836D02*
X17720777Y-11706788D01*
X17720777Y-11706788D02*
X17711253Y-11668693D01*
X17711253Y-11668693D02*
X17711253Y-11621074D01*
X17711253Y-11621074D02*
X17720777Y-11582979D01*
X17720777Y-11582979D02*
X17730301Y-11563931D01*
X17730301Y-11563931D02*
X17739824Y-11554408D01*
X17739824Y-11554408D02*
X17758872Y-11544884D01*
X17911253Y-11725836D02*
X17920777Y-11735360D01*
X17920777Y-11735360D02*
X17911253Y-11744884D01*
X17911253Y-11744884D02*
X17901729Y-11735360D01*
X17901729Y-11735360D02*
X17911253Y-11725836D01*
X17911253Y-11725836D02*
X17911253Y-11744884D01*
X17987444Y-11544884D02*
X18111253Y-11544884D01*
X18111253Y-11544884D02*
X18044586Y-11621074D01*
X18044586Y-11621074D02*
X18073158Y-11621074D01*
X18073158Y-11621074D02*
X18092205Y-11630598D01*
X18092205Y-11630598D02*
X18101729Y-11640122D01*
X18101729Y-11640122D02*
X18111253Y-11659169D01*
X18111253Y-11659169D02*
X18111253Y-11706788D01*
X18111253Y-11706788D02*
X18101729Y-11725836D01*
X18101729Y-11725836D02*
X18092205Y-11735360D01*
X18092205Y-11735360D02*
X18073158Y-11744884D01*
X18073158Y-11744884D02*
X18016015Y-11744884D01*
X18016015Y-11744884D02*
X17996967Y-11735360D01*
X17996967Y-11735360D02*
X17987444Y-11725836D01*
X18235063Y-11544884D02*
X18254110Y-11544884D01*
X18254110Y-11544884D02*
X18273158Y-11554408D01*
X18273158Y-11554408D02*
X18282682Y-11563931D01*
X18282682Y-11563931D02*
X18292205Y-11582979D01*
X18292205Y-11582979D02*
X18301729Y-11621074D01*
X18301729Y-11621074D02*
X18301729Y-11668693D01*
X18301729Y-11668693D02*
X18292205Y-11706788D01*
X18292205Y-11706788D02*
X18282682Y-11725836D01*
X18282682Y-11725836D02*
X18273158Y-11735360D01*
X18273158Y-11735360D02*
X18254110Y-11744884D01*
X18254110Y-11744884D02*
X18235063Y-11744884D01*
X18235063Y-11744884D02*
X18216015Y-11735360D01*
X18216015Y-11735360D02*
X18206491Y-11725836D01*
X18206491Y-11725836D02*
X18196967Y-11706788D01*
X18196967Y-11706788D02*
X18187444Y-11668693D01*
X18187444Y-11668693D02*
X18187444Y-11621074D01*
X18187444Y-11621074D02*
X18196967Y-11582979D01*
X18196967Y-11582979D02*
X18206491Y-11563931D01*
X18206491Y-11563931D02*
X18216015Y-11554408D01*
X18216015Y-11554408D02*
X18235063Y-11544884D01*
X18425539Y-11544884D02*
X18444586Y-11544884D01*
X18444586Y-11544884D02*
X18463634Y-11554408D01*
X18463634Y-11554408D02*
X18473158Y-11563931D01*
X18473158Y-11563931D02*
X18482682Y-11582979D01*
X18482682Y-11582979D02*
X18492205Y-11621074D01*
X18492205Y-11621074D02*
X18492205Y-11668693D01*
X18492205Y-11668693D02*
X18482682Y-11706788D01*
X18482682Y-11706788D02*
X18473158Y-11725836D01*
X18473158Y-11725836D02*
X18463634Y-11735360D01*
X18463634Y-11735360D02*
X18444586Y-11744884D01*
X18444586Y-11744884D02*
X18425539Y-11744884D01*
X18425539Y-11744884D02*
X18406491Y-11735360D01*
X18406491Y-11735360D02*
X18396967Y-11725836D01*
X18396967Y-11725836D02*
X18387444Y-11706788D01*
X18387444Y-11706788D02*
X18377920Y-11668693D01*
X18377920Y-11668693D02*
X18377920Y-11621074D01*
X18377920Y-11621074D02*
X18387444Y-11582979D01*
X18387444Y-11582979D02*
X18396967Y-11563931D01*
X18396967Y-11563931D02*
X18406491Y-11554408D01*
X18406491Y-11554408D02*
X18425539Y-11544884D01*
X18577920Y-11744884D02*
X18577920Y-11611550D01*
X18577920Y-11630598D02*
X18587444Y-11621074D01*
X18587444Y-11621074D02*
X18606491Y-11611550D01*
X18606491Y-11611550D02*
X18635063Y-11611550D01*
X18635063Y-11611550D02*
X18654110Y-11621074D01*
X18654110Y-11621074D02*
X18663634Y-11640122D01*
X18663634Y-11640122D02*
X18663634Y-11744884D01*
X18663634Y-11640122D02*
X18673158Y-11621074D01*
X18673158Y-11621074D02*
X18692205Y-11611550D01*
X18692205Y-11611550D02*
X18720777Y-11611550D01*
X18720777Y-11611550D02*
X18739825Y-11621074D01*
X18739825Y-11621074D02*
X18749348Y-11640122D01*
X18749348Y-11640122D02*
X18749348Y-11744884D01*
X18844586Y-11744884D02*
X18844586Y-11611550D01*
X18844586Y-11630598D02*
X18854110Y-11621074D01*
X18854110Y-11621074D02*
X18873158Y-11611550D01*
X18873158Y-11611550D02*
X18901729Y-11611550D01*
X18901729Y-11611550D02*
X18920777Y-11621074D01*
X18920777Y-11621074D02*
X18930301Y-11640122D01*
X18930301Y-11640122D02*
X18930301Y-11744884D01*
X18930301Y-11640122D02*
X18939825Y-11621074D01*
X18939825Y-11621074D02*
X18958872Y-11611550D01*
X18958872Y-11611550D02*
X18987444Y-11611550D01*
X18987444Y-11611550D02*
X19006491Y-11621074D01*
X19006491Y-11621074D02*
X19016015Y-11640122D01*
X19016015Y-11640122D02*
X19016015Y-11744884D01*
X19406491Y-11535360D02*
X19235063Y-11792503D01*
X19663634Y-11544884D02*
X19682682Y-11544884D01*
X19682682Y-11544884D02*
X19701729Y-11554408D01*
X19701729Y-11554408D02*
X19711253Y-11563931D01*
X19711253Y-11563931D02*
X19720777Y-11582979D01*
X19720777Y-11582979D02*
X19730301Y-11621074D01*
X19730301Y-11621074D02*
X19730301Y-11668693D01*
X19730301Y-11668693D02*
X19720777Y-11706788D01*
X19720777Y-11706788D02*
X19711253Y-11725836D01*
X19711253Y-11725836D02*
X19701729Y-11735360D01*
X19701729Y-11735360D02*
X19682682Y-11744884D01*
X19682682Y-11744884D02*
X19663634Y-11744884D01*
X19663634Y-11744884D02*
X19644587Y-11735360D01*
X19644587Y-11735360D02*
X19635063Y-11725836D01*
X19635063Y-11725836D02*
X19625539Y-11706788D01*
X19625539Y-11706788D02*
X19616015Y-11668693D01*
X19616015Y-11668693D02*
X19616015Y-11621074D01*
X19616015Y-11621074D02*
X19625539Y-11582979D01*
X19625539Y-11582979D02*
X19635063Y-11563931D01*
X19635063Y-11563931D02*
X19644587Y-11554408D01*
X19644587Y-11554408D02*
X19663634Y-11544884D01*
X19816015Y-11725836D02*
X19825539Y-11735360D01*
X19825539Y-11735360D02*
X19816015Y-11744884D01*
X19816015Y-11744884D02*
X19806491Y-11735360D01*
X19806491Y-11735360D02*
X19816015Y-11725836D01*
X19816015Y-11725836D02*
X19816015Y-11744884D01*
X19949348Y-11544884D02*
X19968396Y-11544884D01*
X19968396Y-11544884D02*
X19987444Y-11554408D01*
X19987444Y-11554408D02*
X19996968Y-11563931D01*
X19996968Y-11563931D02*
X20006491Y-11582979D01*
X20006491Y-11582979D02*
X20016015Y-11621074D01*
X20016015Y-11621074D02*
X20016015Y-11668693D01*
X20016015Y-11668693D02*
X20006491Y-11706788D01*
X20006491Y-11706788D02*
X19996968Y-11725836D01*
X19996968Y-11725836D02*
X19987444Y-11735360D01*
X19987444Y-11735360D02*
X19968396Y-11744884D01*
X19968396Y-11744884D02*
X19949348Y-11744884D01*
X19949348Y-11744884D02*
X19930301Y-11735360D01*
X19930301Y-11735360D02*
X19920777Y-11725836D01*
X19920777Y-11725836D02*
X19911253Y-11706788D01*
X19911253Y-11706788D02*
X19901729Y-11668693D01*
X19901729Y-11668693D02*
X19901729Y-11621074D01*
X19901729Y-11621074D02*
X19911253Y-11582979D01*
X19911253Y-11582979D02*
X19920777Y-11563931D01*
X19920777Y-11563931D02*
X19930301Y-11554408D01*
X19930301Y-11554408D02*
X19949348Y-11544884D01*
X20206491Y-11744884D02*
X20092206Y-11744884D01*
X20149348Y-11744884D02*
X20149348Y-11544884D01*
X20149348Y-11544884D02*
X20130301Y-11573455D01*
X20130301Y-11573455D02*
X20111253Y-11592503D01*
X20111253Y-11592503D02*
X20092206Y-11602027D01*
X20396968Y-11744884D02*
X20282682Y-11744884D01*
X20339825Y-11744884D02*
X20339825Y-11544884D01*
X20339825Y-11544884D02*
X20320777Y-11573455D01*
X20320777Y-11573455D02*
X20301729Y-11592503D01*
X20301729Y-11592503D02*
X20282682Y-11602027D01*
X20511253Y-11630598D02*
X20492206Y-11621074D01*
X20492206Y-11621074D02*
X20482682Y-11611550D01*
X20482682Y-11611550D02*
X20473158Y-11592503D01*
X20473158Y-11592503D02*
X20473158Y-11582979D01*
X20473158Y-11582979D02*
X20482682Y-11563931D01*
X20482682Y-11563931D02*
X20492206Y-11554408D01*
X20492206Y-11554408D02*
X20511253Y-11544884D01*
X20511253Y-11544884D02*
X20549349Y-11544884D01*
X20549349Y-11544884D02*
X20568396Y-11554408D01*
X20568396Y-11554408D02*
X20577920Y-11563931D01*
X20577920Y-11563931D02*
X20587444Y-11582979D01*
X20587444Y-11582979D02*
X20587444Y-11592503D01*
X20587444Y-11592503D02*
X20577920Y-11611550D01*
X20577920Y-11611550D02*
X20568396Y-11621074D01*
X20568396Y-11621074D02*
X20549349Y-11630598D01*
X20549349Y-11630598D02*
X20511253Y-11630598D01*
X20511253Y-11630598D02*
X20492206Y-11640122D01*
X20492206Y-11640122D02*
X20482682Y-11649646D01*
X20482682Y-11649646D02*
X20473158Y-11668693D01*
X20473158Y-11668693D02*
X20473158Y-11706788D01*
X20473158Y-11706788D02*
X20482682Y-11725836D01*
X20482682Y-11725836D02*
X20492206Y-11735360D01*
X20492206Y-11735360D02*
X20511253Y-11744884D01*
X20511253Y-11744884D02*
X20549349Y-11744884D01*
X20549349Y-11744884D02*
X20568396Y-11735360D01*
X20568396Y-11735360D02*
X20577920Y-11725836D01*
X20577920Y-11725836D02*
X20587444Y-11706788D01*
X20587444Y-11706788D02*
X20587444Y-11668693D01*
X20587444Y-11668693D02*
X20577920Y-11649646D01*
X20577920Y-11649646D02*
X20568396Y-11640122D01*
X20568396Y-11640122D02*
X20549349Y-11630598D01*
X20663634Y-11544884D02*
X20663634Y-11582979D01*
X20739825Y-11544884D02*
X20739825Y-11582979D01*
X21035063Y-11821074D02*
X21025539Y-11811550D01*
X21025539Y-11811550D02*
X21006491Y-11782979D01*
X21006491Y-11782979D02*
X20996968Y-11763931D01*
X20996968Y-11763931D02*
X20987444Y-11735360D01*
X20987444Y-11735360D02*
X20977920Y-11687741D01*
X20977920Y-11687741D02*
X20977920Y-11649646D01*
X20977920Y-11649646D02*
X20987444Y-11602027D01*
X20987444Y-11602027D02*
X20996968Y-11573455D01*
X20996968Y-11573455D02*
X21006491Y-11554408D01*
X21006491Y-11554408D02*
X21025539Y-11525836D01*
X21025539Y-11525836D02*
X21035063Y-11516312D01*
X21101730Y-11563931D02*
X21111253Y-11554408D01*
X21111253Y-11554408D02*
X21130301Y-11544884D01*
X21130301Y-11544884D02*
X21177920Y-11544884D01*
X21177920Y-11544884D02*
X21196968Y-11554408D01*
X21196968Y-11554408D02*
X21206491Y-11563931D01*
X21206491Y-11563931D02*
X21216015Y-11582979D01*
X21216015Y-11582979D02*
X21216015Y-11602027D01*
X21216015Y-11602027D02*
X21206491Y-11630598D01*
X21206491Y-11630598D02*
X21092206Y-11744884D01*
X21092206Y-11744884D02*
X21216015Y-11744884D01*
X21282682Y-11544884D02*
X21406491Y-11544884D01*
X21406491Y-11544884D02*
X21339825Y-11621074D01*
X21339825Y-11621074D02*
X21368396Y-11621074D01*
X21368396Y-11621074D02*
X21387444Y-11630598D01*
X21387444Y-11630598D02*
X21396968Y-11640122D01*
X21396968Y-11640122D02*
X21406491Y-11659169D01*
X21406491Y-11659169D02*
X21406491Y-11706788D01*
X21406491Y-11706788D02*
X21396968Y-11725836D01*
X21396968Y-11725836D02*
X21387444Y-11735360D01*
X21387444Y-11735360D02*
X21368396Y-11744884D01*
X21368396Y-11744884D02*
X21311253Y-11744884D01*
X21311253Y-11744884D02*
X21292206Y-11735360D01*
X21292206Y-11735360D02*
X21282682Y-11725836D01*
X21644587Y-11744884D02*
X21644587Y-11544884D01*
X21730301Y-11744884D02*
X21730301Y-11640122D01*
X21730301Y-11640122D02*
X21720777Y-11621074D01*
X21720777Y-11621074D02*
X21701730Y-11611550D01*
X21701730Y-11611550D02*
X21673158Y-11611550D01*
X21673158Y-11611550D02*
X21654111Y-11621074D01*
X21654111Y-11621074D02*
X21644587Y-11630598D01*
X21854111Y-11744884D02*
X21835063Y-11735360D01*
X21835063Y-11735360D02*
X21825539Y-11725836D01*
X21825539Y-11725836D02*
X21816015Y-11706788D01*
X21816015Y-11706788D02*
X21816015Y-11649646D01*
X21816015Y-11649646D02*
X21825539Y-11630598D01*
X21825539Y-11630598D02*
X21835063Y-11621074D01*
X21835063Y-11621074D02*
X21854111Y-11611550D01*
X21854111Y-11611550D02*
X21882682Y-11611550D01*
X21882682Y-11611550D02*
X21901730Y-11621074D01*
X21901730Y-11621074D02*
X21911253Y-11630598D01*
X21911253Y-11630598D02*
X21920777Y-11649646D01*
X21920777Y-11649646D02*
X21920777Y-11706788D01*
X21920777Y-11706788D02*
X21911253Y-11725836D01*
X21911253Y-11725836D02*
X21901730Y-11735360D01*
X21901730Y-11735360D02*
X21882682Y-11744884D01*
X21882682Y-11744884D02*
X21854111Y-11744884D01*
X22035063Y-11744884D02*
X22016015Y-11735360D01*
X22016015Y-11735360D02*
X22006492Y-11716312D01*
X22006492Y-11716312D02*
X22006492Y-11544884D01*
X22187444Y-11735360D02*
X22168396Y-11744884D01*
X22168396Y-11744884D02*
X22130301Y-11744884D01*
X22130301Y-11744884D02*
X22111253Y-11735360D01*
X22111253Y-11735360D02*
X22101730Y-11716312D01*
X22101730Y-11716312D02*
X22101730Y-11640122D01*
X22101730Y-11640122D02*
X22111253Y-11621074D01*
X22111253Y-11621074D02*
X22130301Y-11611550D01*
X22130301Y-11611550D02*
X22168396Y-11611550D01*
X22168396Y-11611550D02*
X22187444Y-11621074D01*
X22187444Y-11621074D02*
X22196968Y-11640122D01*
X22196968Y-11640122D02*
X22196968Y-11659169D01*
X22196968Y-11659169D02*
X22101730Y-11678217D01*
X22273158Y-11735360D02*
X22292206Y-11744884D01*
X22292206Y-11744884D02*
X22330301Y-11744884D01*
X22330301Y-11744884D02*
X22349349Y-11735360D01*
X22349349Y-11735360D02*
X22358873Y-11716312D01*
X22358873Y-11716312D02*
X22358873Y-11706788D01*
X22358873Y-11706788D02*
X22349349Y-11687741D01*
X22349349Y-11687741D02*
X22330301Y-11678217D01*
X22330301Y-11678217D02*
X22301730Y-11678217D01*
X22301730Y-11678217D02*
X22282682Y-11668693D01*
X22282682Y-11668693D02*
X22273158Y-11649646D01*
X22273158Y-11649646D02*
X22273158Y-11640122D01*
X22273158Y-11640122D02*
X22282682Y-11621074D01*
X22282682Y-11621074D02*
X22301730Y-11611550D01*
X22301730Y-11611550D02*
X22330301Y-11611550D01*
X22330301Y-11611550D02*
X22349349Y-11621074D01*
X22425539Y-11821074D02*
X22435063Y-11811550D01*
X22435063Y-11811550D02*
X22454111Y-11782979D01*
X22454111Y-11782979D02*
X22463634Y-11763931D01*
X22463634Y-11763931D02*
X22473158Y-11735360D01*
X22473158Y-11735360D02*
X22482682Y-11687741D01*
X22482682Y-11687741D02*
X22482682Y-11649646D01*
X22482682Y-11649646D02*
X22473158Y-11602027D01*
X22473158Y-11602027D02*
X22463634Y-11573455D01*
X22463634Y-11573455D02*
X22454111Y-11554408D01*
X22454111Y-11554408D02*
X22435063Y-11525836D01*
X22435063Y-11525836D02*
X22425539Y-11516312D01*
M02*
